<svg width="99" height="193" viewBox="0 0 99 193" fill="none" xmlns="http://www.w3.org/2000/svg">
<path d="M73.728 169.448C71.2533 167.827 68.6933 165.736 66.048 163.176C63.4027 160.616 60.8853 157.757 58.496 154.6C56.192 151.443 54.1867 148.285 52.48 145.128L61.824 141.672C64.0427 146.109 66.9013 150.12 70.4 153.704C73.8987 157.373 77.44 160.531 81.024 163.176L73.728 169.448ZM7.936 99.816C7.936 90.2587 9.55733 82.0667 12.8 75.24C16.128 68.328 20.864 62.9947 27.008 59.24C33.2373 55.4853 40.704 53.608 49.408 53.608C57.856 53.608 65.1947 55.4853 71.424 59.24C77.6533 62.9947 82.432 68.328 85.76 75.24C89.1733 82.0667 90.88 90.216 90.88 99.688C90.88 109.245 89.1733 117.48 85.76 124.392C82.3467 131.304 77.5253 136.68 71.296 140.52C65.152 144.275 57.856 146.152 49.408 146.152C40.704 146.152 33.28 144.275 27.136 140.52C20.992 136.68 16.256 131.304 12.928 124.392C9.6 117.48 7.936 109.288 7.936 99.816ZM19.072 99.816C19.072 111.421 21.632 120.509 26.752 127.08C31.872 133.565 39.424 136.808 49.408 136.808C58.9653 136.808 66.3893 133.565 71.68 127.08C77.056 120.509 79.744 111.421 79.744 99.816C79.744 88.1253 77.0987 79.08 71.808 72.68C66.5173 66.1947 59.0507 62.952 49.408 62.952C39.424 62.952 31.872 66.1947 26.752 72.68C21.632 79.08 19.072 88.1253 19.072 99.816Z" fill="#811870"/>
</svg>
