<svg width="116" height="23" viewBox="0 0 116 23" fill="none" xmlns="http://www.w3.org/2000/svg">
<path d="M12.824 22.584C12.36 22.28 11.88 21.888 11.384 21.408C10.888 20.928 10.416 20.392 9.968 19.8C9.536 19.208 9.16 18.616 8.84 18.024L10.592 17.376C11.008 18.208 11.544 18.96 12.2 19.632C12.856 20.32 13.52 20.912 14.192 21.408L12.824 22.584ZM0.488 9.528C0.488 7.736 0.792 6.2 1.4 4.92C2.024 3.624 2.912 2.624 4.064 1.92C5.232 1.216 6.632 0.863999 8.264 0.863999C9.848 0.863999 11.224 1.216 12.392 1.92C13.56 2.624 14.456 3.624 15.08 4.92C15.72 6.2 16.04 7.728 16.04 9.504C16.04 11.296 15.72 12.84 15.08 14.136C14.44 15.432 13.536 16.44 12.368 17.16C11.216 17.864 9.848 18.216 8.264 18.216C6.632 18.216 5.24 17.864 4.088 17.16C2.936 16.44 2.048 15.432 1.424 14.136C0.8 12.84 0.488 11.304 0.488 9.528ZM2.576 9.528C2.576 11.704 3.056 13.408 4.016 14.64C4.976 15.856 6.392 16.464 8.264 16.464C10.056 16.464 11.448 15.856 12.44 14.64C13.448 13.408 13.952 11.704 13.952 9.528C13.952 7.336 13.456 5.64 12.464 4.44C11.472 3.224 10.072 2.616 8.264 2.616C6.392 2.616 4.976 3.224 4.016 4.44C3.056 5.64 2.576 7.336 2.576 9.528ZM23.6831 18.216C22.2591 18.216 21.1791 17.824 20.4431 17.04C19.7231 16.256 19.3631 15.056 19.3631 13.44V5.952H21.3071V13.392C21.3071 14.496 21.5311 15.312 21.9791 15.84C22.4271 16.352 23.1231 16.608 24.0671 16.608C25.1231 16.608 25.9711 16.264 26.6111 15.576C27.2511 14.888 27.5711 13.968 27.5711 12.816V5.952H29.5151V18H27.6191V15.288H27.9311C27.5951 16.216 27.0511 16.936 26.2991 17.448C25.5631 17.96 24.6911 18.216 23.6831 18.216ZM33.2866 18V5.952H35.2306V18H33.2866ZM33.0466 3.216V1.032H35.4466V3.216H33.0466ZM44.0694 18.216C42.8854 18.216 41.8534 17.96 40.9734 17.448C40.1094 16.936 39.4374 16.208 38.9574 15.264C38.4934 14.32 38.2614 13.2 38.2614 11.904C38.2614 10.592 38.5014 9.48 38.9814 8.568C39.4614 7.64 40.1334 6.936 40.9974 6.456C41.8774 5.976 42.9014 5.736 44.0694 5.736C44.8374 5.736 45.5814 5.872 46.3014 6.144C47.0374 6.416 47.6454 6.8 48.1254 7.296L47.4294 8.688C46.9494 8.224 46.4214 7.88 45.8454 7.656C45.2854 7.432 44.7334 7.32 44.1894 7.32C42.9414 7.32 41.9734 7.712 41.2854 8.496C40.5974 9.28 40.2534 10.424 40.2534 11.928C40.2534 13.416 40.5974 14.568 41.2854 15.384C41.9734 16.2 42.9414 16.608 44.1894 16.608C44.7174 16.608 45.2614 16.504 45.8214 16.296C46.3974 16.088 46.9334 15.744 47.4294 15.264L48.1254 16.632C47.6294 17.144 47.0134 17.536 46.2774 17.808C45.5414 18.08 44.8054 18.216 44.0694 18.216ZM50.8882 18V0.335999H52.8322V11.304H52.8802L58.4722 5.952H60.9202L54.3202 12.24L54.3682 11.256L61.5442 18H59.0242L52.8802 12.336H52.8322V18H50.8882Z" fill="#25313C"/>
<path d="M63.4798 18V1.08H65.2078L71.9998 16.416H71.3038L78.0958 1.08H79.8238V18H77.9998V3.648H78.7198L72.3118 18H70.9918L64.5598 3.648H65.2798V18H63.4798ZM89.1933 18.216C87.3053 18.216 85.8173 17.672 84.7293 16.584C83.6413 15.48 83.0973 13.952 83.0973 12C83.0973 10.736 83.3373 9.64 83.8173 8.712C84.2973 7.768 84.9693 7.04 85.8333 6.528C86.6973 6 87.6893 5.736 88.8093 5.736C89.9133 5.736 90.8413 5.968 91.5933 6.432C92.3453 6.896 92.9213 7.56 93.3213 8.424C93.7213 9.272 93.9213 10.28 93.9213 11.448V12.168H84.5853V10.944H92.6493L92.2413 11.256C92.2413 9.976 91.9533 8.976 91.3773 8.256C90.8013 7.536 89.9453 7.176 88.8093 7.176C87.6093 7.176 86.6733 7.6 86.0013 8.448C85.3293 9.28 84.9933 10.408 84.9933 11.832V12.048C84.9933 13.552 85.3613 14.696 86.0973 15.48C86.8493 16.248 87.8973 16.632 89.2413 16.632C89.9613 16.632 90.6333 16.528 91.2573 16.32C91.8973 16.096 92.5053 15.736 93.0813 15.24L93.7533 16.608C93.2253 17.12 92.5533 17.52 91.7373 17.808C90.9373 18.08 90.0893 18.216 89.1933 18.216ZM102.248 18.216C100.36 18.216 98.872 17.672 97.784 16.584C96.696 15.48 96.152 13.952 96.152 12C96.152 10.736 96.392 9.64 96.872 8.712C97.352 7.768 98.024 7.04 98.888 6.528C99.752 6 100.744 5.736 101.864 5.736C102.968 5.736 103.896 5.968 104.648 6.432C105.4 6.896 105.976 7.56 106.376 8.424C106.776 9.272 106.976 10.28 106.976 11.448V12.168H97.64V10.944H105.704L105.296 11.256C105.296 9.976 105.008 8.976 104.432 8.256C103.856 7.536 103 7.176 101.864 7.176C100.664 7.176 99.728 7.6 99.056 8.448C98.384 9.28 98.048 10.408 98.048 11.832V12.048C98.048 13.552 98.416 14.696 99.152 15.48C99.904 16.248 100.952 16.632 102.296 16.632C103.016 16.632 103.688 16.528 104.312 16.32C104.952 16.096 105.56 15.736 106.136 15.24L106.808 16.608C106.28 17.12 105.608 17.52 104.792 17.808C103.992 18.08 103.144 18.216 102.248 18.216ZM114.223 18.216C113.039 18.216 112.135 17.88 111.511 17.208C110.887 16.52 110.575 15.488 110.575 14.112V7.464H108.223V5.952H110.575V2.664L112.519 2.112V5.952H115.975V7.464H112.519V13.896C112.519 14.856 112.679 15.544 112.999 15.96C113.335 16.36 113.831 16.56 114.487 16.56C114.791 16.56 115.063 16.536 115.303 16.488C115.543 16.424 115.759 16.352 115.951 16.272V17.904C115.727 18 115.455 18.072 115.135 18.12C114.831 18.184 114.527 18.216 114.223 18.216Z" fill="#811870"/>
</svg>
