<svg width="320" height="576" viewBox="0 0 320 576" fill="none" xmlns="http://www.w3.org/2000/svg">
<mask id="mask0_186_10518" style="mask-type:alpha" maskUnits="userSpaceOnUse" x="0" y="0" width="320" height="576">
<rect width="320" height="576" fill="#D9D9D9"/>
</mask>
<g mask="url(#mask0_186_10518)">
<path d="M-73.8116 259.554C-73.8116 259.554 -85.7504 263.677 -73.5809 289.25C-61.4114 314.823 -52.8459 327.552 -52.8459 327.552C-52.8459 327.552 -50.7244 333.47 -55.6697 334.247C-60.6151 335.024 -71.4043 333.001 -73.7588 338.973C-76.2005 345.169 -71.8231 351.193 -62.7642 356.619C-53.7053 362.044 -34.2933 374.661 -32.5435 375.809C-30.8247 376.935 -29.1449 379.708 -32.4288 380.778C-35.7127 381.848 -60.155 383.739 -58.5647 395.304C-56.9743 406.868 -29.2596 417.829 -26.2522 419.086C-23.2448 420.342 -22.5529 421.653 -22.8455 423.316C-23.1381 424.98 -31.4133 424.84 -38.3426 425.663C-45.2718 426.486 -53.1638 428.657 -51.6882 435.253C-50.2126 441.848 -34.003 456.058 6.1497 461.096L24.9077 462.211L35.5523 446.597C56.2988 411.791 55.094 390.247 50.813 385.024C46.5319 379.8 39.9675 384.695 35.0543 389.66C30.1422 394.624 25.1601 401.245 23.6708 400.452C22.1814 399.659 21.5767 398.307 22.4385 395.159C23.3002 392.012 31.7325 363.381 23.6123 355.009C15.492 346.637 -1.03772 364.773 -3.90167 366.707C-6.76448 368.642 -7.91305 365.61 -7.74094 363.559C-7.56653 361.47 -5.54707 338.378 -4.24131 327.887C-2.93555 317.395 -4.9814 310.231 -11.3587 308.346C-17.5078 306.529 -22.5564 316.293 -26.2109 319.72C-29.8666 323.147 -33.2159 317.829 -33.2159 317.829C-33.2159 317.829 -37.9605 303.232 -50.5924 277.884C-63.2243 252.539 -74.0479 259.654 -74.0479 259.654" fill="#EBEBEB"/>
<path d="M25.7602 466.663C16.5568 448.011 0.754502 414.585 -12.9617 385.957C-26.6734 357.339 -39.1102 331.441 -48.2184 312.744C-52.7748 303.416 -56.4649 295.861 -59.0283 290.614C-60.2939 288.017 -61.2807 285.993 -61.9634 284.594C-62.2846 283.919 -62.5348 283.396 -62.7138 283.021C-62.8802 282.666 -62.9513 282.477 -62.9513 282.477C-62.9513 282.477 -62.8434 282.648 -62.6599 282.995C-62.4682 283.364 -62.202 283.878 -61.8578 284.541C-61.1533 285.928 -60.1332 287.936 -58.824 290.512C-56.1953 295.701 -52.4455 303.236 -47.8467 312.564C-38.6432 331.216 -26.1456 357.088 -12.4339 385.706C1.28232 414.334 17.0238 447.785 26.1331 466.483" fill="#E0E0E0"/>
<path d="M-6.72659 399.833C-6.75757 399.807 -6.47301 399.402 -5.93258 398.693C-5.31412 397.892 -4.54306 396.892 -3.62627 395.705C-1.6837 393.179 0.986342 389.679 3.78948 385.71C6.60295 381.746 9.024 378.07 10.7555 375.395C11.5713 374.136 12.2597 373.076 12.8093 372.227C13.2993 371.481 13.5862 371.079 13.6206 371.099C13.655 371.12 13.4347 371.563 13.0044 372.345C12.5741 373.128 11.9304 374.248 11.1054 375.614C9.46118 378.35 7.08717 382.073 4.26567 386.049C1.4545 390.03 -1.27407 393.5 -3.30271 395.963C-4.32276 397.191 -5.15808 398.176 -5.75589 398.838C-6.3514 399.504 -6.69561 399.86 -6.72659 399.833Z" fill="#E0E0E0"/>
<path d="M-27.2194 436.879C-27.2149 436.839 -26.6308 436.872 -25.5798 436.968C-24.422 437.087 -22.9281 437.241 -21.1347 437.425C-17.3849 437.837 -12.2089 438.446 -6.49707 439.154C-0.782932 439.862 4.38504 440.536 8.12218 441.053C9.90641 441.312 11.3923 441.528 12.5443 441.696C13.5873 441.86 14.1611 441.97 14.1553 442.009C14.1507 442.05 13.5667 442.016 12.5157 441.921C11.3568 441.801 9.86396 441.648 8.07054 441.463C4.32078 441.052 -0.856371 440.443 -6.56937 439.735C-12.2812 439.026 -17.4492 438.353 -21.1863 437.837C-22.9705 437.578 -24.4565 437.362 -25.6085 437.195C-26.6503 437.03 -27.2252 436.92 -27.2194 436.879Z" fill="#E0E0E0"/>
<path d="M13.2008 441.607C13.1687 441.583 13.5152 441.06 14.1692 440.137C14.8886 439.132 15.8261 437.822 16.9574 436.243C19.3073 432.952 22.535 428.394 25.9566 423.262C29.3874 418.133 32.3695 413.41 34.5049 409.975C35.5318 408.327 36.3844 406.958 37.0372 405.91C37.6396 404.951 37.9885 404.431 38.024 404.451C38.0584 404.472 37.7762 405.03 37.2334 406.025C36.6919 407.019 35.8852 408.444 34.8583 410.189C32.8113 413.682 29.8785 418.449 26.442 423.586C23.0146 428.727 19.7273 433.255 17.2902 436.486C16.067 438.099 15.0642 439.394 14.3516 440.274C13.6402 441.155 13.2329 441.631 13.2008 441.607Z" fill="#E0E0E0"/>
<path d="M229.422 405.166C200.317 390.763 189.157 357.494 185.531 326.613C184.925 321.459 183.543 316.138 185.294 311.267C187.047 306.396 192.261 302.456 197.173 303.918C201.247 305.132 203.577 309.309 206.259 312.648C209.829 317.092 214.657 320.483 220.01 322.306C223.527 323.504 227.717 323.926 230.666 321.657C234.711 318.543 234.303 312.353 233.497 307.256C231.992 297.758 230.49 288.26 228.987 278.766C228.181 273.67 227.375 268.466 228.223 263.383C229.071 258.301 231.888 253.27 236.524 251.173C241.161 249.076 247.575 250.96 249.356 255.797C250.097 257.81 250.002 260.031 250.466 262.126C250.928 264.223 252.27 266.415 254.366 266.699C256.489 266.987 258.306 265.231 259.602 263.506C264.075 257.555 266.633 250.377 268.963 243.272C271.294 236.166 273.504 228.919 277.419 222.575C281.334 216.231 287.253 210.774 294.482 209.249C301.712 207.725 310.165 211.049 313.096 217.939C316.036 224.848 312.956 232.782 309.284 239.297C303.835 248.964 296.997 257.819 289.052 265.5C287.62 266.886 286.068 268.384 285.742 270.367C285.152 273.936 288.881 276.822 292.403 277.43C296.39 278.119 300.449 277.096 304.49 276.959C308.531 276.822 313.098 277.921 315.171 281.451C318.049 286.346 314.526 292.474 310.787 296.705C303.3 305.18 294.367 312.333 284.504 317.76C280.968 319.704 277.209 321.509 274.588 324.605C271.968 327.703 270.842 332.564 273.212 335.878C275.585 339.196 280.443 339.632 284.255 338.304C288.066 336.979 291.254 334.309 294.778 332.326C301.373 328.614 310.482 327.719 315.885 333.094C319.435 336.627 320.536 342.132 319.768 347.106C319 352.079 316.598 356.628 313.963 360.887C304.75 375.776 292.006 388.577 276.63 396.688C261.258 404.798 246.45 408.616 229.422 405.166Z" fill="#F5F5F5"/>
<path d="M234.414 384.699C236.573 368.507 240.409 350.954 245.05 332.734C246.227 328.183 247.391 323.686 248.537 319.255C249.691 314.834 250.837 310.449 252.22 306.231C254.952 297.779 258.222 289.861 261.56 282.444C264.896 275.022 268.332 268.1 271.591 261.653C274.867 255.209 278.032 249.26 281.148 243.962C287.347 233.337 293.351 225.377 297.694 220.081C299.86 217.424 301.608 215.419 302.81 214.075C303.391 213.436 303.845 212.934 304.187 212.556C304.501 212.218 304.668 212.05 304.68 212.062C304.694 212.072 304.551 212.262 304.26 212.621C303.936 213.014 303.503 213.537 302.953 214.202C301.799 215.586 300.098 217.628 297.977 220.316C293.729 225.678 287.832 233.671 281.724 244.307C278.653 249.612 275.53 255.565 272.291 262.015C269.064 268.475 265.659 275.398 262.352 282.811C259.045 290.22 255.806 298.116 253.102 306.524C251.732 310.722 250.601 315.069 249.447 319.501C248.303 323.93 247.142 328.424 245.967 332.973C241.33 351.179 237.478 368.683 235.278 384.821" fill="#E0E0E0"/>
<path d="M252.482 306.153C252.42 306.172 252.13 305.424 251.655 304.053C251.173 302.684 250.542 300.681 249.798 298.195C248.307 293.226 246.481 286.295 244.497 278.644C242.512 270.988 240.594 264.103 239.032 259.171C238.258 256.703 237.61 254.711 237.146 253.341C236.688 251.966 236.464 251.195 236.525 251.17C236.586 251.145 236.925 251.872 237.49 253.21C238.061 254.543 238.807 256.508 239.664 258.957C241.397 263.853 243.426 270.739 245.412 278.4C247.351 285.954 249.103 292.789 250.442 298.011C251.062 300.366 251.586 302.35 252.007 303.943C252.371 305.347 252.545 306.133 252.482 306.153Z" fill="#E0E0E0"/>
<path d="M316.081 283.92C316.093 283.984 315.178 284.235 313.518 284.631C311.861 285.037 309.461 285.612 306.517 286.416C300.621 287.978 292.55 290.422 283.763 293.508C274.979 296.612 267.149 299.758 261.552 302.198C258.743 303.398 256.497 304.432 254.94 305.136C253.385 305.847 252.512 306.212 252.481 306.154C252.451 306.094 253.27 305.616 254.778 304.8C256.289 303.991 258.498 302.862 261.279 301.578C266.822 298.972 274.64 295.714 283.45 292.6C292.262 289.506 300.395 287.155 306.352 285.758C309.325 285.035 311.757 284.559 313.442 284.266C315.13 283.981 316.067 283.853 316.081 283.92Z" fill="#E0E0E0"/>
<path d="M235.036 383.37C235.008 383.388 234.813 383.136 234.465 382.639C234.065 382.043 233.577 381.317 232.985 380.436C231.709 378.519 229.934 375.695 227.787 372.179C223.488 365.147 217.854 355.248 211.785 344.241C205.712 333.229 200.178 323.291 196.033 316.18C194.005 312.725 192.337 309.885 191.098 307.772C190.565 306.855 190.127 306.097 189.766 305.477C189.472 304.947 189.329 304.661 189.357 304.641C189.386 304.625 189.579 304.877 189.928 305.374C190.329 305.97 190.816 306.695 191.407 307.575C192.683 309.492 194.458 312.315 196.606 315.832C200.906 322.863 206.538 332.763 212.61 343.775C218.681 354.784 224.214 364.721 228.361 371.833C230.39 375.285 232.057 378.129 233.296 380.24C233.829 381.158 234.267 381.916 234.627 382.536C234.921 383.065 235.063 383.352 235.036 383.37Z" fill="#E0E0E0"/>
<path d="M317.756 342.026C317.77 342.057 317.49 342.224 316.947 342.515C316.301 342.847 315.51 343.254 314.55 343.748C312.332 344.862 309.338 346.364 305.695 348.192C298.218 351.946 287.951 357.25 276.613 363.126C265.273 369.005 254.947 374.218 247.39 377.818C243.612 379.619 240.541 381.046 238.399 381.987C237.407 382.416 236.589 382.769 235.926 383.057C235.356 383.293 235.049 383.401 235.035 383.37C235.023 383.34 235.302 383.172 235.844 382.88C236.488 382.55 237.281 382.143 238.242 381.649C240.46 380.535 243.454 379.034 247.096 377.205C254.574 373.452 264.842 368.148 276.182 362.269C287.518 356.392 297.844 351.179 305.401 347.579C309.178 345.777 312.25 344.351 314.393 343.409C315.385 342.98 316.2 342.625 316.867 342.339C317.436 342.104 317.741 341.996 317.756 342.026Z" fill="#E0E0E0"/>
<path d="M7.30876 106.65C3.54752 103.044 2.30488 97.2223 3.6921 92.1946C5.08048 87.1668 8.8486 82.9828 13.4257 80.4966C15.5415 79.3471 18.1014 78.5264 20.3285 79.4437C22.4099 80.3011 23.6882 82.5495 23.8935 84.7944C24.0989 87.0393 23.3921 89.2749 22.4386 91.3175C19.1708 98.3235 14.7234 104.502 7.30876 106.65Z" fill="#F5F5F5"/>
<path d="M11.0457 128.947C10.931 128.986 9.97289 126.929 8.71532 123.449C8.08654 121.708 7.57134 119.508 7.31318 117.074C7.06878 114.648 6.74407 111.982 6.82095 109.124C6.91619 103.422 8.52831 98.3578 10.4089 95.1417C11.3372 93.5198 12.2941 92.3462 12.978 91.5692C13.6986 90.8197 14.1311 90.445 14.1793 90.491C14.317 90.6117 12.7037 92.2519 11.0377 95.4807C9.37279 98.6912 7.92591 103.598 7.83182 109.147C7.75494 111.902 8.04869 114.565 8.24031 116.974C8.44684 119.383 8.86563 121.484 9.39804 123.232C10.4663 126.726 11.196 128.897 11.0457 128.947Z" fill="#E0E0E0"/>
<path d="M-27.9722 69.2444C-27.9148 69.2042 -27.2481 70.0479 -26.0927 71.6088C-24.9361 73.1687 -23.293 75.4469 -21.2885 78.2803C-17.2805 83.9471 -11.828 91.8404 -6.02091 100.703C-0.213828 109.571 4.81645 117.745 8.33099 123.734C10.0888 126.729 11.4829 129.169 12.4112 130.875C13.3441 132.578 13.8306 133.537 13.7709 133.573C13.7112 133.608 13.1088 132.716 12.0727 131.076C10.9483 129.276 9.48414 126.931 7.71941 124.106C4.05111 118.217 -1.06751 110.116 -6.86656 101.258C-12.6794 92.5174 -17.9369 84.6115 -21.8771 78.686C-23.7164 75.909 -25.2436 73.6032 -26.4163 71.833C-27.4719 70.2042 -28.0295 69.2846 -27.9722 69.2444Z" fill="#E0E0E0"/>
<path d="M-24.7332 113.738C-24.7423 113.667 -24.1927 113.54 -23.1887 113.367C-22.187 113.18 -20.7229 113.008 -18.9077 112.843C-15.2979 112.603 -10.1311 112.416 -4.70728 114.07C-2.01085 114.9 0.411355 116.154 2.39295 117.587C4.38831 119.018 5.87191 120.672 7.02392 122.1C8.12659 123.571 8.92979 124.822 9.37154 125.748C9.84084 126.659 10.0703 127.172 10.0084 127.206C9.83281 127.308 8.78178 125.298 6.47203 122.554C5.27986 121.222 3.79739 119.677 1.85252 118.346C-0.0808796 117.011 -2.40556 115.836 -5.00331 115.036C-10.2229 113.44 -15.2842 113.498 -18.8676 113.557C-22.4762 113.686 -24.7148 113.9 -24.7332 113.738Z" fill="#E0E0E0"/>
<path d="M227.278 76.3817H154.685V183.013H227.278V76.3817Z" fill="#F5F5F5"/>
<path d="M227.278 183.013C227.278 183.013 227.267 182.832 227.262 182.49C227.258 182.134 227.252 181.633 227.246 180.979C227.238 179.636 227.227 177.677 227.212 175.136C227.195 170.028 227.171 162.59 227.139 153.189C227.106 134.398 227.06 107.777 227.005 76.3805L227.278 76.654C205.2 76.6621 180.588 76.6701 154.693 76.6793H154.685L154.984 76.3805C154.962 116.491 154.941 153.517 154.925 183.012L154.685 182.772C176.749 182.825 194.865 182.867 207.486 182.898C213.797 182.925 218.729 182.945 222.105 182.959C223.778 182.971 225.062 182.98 225.947 182.986C226.818 182.996 227.278 183.013 227.278 183.013C227.278 183.013 226.852 183.03 225.997 183.04C225.123 183.045 223.854 183.055 222.2 183.066C218.837 183.08 213.923 183.101 207.635 183.127C194.979 183.157 176.811 183.201 154.685 183.253L154.445 183.255V183.013C154.429 153.519 154.409 116.492 154.387 76.3816V76.0828H154.686H154.694C180.589 76.092 205.2 76.1011 227.279 76.108H227.552V76.3816C227.497 107.85 227.45 134.535 227.418 153.369C227.387 162.742 227.361 170.16 227.344 175.253C227.331 177.772 227.319 179.711 227.311 181.042C227.304 181.683 227.298 182.174 227.295 182.522C227.288 182.853 227.278 183.013 227.278 183.013Z" fill="#263238"/>
<path d="M161.538 178.951C158.1 177.34 155.754 173.629 155.771 169.826C155.788 166.025 158.168 162.334 161.619 160.755C162.252 160.465 162.951 160.216 163.372 159.659C164.016 158.807 163.761 157.613 163.791 156.544C163.868 153.768 166.41 151.297 169.182 151.302L185.527 157.739V174.991L161.538 178.951Z" fill="#263238"/>
<path d="M155.562 182.729C155.562 182.729 167.657 173.156 182.601 170.9C197.546 168.644 214.173 170.9 214.173 170.9C214.173 170.9 219.819 171.682 227.192 175.413L227.278 182.972L211.201 182.915L155.562 182.729Z" fill="#811870"/>
<path d="M220.419 103.1C218.858 98.7672 211.462 95.0476 207.402 92.8866C201.331 89.6544 195.829 90.528 192.531 93.6924C186.207 88.7279 177.947 84.0335 170.245 86.3267C162.544 88.6199 156.509 96.7982 158.187 104.669C159.176 109.305 162.541 113.383 162.511 118.124C162.49 121.356 160.88 124.327 159.619 127.301C158.357 130.276 157.424 133.724 158.736 136.677C159.957 139.426 162.83 141.069 164.431 143.613C165.737 145.686 166.106 148.195 166.973 150.486C170.186 158.976 180.465 163.451 189.348 161.644C198.23 159.837 205.441 152.854 209.393 144.682C213.344 136.511 214.432 127.247 214.622 118.17" fill="#263238"/>
<path d="M214.259 173.472L213.949 109.533L187.107 101.336C178.851 100.2 171.31 106.17 170.508 114.479C169.551 124.392 168.739 136.851 169.697 144.406C171.566 159.15 182.734 161.368 182.734 161.368C182.734 161.368 182.643 166.845 182.52 173.241C182.452 176.85 183.6 180.201 185.579 182.915H211.2C213.13 180.273 214.276 177.015 214.259 173.472Z" fill="#FFBE9D"/>
<path d="M182.735 161.368C182.735 161.368 192.582 162.192 202.526 156.618C202.526 156.618 197.283 167.101 182.667 165.271L182.735 161.368Z" fill="#EB996E"/>
<path d="M191.824 116.053C192.006 116.609 194.032 116.411 196.394 116.771C198.763 117.084 200.654 117.839 200.983 117.355C201.131 117.123 200.814 116.595 200.057 116.038C199.308 115.481 198.1 114.938 196.682 114.734C195.264 114.534 193.952 114.72 193.078 115.045C192.198 115.37 191.747 115.788 191.824 116.053Z" fill="#263238"/>
<path d="M173.169 117.171C173.511 117.642 174.918 117.208 176.593 117.237C178.269 117.209 179.675 117.642 180.017 117.172C180.167 116.943 179.958 116.475 179.351 116.02C178.755 115.567 177.745 115.18 176.593 115.179C175.442 115.18 174.431 115.565 173.834 116.018C173.227 116.473 173.019 116.941 173.169 117.171Z" fill="#263238"/>
<path d="M191.295 132.589C191.305 132.886 191.553 133.118 191.848 133.107C192.143 133.097 192.376 132.849 192.365 132.553C192.355 132.256 192.107 132.024 191.812 132.035C191.517 132.044 191.286 132.292 191.295 132.589Z" fill="#EB996E"/>
<path d="M176.065 130.468C176.075 130.765 176.322 130.997 176.618 130.987C176.914 130.977 177.146 130.728 177.136 130.433C177.125 130.136 176.879 129.904 176.582 129.914C176.288 129.924 176.056 130.172 176.065 130.468Z" fill="#EB996E"/>
<path d="M173.155 131.964C173.165 132.26 173.413 132.493 173.708 132.482C174.004 132.472 174.236 132.223 174.226 131.928C174.215 131.631 173.967 131.399 173.673 131.409C173.377 131.418 173.145 131.667 173.155 131.964Z" fill="#EB996E"/>
<path d="M172.18 129.751C172.19 130.048 172.438 130.28 172.733 130.27C173.029 130.259 173.261 130.011 173.25 129.715C173.24 129.419 172.992 129.186 172.697 129.197C172.401 129.206 172.17 129.454 172.18 129.751Z" fill="#EB996E"/>
<path d="M193.824 134.877C193.834 135.174 194.081 135.406 194.377 135.396C194.673 135.386 194.904 135.137 194.894 134.842C194.884 134.545 194.636 134.313 194.341 134.323C194.046 134.332 193.814 134.581 193.824 134.877Z" fill="#EB996E"/>
<path d="M195.759 132.652C195.768 132.949 196.017 133.181 196.312 133.171C196.608 133.161 196.84 132.912 196.83 132.617C196.819 132.32 196.573 132.088 196.277 132.098C195.982 132.107 195.75 132.356 195.759 132.652Z" fill="#EB996E"/>
<path d="M186.922 99.0879C194.822 93.5187 205.678 92.8015 213.993 97.7131C222.308 102.625 226.841 109.698 227.278 121.385V136.268C226.841 143.05 228.287 146.976 224.958 148.125C220.418 149.69 216.909 162.058 212.997 161.196C208.172 157.438 208.094 155.242 207.921 147.556C207.734 139.289 205.259 129.461 208.491 124.145C197.818 120.961 189.311 110.726 187.676 99.1062" fill="#263238"/>
<path d="M171.933 85.8635C171.929 85.9394 173.194 85.9394 175.161 86.3946C175.651 86.5118 176.187 86.644 176.744 86.8452C177.313 87.0118 177.893 87.2693 178.508 87.5199C179.717 88.0739 181 88.79 182.239 89.6981C183.467 90.6234 184.524 91.6453 185.404 92.6442C185.823 93.1614 186.237 93.6419 186.561 94.1396C186.915 94.6166 187.197 95.0902 187.451 95.527C188.456 97.2799 188.823 98.4938 188.894 98.4662C188.916 98.4593 188.827 98.1581 188.643 97.6167C188.557 97.3443 188.439 97.0156 188.262 96.6489C188.091 96.2811 187.921 95.8489 187.657 95.4098C187.413 94.9603 187.139 94.4707 186.789 93.981C186.47 93.4695 186.058 92.9741 185.638 92.443C184.757 91.4166 183.687 90.3694 182.438 89.428C181.176 88.5038 179.866 87.7831 178.63 87.236C178 86.9877 177.409 86.7371 176.827 86.5796C176.257 86.3865 175.709 86.2658 175.209 86.1624C174.713 86.0371 174.251 85.9992 173.851 85.9428C173.45 85.8808 173.101 85.8624 172.816 85.8589C172.248 85.8394 171.934 85.8405 171.933 85.8635Z" fill="#455A64"/>
<path d="M163.411 141.95C163.416 141.945 163.381 141.903 163.31 141.823C163.225 141.73 163.121 141.615 162.991 141.475C162.712 141.169 162.292 140.722 161.809 140.104C161.338 139.484 160.763 138.69 160.431 137.635C160.27 137.109 160.181 136.52 160.239 135.901C160.302 135.285 160.504 134.65 160.839 134.043C161.494 132.812 162.602 131.718 163.605 130.383C164.599 129.042 165.509 127.491 166.205 125.745C166.906 124.003 167.413 122.076 167.612 120.038C167.82 117.995 167.659 115.88 167.559 113.736C167.458 111.595 167.444 109.485 167.922 107.53C168.392 105.581 169.355 103.843 170.546 102.443C171.736 101.035 173.165 99.9601 174.639 99.2498C176.11 98.5268 177.628 98.1842 179.016 98.0842C181.817 97.8831 184.052 98.621 185.457 99.2785C186.163 99.6164 186.687 99.9337 187.033 100.158C187.191 100.264 187.321 100.349 187.425 100.419C187.515 100.476 187.563 100.503 187.567 100.498C187.567 100.498 186.928 99.882 185.514 99.1601C184.113 98.4589 181.857 97.6727 179.001 97.8463C177.586 97.9325 176.031 98.2681 174.519 98.998C173.006 99.7141 171.536 100.805 170.311 102.242C169.085 103.671 168.09 105.448 167.603 107.452C167.108 109.458 167.123 111.603 167.224 113.751C167.325 115.903 167.486 118 167.285 120.005C167.093 122.01 166.6 123.91 165.918 125.63C165.24 127.353 164.352 128.888 163.381 130.217C162.407 131.538 161.295 132.651 160.629 133.931C160.289 134.562 160.081 135.235 160.025 135.883C159.972 136.533 160.075 137.151 160.251 137.692C160.613 138.78 161.214 139.573 161.706 140.186C162.209 140.799 162.645 141.232 162.941 141.523C163.08 141.655 163.192 141.762 163.284 141.849C163.365 141.919 163.408 141.953 163.411 141.95Z" fill="#455A64"/>
<path d="M173.183 126.174C173.41 126.424 174.849 125.399 176.864 125.445C178.876 125.461 180.335 126.53 180.557 126.286C180.666 126.179 180.439 125.733 179.805 125.25C179.18 124.77 178.109 124.293 176.853 124.273C175.598 124.255 174.534 124.698 173.918 125.159C173.289 125.625 173.07 126.063 173.183 126.174Z" fill="#263238"/>
<path d="M193.758 126.506C193.986 126.755 195.427 125.732 197.439 125.776C199.452 125.793 200.91 126.861 201.134 126.617C201.243 126.51 201.017 126.064 200.38 125.581C199.756 125.1 198.684 124.624 197.429 124.605C196.174 124.587 195.109 125.029 194.493 125.49C193.866 125.956 193.647 126.394 193.758 126.506Z" fill="#263238"/>
<path d="M186.153 138.683C186.165 138.569 184.916 138.328 182.893 138.028C182.38 137.965 181.895 137.852 181.816 137.499C181.702 137.125 181.928 136.573 182.19 135.979C182.698 134.741 183.23 133.444 183.788 132.085C186.011 126.54 187.63 121.977 187.407 121.89C187.184 121.802 185.201 126.225 182.978 131.77C182.442 133.138 181.931 134.442 181.443 135.689C181.237 136.271 180.889 136.928 181.136 137.706C181.266 138.094 181.639 138.381 181.966 138.476C182.294 138.583 182.584 138.595 182.837 138.615C184.876 138.764 186.143 138.797 186.153 138.683Z" fill="#263238"/>
<path d="M186.908 143.563C187.652 142.618 188.931 142.115 190.188 142.276C191.06 142.388 191.936 142.828 192.452 143.551C192.97 144.274 193.06 145.289 192.565 145.96C192.006 146.716 190.867 146.87 189.911 146.577C188.955 146.283 188.14 145.633 187.366 144.986C187.152 144.806 186.933 144.62 186.802 144.378C186.672 144.135 186.649 143.821 186.821 143.627" fill="#811870"/>
<path d="M192.053 140.196C191.726 140.17 191.678 142.36 189.777 143.879C187.878 145.402 185.552 145.11 185.529 145.415C185.496 145.552 186.04 145.851 187.023 145.897C187.988 145.95 189.403 145.667 190.566 144.738C191.727 143.807 192.242 142.545 192.335 141.647C192.436 140.734 192.203 140.186 192.053 140.196Z" fill="#263238"/>
<path d="M226.542 117.293C226.548 117.328 225.955 117.476 224.861 117.645C223.769 117.816 222.169 117.971 220.188 117.968C216.243 117.982 210.676 117.146 205.213 114.45C199.747 111.757 195.689 107.847 193.295 104.707C192.083 103.134 191.23 101.771 190.7 100.8C190.168 99.8282 189.922 99.2673 189.953 99.2512C189.995 99.2282 190.309 99.7524 190.9 100.68C191.488 101.609 192.387 102.924 193.625 104.443C196.077 107.48 200.109 111.269 205.477 113.915C210.842 116.562 216.297 117.453 220.196 117.547C222.153 117.603 223.741 117.515 224.835 117.416C225.928 117.316 226.534 117.246 226.542 117.293Z" fill="#455A64"/>
<path d="M222.523 149.964C222.478 149.925 223.171 149.195 224.161 147.691C225.118 146.185 226.376 143.835 226.898 140.666C227.431 137.525 226.93 133.551 224.815 129.878C223.759 128.058 222.334 126.322 220.546 124.893C218.757 123.463 216.591 122.426 214.287 121.605C211.98 120.775 209.653 120.133 207.458 119.313C205.259 118.5 203.224 117.455 201.432 116.255C197.832 113.854 195.194 110.902 193.367 108.216C191.537 105.513 190.534 103.045 189.957 101.328C189.664 100.467 189.49 99.7833 189.39 99.3155C189.282 98.85 189.235 98.604 189.256 98.5994C189.325 98.581 189.535 99.5649 190.177 101.251C190.816 102.931 191.867 105.342 193.716 107.975C195.561 110.594 198.187 113.464 201.737 115.794C203.507 116.96 205.495 117.969 207.663 118.761C209.829 119.563 212.154 120.199 214.49 121.039C216.822 121.87 219.061 122.941 220.912 124.432C222.758 125.918 224.22 127.719 225.295 129.602C227.45 133.399 227.92 137.518 227.317 140.733C226.726 143.974 225.383 146.333 224.355 147.818C223.824 148.558 223.372 149.101 223.046 149.451C222.718 149.803 222.539 149.978 222.523 149.964Z" fill="#455A64"/>
<path d="M182.735 161.368C182.743 161.403 182.472 161.507 181.959 161.613C181.447 161.721 180.689 161.8 179.75 161.768C177.878 161.717 175.279 161.06 172.844 159.525C170.383 157.985 168.81 155.772 168.039 154.077C167.645 153.224 167.416 152.499 167.302 151.988C167.186 151.479 167.163 151.189 167.199 151.181C167.3 151.154 167.557 152.279 168.415 153.887C169.26 155.484 170.814 157.552 173.161 159.018C175.506 160.495 177.977 161.191 179.777 161.346C181.59 161.519 182.717 161.262 182.735 161.368Z" fill="#455A64"/>
<path d="M196.986 222.71C193.95 218.155 191.982 199.357 188.043 200.411C183.022 201.754 190.075 221.716 190.566 223.539C191.043 225.311 188.424 226.068 188.071 224.4C187.56 222.004 181.939 198.554 177.037 200.348C174.32 201.342 176.069 206.318 176.069 206.318C176.069 206.318 184.029 229.125 181.685 229.894C179.305 230.676 174.762 217.343 173.252 212.628C171.804 208.107 169.381 206.822 167.707 208.937C165.921 211.194 170.241 224.697 171.621 229.248C173 233.798 177.007 246.222 170.029 241.574C163.049 236.928 155.974 235.92 153.897 236.958C151.82 237.998 152.594 241.268 155.151 241.696C157.219 242.042 160.506 243.671 162.929 244.995C164.926 246.086 166.571 247.662 168.27 249.17C169.481 250.247 171.641 252.482 173.582 255.991C175.83 260.053 179.746 262.928 184.271 263.937L186.369 272.52L210.231 263.628L206.258 247.388C203.113 235.008 202.98 226.13 202.258 218.447C201.106 206.197 199.505 206.252 198.125 206.706C195.081 207.708 199.949 227.155 196.986 222.71Z" fill="#FFBE9D"/>
<path d="M201.341 238.518C201.383 238.626 200.015 238.993 198.214 240.285C196.428 241.548 194.266 243.903 193.272 247.127C192.999 247.991 192.857 248.862 192.77 249.695L192.727 250.108L192.359 249.94C189.864 248.8 187.477 248.341 185.774 248.176C184.066 248.007 183.026 248.068 183.022 247.982C183.015 247.924 184.051 247.731 185.802 247.799C187.544 247.864 190.014 248.259 192.6 249.407L192.19 249.652C192.271 248.774 192.416 247.856 192.701 246.95C193.22 245.272 194.073 243.806 195.013 242.623C195.968 241.445 197.024 240.561 197.975 239.935C198.924 239.297 199.794 238.965 200.382 238.739C200.99 238.555 201.33 238.479 201.341 238.518Z" fill="#EB996E"/>
<path d="M202.688 256.676C202.782 256.792 200.506 258.616 197.209 259.977C193.919 261.358 191.023 261.685 191.008 261.537C190.973 261.359 193.764 260.776 196.981 259.426C200.205 258.095 202.587 256.525 202.688 256.676Z" fill="#EB996E"/>
<path d="M209.637 376.575C204.383 376.067 199.409 373.965 195.378 370.551L156.887 337.943L157.228 375.527L164.853 376.075L162.71 404.005H43.5314L43.4832 403.343C36.1501 397.091 31.6453 387.657 30.0424 377.377C27.144 358.783 26.0643 328.463 23.4746 307.038C21.6525 291.961 24.9697 272.43 38.3589 265.307L48.7189 261.221L81.2861 248.373L123.118 250.301L151.053 258.153C158.799 261.102 165.479 270.396 170.24 277.25L193.52 309.696C193.261 304.401 183.631 272.42 182.998 270.984L211.492 259.231C211.492 259.231 240.853 324.599 236.898 352.836C233.608 376.321 209.637 376.575 209.637 376.575Z" fill="#263238"/>
<path d="M154.111 324.15C154.121 323.984 156.715 324.323 160.794 323.733C164.832 323.174 170.412 321.424 175.041 317.648C179.663 313.861 182.083 309.072 183.038 305.55C184.03 301.993 183.858 299.674 184.046 299.679C184.103 299.677 184.197 300.248 184.214 301.291C184.235 302.332 184.12 303.849 183.698 305.684C182.892 309.326 180.493 314.338 175.69 318.272C170.88 322.195 165.052 323.91 160.891 324.327C158.794 324.551 157.08 324.531 155.911 324.428C154.739 324.329 154.104 324.201 154.111 324.15Z" fill="white"/>
<path d="M157.196 376.072C157.474 376.076 157.802 360.255 157.929 340.739C158.055 321.217 157.932 305.392 157.654 305.389C157.376 305.385 157.047 321.203 156.921 340.725C156.794 360.241 156.917 376.068 157.196 376.072Z" fill="#455A64"/>
<path d="M56.9469 387.715C56.8505 387.687 57.1534 386.155 58.2492 383.897C59.3324 381.645 61.3357 378.732 64.2525 376.226C67.1795 373.731 70.3659 372.205 72.7571 371.486C75.1553 370.756 76.7123 370.695 76.7249 370.795C76.7536 370.955 75.2528 371.253 72.9797 372.126C70.7079 372.988 67.697 374.55 64.8744 376.955C62.0632 379.371 60.0518 382.104 58.847 384.218C57.6296 386.33 57.1006 387.769 56.9469 387.715Z" fill="#455A64"/>
<path d="M71.0109 335.487C71.0189 335.473 71.1727 335.541 71.4641 335.688C71.8014 335.865 72.2225 336.086 72.7435 336.361C73.8909 336.902 75.565 337.751 77.8449 338.527C82.3393 340.091 89.3845 341.68 97.8857 340.242C106.278 338.868 116.039 333.912 122.797 324.737C126.142 320.206 128.732 314.626 129.32 308.509C129.616 305.47 129.367 302.306 128.367 299.327C127.386 296.355 125.59 293.597 123.21 291.436C120.846 289.271 117.905 287.744 114.818 287.35C111.776 286.867 108.517 287.674 106.405 289.717C105.386 290.743 104.752 292.117 104.764 293.531C104.76 294.942 105.303 296.335 106.146 297.466C107.838 299.784 110.693 300.863 113.419 301.267C118.99 302.033 124.464 301.024 129.048 299.026C133.654 297.016 137.417 294.026 140.126 290.728C142.84 287.416 144.513 283.834 145.513 280.587C146.518 277.326 146.824 274.368 146.874 271.969C146.909 269.561 146.659 267.699 146.472 266.444C146.365 265.864 146.279 265.397 146.21 265.022C146.154 264.7 146.133 264.532 146.15 264.529C146.15 264.529 147.162 267.082 147.245 271.972C147.253 274.4 146.999 277.408 146.024 280.741C145.056 284.06 143.397 287.736 140.65 291.157C137.908 294.563 134.076 297.661 129.366 299.755C124.671 301.836 119.069 302.911 113.287 302.141C110.448 301.731 107.332 300.61 105.41 298.014C104.468 296.755 103.837 295.187 103.836 293.53C103.814 291.867 104.572 290.227 105.74 289.056C108.136 286.732 111.679 285.905 114.944 286.406C118.251 286.827 121.365 288.45 123.853 290.727C126.355 293.002 128.235 295.891 129.269 299.025C130.315 302.154 130.565 305.449 130.253 308.598C129.628 314.93 126.944 320.642 123.505 325.263C116.553 334.616 106.557 339.595 97.9958 340.911C89.3305 342.287 82.2154 340.563 77.7175 338.878C73.1715 337.14 71.0109 335.487 71.0109 335.487Z" fill="white"/>
<path d="M24.1731 317.169C24.1295 317.129 24.5288 316.594 25.3481 315.703C26.1719 314.82 27.449 313.607 29.2126 312.337C32.6824 309.723 38.431 307.344 45.0298 306.722C48.3286 306.37 51.5299 306.528 54.3525 307.115C57.1775 307.701 59.6089 308.655 61.5365 309.643C63.4699 310.627 64.9317 311.596 65.9047 312.307C66.8743 313.026 67.3746 313.468 67.339 313.518C67.2392 313.668 65.1016 312.05 61.2439 310.254C57.4288 308.425 51.5884 306.9 45.1308 307.676C38.6628 308.291 33.0886 310.486 29.5947 312.897C26.0561 315.256 24.3051 317.305 24.1731 317.169Z" fill="white"/>
<path d="M35.6095 268.064C35.7575 267.903 37.4454 270.246 41.3971 272.279C43.3511 273.294 45.8743 274.145 48.7635 274.443C51.6424 274.748 54.8953 274.419 57.9876 273.168C61.0592 271.865 63.5927 269.795 65.416 267.541C67.2507 265.284 68.436 262.896 69.1015 260.794C70.4635 256.56 70.0045 253.706 70.2225 253.716C70.273 253.71 70.4164 254.399 70.4612 255.668C70.5117 256.936 70.3625 258.793 69.7486 260.993C69.1428 263.192 67.9793 265.71 66.1033 268.095C64.2411 270.476 61.5985 272.68 58.3536 274.056C55.0892 275.379 51.6653 275.69 48.6683 275.324C45.6586 274.964 43.0597 274.006 41.0804 272.88C39.0942 271.758 37.6772 270.549 36.8189 269.617C35.9549 268.683 35.5694 268.095 35.6095 268.064Z" fill="white"/>
<path d="M96.4686 367.601C96.4353 367.596 96.4869 367.132 96.6177 366.244C96.8197 365.377 97.1019 364.065 97.8856 362.537C99.3279 359.451 102.92 355.586 108.589 353.23C114.179 350.715 121.864 350.229 129.612 352.475C133.39 353.602 137.73 354.991 140.567 358.691C141.955 360.51 142.431 363.218 141.372 365.427C140.36 367.647 138.369 369.176 136.276 370.244C134.143 371.288 131.829 371.879 129.506 371.924C127.204 371.968 124.803 371.396 123.006 369.904C121.192 368.436 120.238 366.167 120.096 364.003C119.929 361.82 120.37 359.712 121.069 357.797C124.117 350.135 130.28 345.263 135.808 342.853C141.427 340.39 146.515 340.131 149.872 340.432C153.258 340.781 155.011 341.516 155.011 341.516C154.982 341.641 153.191 341.034 149.844 340.804C146.526 340.621 141.545 340.984 136.085 343.47C133.375 344.71 130.579 346.491 128.06 348.925C125.554 351.35 123.3 354.454 121.898 358.098C121.24 359.927 120.841 361.928 121.006 363.928C121.151 365.917 122.005 367.891 123.6 369.179C125.176 370.482 127.34 371.016 129.49 370.971C131.652 370.928 133.849 370.367 135.849 369.387C137.817 368.388 139.639 366.95 140.504 365.035C141.406 363.133 141.029 360.875 139.805 359.239C138.595 357.568 136.827 356.362 135.022 355.435C133.205 354.515 131.257 353.891 129.371 353.325C121.785 351.083 114.334 351.486 108.847 353.857C103.28 356.082 99.7261 359.751 98.2149 362.71C96.6499 365.682 96.604 367.638 96.4686 367.601Z" fill="white"/>
<path d="M27.1394 353.467C27.1302 353.436 27.4274 353.315 28.0022 353.121C28.5794 352.93 29.4354 352.667 30.5552 352.382C32.787 351.841 36.1156 351.099 40.2945 351.391C42.3736 351.555 44.6513 352.029 46.9163 353.031C49.1675 354.031 51.4222 355.603 53.094 357.888C54.7325 360.171 55.7388 363.14 55.4944 366.239C55.3796 367.782 54.908 369.334 54.0761 370.718C53.2385 372.082 51.9833 373.319 50.3287 373.857C48.6994 374.37 46.7855 374.109 45.4981 372.9C44.2279 371.666 43.91 369.938 43.832 368.436C43.7173 365.381 44.3759 362.455 45.5164 359.915C47.7906 354.779 52.0223 351.407 55.9453 350.003C59.897 348.538 63.4001 348.646 65.6697 349.037C66.8148 349.236 67.6822 349.491 68.2559 349.695C68.8274 349.911 69.1199 350.038 69.1085 350.069C69.0798 350.164 67.8819 349.688 65.6169 349.407C63.3771 349.135 59.9704 349.142 56.1897 350.635C52.4365 352.072 48.4572 355.344 46.3219 360.275C45.2525 362.708 44.6478 365.509 44.7683 368.389C44.8406 369.797 45.1699 371.274 46.1532 372.208C47.1216 373.128 48.6971 373.371 50.0407 372.943C51.4004 372.504 52.5134 371.442 53.2661 370.218C54.0142 368.977 54.4514 367.573 54.5615 366.159C54.8013 363.322 53.8857 360.537 52.378 358.401C50.8427 356.261 48.7292 354.738 46.5893 353.753C44.4367 352.765 42.2474 352.266 40.236 352.065C36.1833 351.695 32.8765 352.316 30.6378 352.744C28.3912 353.207 27.16 353.539 27.1394 353.467Z" fill="white"/>
<path d="M204.41 358.957C204.396 358.972 204.23 358.831 203.927 358.55C203.616 358.275 203.192 357.835 202.662 357.253C201.612 356.082 200.228 354.245 198.911 351.747C197.595 349.252 196.393 346.084 195.569 342.444C194.743 338.803 194.316 334.712 194.163 330.427C193.987 326.142 194.132 322.047 194.024 318.363C193.878 314.673 193.435 311.364 193.003 308.6C192.561 305.836 192.115 303.613 191.804 302.077C191.661 301.363 191.543 300.778 191.447 300.307C191.37 299.901 191.339 299.685 191.359 299.68C191.38 299.676 191.45 299.882 191.564 300.278C191.681 300.675 191.837 301.263 192.03 302.025C192.412 303.548 192.922 305.763 193.419 308.53C193.905 311.297 194.395 314.617 194.573 318.34C194.711 322.07 194.582 326.134 194.759 330.405C194.91 334.669 195.318 338.722 196.105 342.325C196.888 345.928 198.033 349.067 199.285 351.554C200.537 354.045 201.85 355.896 202.837 357.103C203.827 358.31 204.451 358.914 204.41 358.957Z" fill="#455A64"/>
<path d="M198.649 351.968C198.731 352.14 195.214 353.638 191.585 356.555C187.929 359.443 185.68 362.536 185.531 362.417C185.472 362.374 185.956 361.546 186.922 360.337C187.886 359.128 189.363 357.564 191.212 356.086C193.064 354.614 194.919 353.525 196.311 352.858C197.707 352.186 198.621 351.9 198.649 351.968Z" fill="white"/>
<path d="M232.378 317.176C232.389 317.217 231.831 317.423 230.812 317.765C229.794 318.107 228.322 318.605 226.534 319.296C222.957 320.656 218.083 322.807 213.224 326.057C208.327 329.265 204.554 333.019 201.589 335.496C200.102 336.727 198.731 337.578 197.663 337.862C197.138 338.019 196.709 338.062 196.424 338.062C196.136 338.06 195.988 338.048 195.988 338.027C195.983 337.963 196.595 337.995 197.589 337.64C198.592 337.301 199.88 336.431 201.317 335.172C204.177 332.645 207.945 328.8 212.894 325.557C217.805 322.273 222.755 320.163 226.388 318.898C228.206 318.254 229.703 317.817 230.744 317.541C231.787 317.268 232.368 317.136 232.378 317.176Z" fill="white"/>
<path d="M220.759 281.891C220.763 281.932 220.323 282.012 219.528 282.122C218.606 282.26 217.485 282.427 216.167 282.624C213.333 283.062 209.43 283.757 205.151 284.669C200.877 285.603 197.037 286.588 194.319 287.488C191.59 288.359 190.004 289.155 189.958 289.068C189.939 289.031 190.322 288.805 191.036 288.422C191.757 288.059 192.827 287.584 194.182 287.087C196.886 286.077 200.732 285.019 205.025 284.083C209.321 283.166 213.25 282.535 216.109 282.203C217.539 282.033 218.7 281.934 219.504 281.888C220.311 281.851 220.756 281.849 220.759 281.891Z" fill="white"/>
<path d="M142.143 137.847C134.887 135.891 127.619 142.585 120.2 141.389C115.694 140.662 112.194 137.194 108.137 135.101C102.071 131.971 93.6324 131.719 87.6555 135.018C81.6786 138.317 77.8714 141.754 77.2713 148.564C71.6295 145.569 62.6303 152.863 59.7136 159.703C56.7957 166.543 57.8215 173.48 59.8501 180.636C63.344 192.957 69.2819 204.578 77.2151 214.622C77.9185 215.511 79.0246 216.484 80.032 215.968C80.7297 215.61 80.9316 214.722 81.0292 213.942C81.8645 207.307 80.8008 200.599 80.0057 193.959C79.2105 187.317 78.6987 180.461 80.5828 174.045C82.4669 167.628 87.2275 161.672 93.7299 160.155C98.533 159.034 103.609 160.44 107.989 162.711C112.369 164.982 116.255 168.088 120.441 170.701C124.626 173.314 129.3 175.477 134.231 175.524C139.163 175.571 144.367 173.067 146.314 168.527C148.261 163.988 145.693 157.72 140.836 156.859C145.249 156.302 148.988 152.336 149.294 147.891C149.6 143.445 146.438 139.005 142.143 137.847Z" fill="#263238"/>
<path d="M70.2697 182.316L79.9298 256.689C81.5729 269.337 93.4464 278.034 105.975 275.766C117.667 273.65 125.641 262.699 124.095 250.897C123.362 245.3 122.763 240.63 122.725 240.05C122.725 240.05 141.394 235.805 140.324 216.888C139.807 207.747 137.212 189.005 134.669 172.076C131.938 153.895 115.705 140.876 97.397 142.142L95.576 142.267C76.0263 144.774 67.2279 162.808 70.2697 182.316Z" fill="#FFBE9D"/>
<path d="M122.738 239.775C122.738 239.775 110.88 241.572 97.6576 234.473C97.6576 234.473 104.409 247.673 123.119 244.67L122.738 239.775Z" fill="#EB996E"/>
<path d="M127.628 185.657C127.777 187.079 126.697 188.378 125.217 188.559C123.74 188.741 122.421 187.74 122.272 186.318C122.124 184.896 123.202 183.596 124.679 183.413C126.159 183.231 127.479 184.235 127.628 185.657Z" fill="#263238"/>
<path d="M131.255 181.633C130.945 182.007 128.8 180.635 125.9 180.844C123.002 181.011 120.976 182.652 120.638 182.318C120.473 182.171 120.769 181.512 121.649 180.772C122.514 180.036 124.025 179.274 125.832 179.157C127.639 179.042 129.205 179.603 130.124 180.225C131.062 180.848 131.409 181.464 131.255 181.633Z" fill="#263238"/>
<path d="M99.7285 187.545C99.8765 188.967 98.7979 190.266 97.3178 190.448C95.841 190.63 94.5215 189.628 94.3723 188.206C94.2243 186.784 95.3029 185.484 96.7808 185.302C98.2598 185.12 99.5793 186.123 99.7285 187.545Z" fill="#263238"/>
<path d="M102.792 184.146C102.481 184.52 100.333 183.149 97.437 183.357C94.5387 183.524 92.5135 185.164 92.175 184.831C92.0098 184.683 92.3035 184.026 93.187 183.286C94.0521 182.549 95.5622 181.788 97.3693 181.67C99.1765 181.555 100.742 182.116 101.662 182.737C102.597 183.362 102.945 183.977 102.792 184.146Z" fill="#263238"/>
<path d="M114.799 204.958C114.773 204.794 116.554 204.357 119.449 203.781C120.185 203.654 120.875 203.458 120.965 202.943C121.103 202.395 120.738 201.617 120.319 200.779C119.498 199.033 118.641 197.202 117.741 195.282C114.146 187.451 111.489 180.992 111.805 180.85C112.122 180.707 115.292 186.94 118.886 194.771C119.754 196.703 120.585 198.545 121.374 200.308C121.713 201.131 122.26 202.054 121.96 203.192C121.798 203.76 121.283 204.2 120.817 204.361C120.352 204.539 119.936 204.576 119.572 204.623C116.644 204.984 114.822 205.123 114.799 204.958Z" fill="#263238"/>
<path d="M106.404 207.557C106.873 207.498 107.097 210.65 109.945 212.701C112.788 214.76 116.119 214.175 116.174 214.613C116.232 214.807 115.469 215.277 114.056 215.414C112.671 215.558 110.612 215.251 108.869 213.997C107.13 212.738 106.298 210.955 106.101 209.67C105.89 208.36 106.187 207.554 106.404 207.557Z" fill="#263238"/>
<path d="M102.756 172.71C102.525 173.519 99.6045 173.346 96.2311 173.992C92.8439 174.57 90.1704 175.757 89.6701 175.08C89.4452 174.755 89.8721 173.979 90.9288 173.138C91.9753 172.299 93.6792 171.452 95.7056 171.083C97.7319 170.718 99.624 170.914 100.898 171.333C102.182 171.75 102.853 172.327 102.756 172.71Z" fill="#263238"/>
<path d="M129.609 173.3C129.145 173.995 127.1 173.448 124.696 173.582C122.288 173.631 120.291 174.332 119.776 173.673C119.548 173.353 119.822 172.67 120.668 171.984C121.501 171.301 122.93 170.691 124.584 170.626C126.237 170.565 127.709 171.063 128.592 171.681C129.487 172.302 129.813 172.963 129.609 173.3Z" fill="#263238"/>
<path d="M72.7756 196.205C72.444 196.088 59.547 193.26 60.8493 206.154C62.1516 219.047 74.8054 215.078 74.7904 214.706C74.7744 214.333 72.7756 196.205 72.7756 196.205Z" fill="#FFBE9D"/>
<path d="M70.3649 210.219C70.304 210.183 70.156 210.399 69.7946 210.612C69.4423 210.819 68.8181 211.001 68.1217 210.817C66.7115 210.455 65.3483 208.409 65.0512 206.091C64.8997 204.921 65.0328 203.779 65.3541 202.812C65.6524 201.829 66.194 201.108 66.8664 200.916C67.5307 200.69 68.0574 201.051 68.2513 201.398C68.4601 201.741 68.4039 202.006 68.4751 202.022C68.5141 202.051 68.7298 201.779 68.5726 201.256C68.4934 201.005 68.3121 200.716 67.9851 200.499C67.6512 200.278 67.1842 200.197 66.7126 200.297C65.727 200.466 64.9261 201.472 64.5727 202.534C64.1654 203.605 63.9887 204.892 64.1585 206.206C64.5038 208.796 66.077 211.093 67.992 211.442C68.9214 211.587 69.6489 211.237 70.008 210.893C70.3729 210.533 70.4119 210.238 70.3649 210.219Z" fill="#EB996E"/>
<path d="M138.393 167.874C130.235 170.665 120.753 169.204 113.81 164.086C108.951 160.504 105.024 155.145 99.1502 153.769C95.1962 152.843 90.9531 153.979 87.5406 156.186C84.1294 158.393 81.4639 161.589 79.2207 164.98C83.5281 174.333 81.8185 185.225 80.0228 195.367C79.8243 196.488 79.5776 197.698 78.7262 198.452C77.2816 199.733 74.934 198.973 73.5066 197.671C71.2232 195.585 70.1802 192.489 69.4263 189.486C67.711 182.648 67.042 175.486 68.1068 168.518C69.1716 161.549 72.0356 154.776 76.7756 149.566C82.6997 143.054 91.3719 139.289 100.154 138.817C108.937 138.346 117.764 141.051 125.131 145.863C128.549 148.096 131.746 150.859 133.683 154.457" fill="#263238"/>
<path d="M147.874 142.027C147.874 142.027 147.977 142.419 147.835 143.155C147.698 143.881 147.265 144.964 146.216 145.944C145.178 146.934 143.503 147.662 141.507 147.888C140.511 148.003 139.435 148.046 138.293 147.911C137.162 147.766 135.94 147.42 134.9 146.612C133.89 145.823 133.031 144.565 133.037 143.075C133.032 141.561 134.152 140.208 135.549 139.588C136.251 139.266 137.04 139.092 137.849 139.131C138.656 139.171 139.473 139.478 140.133 139.975C141.492 140.963 142.248 142.649 142.365 144.36C142.497 146.097 141.828 147.888 140.658 149.242C139.491 150.611 137.905 151.614 136.167 152.221C132.658 153.455 128.676 153.046 125.062 151.782C121.408 150.535 118.169 148.584 115.127 146.687C112.078 144.795 109.126 142.982 106.093 141.751C103.078 140.501 99.9603 139.931 97.0815 140.204C94.2003 140.473 91.6186 141.469 89.5005 142.722C85.2344 145.282 82.8592 148.736 81.4789 151.106C80.7835 152.311 80.3292 153.296 80.0297 153.965C79.7291 154.635 79.581 154.993 79.5569 154.983C79.5466 154.98 79.5719 154.886 79.6292 154.705C79.6889 154.526 79.7738 154.257 79.9103 153.914C80.1731 153.226 80.5931 152.218 81.2609 150.983C82.5884 148.556 84.9315 145.005 89.2664 142.332C91.4178 141.025 94.0557 139.975 97.0287 139.673C100.003 139.367 103.23 139.94 106.312 141.201C109.413 142.443 112.401 144.266 115.454 146.15C118.499 148.039 121.694 149.953 125.268 151.173C128.802 152.407 132.622 152.789 135.959 151.625C137.607 151.053 139.105 150.107 140.19 148.842C141.281 147.58 141.884 145.977 141.773 144.393C141.675 142.829 140.987 141.299 139.795 140.427C138.632 139.5 137.022 139.488 135.767 140.071C134.503 140.625 133.535 141.803 133.53 143.081C133.507 144.362 134.257 145.519 135.179 146.254C136.115 147.001 137.263 147.352 138.344 147.505C139.435 147.65 140.493 147.626 141.465 147.53C143.411 147.343 145.029 146.675 146.046 145.758C147.078 144.845 147.533 143.821 147.707 143.126C147.888 142.421 147.835 142.024 147.874 142.027Z" fill="#455A64"/>
<path d="M58.1816 170.992C58.2241 170.854 59.6778 171.628 62.1918 171.745C63.4391 171.785 64.9376 171.589 66.4832 170.996C68.0311 170.425 69.6374 169.485 71.1589 168.33C74.1973 165.962 75.7738 162.652 76.3751 160.234C76.997 157.78 76.8306 156.171 76.9568 156.172C76.9958 156.168 77.067 156.563 77.1014 157.286C77.1278 158.007 77.0807 159.064 76.8168 160.337C76.312 162.856 74.74 166.351 71.5536 168.835C69.9702 170.035 68.3202 170.981 66.684 171.551C65.0581 172.14 63.4666 172.3 62.1677 172.197C60.8643 172.088 59.8465 171.778 59.1787 171.506C58.5098 171.23 58.1667 171.026 58.1816 170.992Z" fill="#455A64"/>
<path d="M59.39 180.305C59.3991 180.186 60.9275 180.417 63.352 180.111C65.7558 179.823 69.0879 178.84 72.0403 176.58C74.9914 174.317 76.8101 171.351 77.7177 169.103C78.6459 166.84 78.8226 165.302 78.9397 165.324C78.9787 165.328 78.9741 165.716 78.8766 166.405C78.7813 167.096 78.561 168.087 78.1399 169.267C77.3207 171.615 75.4986 174.737 72.4292 177.091C69.3587 179.441 65.8752 180.386 63.399 180.563C62.1518 180.661 61.1398 180.615 60.449 180.526C59.7583 180.44 59.3842 180.344 59.39 180.305Z" fill="#455A64"/>
<path d="M94.0086 197.161C93.8377 197.208 93.6587 197.093 93.607 196.907C93.5565 196.719 93.6529 196.529 93.8239 196.483C93.9949 196.436 94.1739 196.551 94.2255 196.738C94.2771 196.925 94.1796 197.115 94.0086 197.161Z" fill="#EB996E"/>
<path d="M99.4624 195.518C99.2915 195.565 99.1056 195.429 99.0471 195.215C98.9886 195 99.0792 194.788 99.2502 194.742C99.4211 194.695 99.607 194.832 99.6655 195.047C99.7241 195.261 99.6323 195.472 99.4624 195.518Z" fill="#EB996E"/>
<path d="M103.186 195.168C103.012 195.203 102.827 194.999 102.77 194.715C102.714 194.431 102.81 194.173 102.984 194.138C103.157 194.104 103.343 194.307 103.399 194.591C103.455 194.875 103.359 195.134 103.186 195.168Z" fill="#EB996E"/>
<path d="M96.9724 200.455C96.7957 200.468 96.6466 200.385 96.6385 200.272C96.6305 200.159 96.767 200.057 96.9437 200.045C97.1204 200.033 97.2696 200.116 97.2776 200.228C97.2857 200.341 97.1491 200.443 96.9724 200.455Z" fill="#EB996E"/>
<path d="M101.972 198.923C101.797 198.95 101.63 198.811 101.599 198.612C101.568 198.413 101.684 198.229 101.859 198.202C102.034 198.174 102.201 198.313 102.232 198.512C102.263 198.712 102.146 198.896 101.972 198.923Z" fill="#EB996E"/>
<path d="M128.194 193.933C128.023 193.979 127.841 193.861 127.79 193.667C127.737 193.474 127.833 193.28 128.003 193.233C128.174 193.186 128.356 193.305 128.407 193.498C128.46 193.692 128.365 193.886 128.194 193.933Z" fill="#EB996E"/>
<path d="M131.945 193.326C131.77 193.356 131.599 193.201 131.561 192.98C131.525 192.759 131.636 192.557 131.81 192.528C131.985 192.498 132.157 192.653 132.194 192.874C132.231 193.094 132.119 193.296 131.945 193.326Z" fill="#EB996E"/>
<path d="M124.866 194.257C124.695 194.303 124.524 194.219 124.483 194.07C124.442 193.919 124.547 193.76 124.718 193.713C124.889 193.667 125.06 193.75 125.102 193.901C125.142 194.051 125.037 194.211 124.866 194.257Z" fill="#EB996E"/>
<path d="M127.925 197.846C127.769 197.928 127.565 197.848 127.47 197.666C127.374 197.485 127.424 197.271 127.581 197.188C127.737 197.105 127.941 197.186 128.038 197.367C128.132 197.549 128.082 197.763 127.925 197.846Z" fill="#EB996E"/>
<path d="M131.106 196.978C130.933 196.943 130.815 196.796 130.844 196.65C130.873 196.504 131.038 196.413 131.211 196.448C131.385 196.482 131.502 196.629 131.473 196.775C131.443 196.922 131.279 197.012 131.106 196.978Z" fill="#EB996E"/>
<path d="M65.4402 214.088C65.5653 214.114 64.9572 215.235 65.2899 217.046C65.4632 217.926 65.9417 218.947 66.8837 219.653C67.7959 220.361 69.1693 220.764 70.4235 220.33C71.6776 219.902 72.5795 218.765 72.7596 217.647C72.9432 216.509 72.4728 215.449 72.0195 214.671C71.0947 213.045 69.9289 212.616 69.9771 212.537C69.9645 212.439 71.3081 212.754 72.4016 214.429C72.9237 215.222 73.5181 216.352 73.3425 217.737C73.1543 219.091 72.1216 220.423 70.63 220.938C69.1108 221.456 67.5343 220.948 66.5177 220.118C65.4597 219.282 64.9675 218.088 64.8413 217.122C64.7093 216.138 64.87 215.339 65.0478 214.831C65.2291 214.317 65.4058 214.071 65.4402 214.088Z" fill="#263238"/>
<path d="M65.3266 211.896C65.3645 211.834 65.8154 212.029 66.1057 212.724C66.2411 213.062 66.3088 213.543 66.1355 214.034C65.9703 214.513 65.5813 214.996 64.9916 215.204C64.3949 215.405 63.7764 215.254 63.3622 214.926C62.9296 214.597 62.7701 214.075 62.7977 213.701C62.8551 212.897 63.3817 212.651 63.4047 212.729C63.4747 212.794 63.1775 213.117 63.2509 213.687C63.2865 213.965 63.4242 214.263 63.7145 214.45C63.9956 214.642 64.419 214.723 64.7839 214.597C65.1545 214.469 65.4448 214.152 65.5859 213.821C65.7328 213.492 65.7316 213.142 65.6743 212.855C65.5492 212.275 65.2566 211.966 65.3266 211.896Z" fill="#263238"/>
<path d="M164.543 379.666L162.351 403.973L173.809 403.929C174.113 403.93 178.79 403.852 183.948 403.765C187.741 404.25 193.755 404.269 195.579 404.075C195.903 404.041 196.094 404 196.12 403.953C196.12 403.953 196.985 403.848 197.886 403.526C197.911 403.526 197.937 403.525 197.937 403.525L197.933 403.508C198.97 403.129 200.036 402.46 199.871 401.318C199.369 397.832 197.302 397.552 197.302 397.552C197.302 397.552 196.91 397.524 196.264 397.48L196.181 397.177C197.755 397.18 199.077 397.137 199.778 397.063C200.101 397.03 200.293 396.989 200.317 396.943C200.317 396.943 204.379 396.46 204.069 394.307C203.566 390.822 201.499 390.541 201.499 390.541C201.499 390.541 200.096 390.441 198.155 390.316C199.779 390.321 201.155 390.279 201.873 390.203C202.196 390.169 202.388 390.129 202.412 390.082C202.412 390.082 206.474 389.599 206.163 387.446C205.661 383.961 203.593 383.68 203.593 383.68C203.593 383.68 202.46 383.6 200.826 383.493C202.141 383.485 203.228 383.445 203.841 383.38C204.164 383.346 204.356 383.306 204.38 383.258C204.38 383.258 208.442 382.776 208.131 380.623C207.628 377.138 205.561 376.858 205.561 376.858C205.561 376.858 199.168 376.402 194.781 376.22C194.778 376.216 189.802 371.723 187.841 371.931C184.912 372.241 167.871 378.542 167.871 378.542L164.543 379.666Z" fill="#FFBE9D"/>
<path d="M186.042 396.838C186.058 397.039 188.602 397.284 191.721 397.385C194.842 397.487 197.357 397.405 197.341 397.204C197.325 397.002 194.782 396.757 191.661 396.656C188.542 396.555 186.026 396.637 186.042 396.838Z" fill="#EB996E"/>
<path d="M186.004 389.946C185.997 390.148 189.613 390.442 194.078 390.601C198.546 390.76 202.172 390.724 202.179 390.521C202.186 390.317 198.572 390.024 194.104 389.865C189.639 389.706 186.012 389.742 186.004 389.946Z" fill="#EB996E"/>
<g opacity="0.78">
<path d="M186.584 382.943C186.577 383.147 190.192 383.44 194.658 383.599C199.125 383.758 202.752 383.722 202.759 383.518C202.766 383.315 199.151 383.022 194.683 382.863C190.217 382.705 186.59 382.741 186.584 382.943Z" fill="#EB996E"/>
</g>
<path d="M196.61 376.361C196.608 376.445 195.624 376.506 194.035 376.564C192.213 376.624 190.129 376.692 187.828 376.767C185.528 376.85 183.444 376.924 181.622 376.99C180.033 377.041 179.046 377.047 179.039 376.964C179.032 376.883 180.008 376.727 181.593 376.567C183.179 376.407 185.376 376.252 187.807 376.168C190.237 376.085 192.439 376.09 194.031 376.14C195.627 376.191 196.611 376.28 196.61 376.361Z" fill="#EB996E"/>
<path d="M164.85 376.075C164.849 376.086 164.712 376.085 164.451 376.073C164.158 376.058 163.774 376.04 163.287 376.015C162.227 375.952 160.728 375.865 158.812 375.754C154.891 375.512 149.279 375.167 142.36 374.742C128.467 373.894 109.276 372.682 88.0707 371.606C84.1798 371.429 80.3555 371.256 76.7113 371.089L76.4382 371.077L76.4267 370.793C76.2488 366.181 75.8243 361.666 75.4892 357.347C75.1198 353.027 74.7664 348.878 74.4302 344.942C73.7348 337.083 73.1141 330.069 72.5943 324.197C72.0826 318.366 71.6706 313.674 71.3826 310.399C71.253 308.808 71.1509 307.563 71.0797 306.678C71.0522 306.278 71.0315 305.96 71.0143 305.713C71.0029 305.495 71.0017 305.384 71.0109 305.383C71.0201 305.382 71.0396 305.492 71.0694 305.707C71.1004 305.953 71.1394 306.269 71.1887 306.667C71.2851 307.55 71.4205 308.791 71.5949 310.377C71.9242 313.647 72.397 318.334 72.9856 324.159C73.5421 330.027 74.2064 337.038 74.9523 344.894C75.3022 348.83 75.6705 352.978 76.0549 357.299C76.4014 361.63 76.834 366.107 77.0187 370.791L76.7353 370.496C80.3818 370.659 84.2085 370.832 88.1017 371.006C109.315 372.082 128.502 373.36 142.389 374.317C149.304 374.821 154.911 375.232 158.831 375.518C160.741 375.678 162.24 375.803 163.298 375.892C163.783 375.941 164.166 375.98 164.459 376.009C164.721 376.044 164.852 376.065 164.85 376.075Z" fill="#455A64"/>
<path d="M84.6835 403.967C84.6457 403.983 84.4449 403.542 84.1133 402.726C83.9388 402.32 83.7461 401.816 83.5831 401.212C83.4133 400.611 83.1758 399.934 83.0439 399.154C82.8775 398.383 82.7065 397.534 82.6227 396.608C82.4816 395.688 82.4667 394.694 82.4231 393.65C82.422 391.561 82.6205 389.26 83.1356 386.9C83.6818 384.546 84.4896 382.383 85.3869 380.495C85.8734 379.57 86.3129 378.679 86.8361 377.909C87.31 377.109 87.8274 376.416 88.3082 375.791C88.7614 375.145 89.2663 374.635 89.6782 374.165C90.0844 373.689 90.4745 373.317 90.805 373.026C91.4544 372.432 91.8239 372.12 91.8526 372.15C91.9421 372.241 90.4745 373.527 88.6478 376.043C88.1958 376.676 87.7058 377.37 87.2595 378.168C86.7638 378.935 86.3496 379.819 85.8849 380.733C85.0323 382.598 84.2567 384.723 83.7208 387.031C83.216 389.345 83.006 391.598 82.9761 393.647C83.0048 394.673 83.0003 395.65 83.1184 396.555C83.1804 397.468 83.3238 398.306 83.4615 399.072C84.0295 402.13 84.8028 403.923 84.6835 403.967Z" fill="white"/>
<path d="M235.85 404.11C235.85 404.275 188.066 404.409 129.136 404.409C70.1848 404.409 22.4109 404.274 22.4109 404.11C22.4109 403.945 70.1848 403.811 129.136 403.811C188.066 403.811 235.85 403.945 235.85 404.11Z" fill="#263238"/>
<path d="M210.468 28.0966L46.6548 28C26.9421 27.9885 10.9552 43.9924 10.9506 63.74L10.8702 475.15C10.8668 494.886 26.8308 510.892 46.5332 510.902L210.345 511C230.058 511.011 246.045 495.009 246.05 475.26L246.13 63.8492C246.135 44.1142 230.171 28.1081 210.468 28.0966ZM235.192 469.255C235.188 483.085 223.992 494.294 210.187 494.285L46.7018 494.189C32.9041 494.181 21.7237 482.972 21.726 469.148L21.804 67.5826C21.8063 53.7524 33.0039 42.5441 46.8085 42.5521L74.607 42.5682L85.7771 42.5751C90.0364 42.5774 93.4889 46.1959 93.4889 50.6558L93.4878 56.4272C93.4866 60.8871 96.9392 64.5067 101.198 64.5079L163.106 64.5446C167.364 64.5469 170.819 60.9331 170.819 56.472L170.821 50.7006C170.821 46.2407 174.275 42.6268 178.534 42.6291L210.295 42.6475C224.093 42.6556 235.273 53.8651 235.271 67.6873L235.192 469.255Z" fill="#263238"/>
<path d="M176.173 404.118H91.1722V442.022H176.173V404.118Z" fill="#263238"/>
<path d="M235.205 404.118H162.09C162.09 420.263 148.379 433.398 131.526 433.398C114.673 433.398 100.963 420.263 100.962 404.118H21.765V469.804C21.7616 483.629 32.9432 494.837 46.7409 494.845L210.226 494.941C224.031 494.949 235.227 483.742 235.231 469.911L235.205 404.118Z" fill="#811870"/>
<path d="M105.234 444.345H110.239C113.843 444.345 116.314 446.522 116.314 449.865C116.314 453.208 113.843 455.383 110.239 455.383H105.234V444.345ZM110.114 453.287C112.302 453.287 113.734 451.978 113.734 449.865C113.734 447.751 112.302 446.442 110.114 446.442H107.784V453.286H110.114V453.287Z" fill="white"/>
<path d="M125.549 450.543V455.383H123.25V454.327C122.795 455.099 121.913 455.509 120.67 455.509C118.686 455.509 117.505 454.405 117.505 452.94C117.505 451.441 118.56 450.4 121.142 450.4H123.093C123.093 449.344 122.463 448.729 121.142 448.729C120.244 448.729 119.316 449.029 118.702 449.518L117.82 447.798C118.749 447.136 120.118 446.773 121.472 446.773C124.054 446.774 125.549 447.973 125.549 450.543ZM123.093 452.703V451.835H121.409C120.259 451.835 119.898 452.261 119.898 452.828C119.898 453.443 120.418 453.853 121.283 453.853C122.102 453.853 122.81 453.475 123.093 452.703Z" fill="white"/>
<path d="M136.419 450.527V455.383H133.964V450.905C133.964 449.534 133.334 448.903 132.249 448.903C131.068 448.903 130.218 449.628 130.218 451.189V455.382H127.761V446.899H130.106V447.892C130.767 447.167 131.759 446.771 132.908 446.771C134.909 446.774 136.419 447.94 136.419 450.527Z" fill="white"/>
<path d="M138.334 444.345C138.334 443.573 138.948 442.974 139.862 442.974C140.775 442.974 141.389 443.542 141.389 444.298C141.389 445.118 140.775 445.716 139.862 445.716C138.948 445.716 138.334 445.118 138.334 444.345ZM138.634 446.9H141.091V455.383H138.634V446.9Z" fill="white"/>
<path d="M151.617 451.835H145.211C145.447 452.892 146.344 453.538 147.634 453.538C148.532 453.538 149.178 453.271 149.759 452.718L151.066 454.136C150.28 455.035 149.099 455.507 147.572 455.507C144.644 455.507 142.741 453.662 142.741 451.139C142.741 448.601 144.675 446.771 147.257 446.771C149.743 446.771 151.664 448.443 151.664 451.17C151.664 451.362 151.633 451.63 151.617 451.835ZM145.18 450.4H149.351C149.179 449.328 148.375 448.635 147.273 448.635C146.155 448.635 145.352 449.313 145.18 450.4Z" fill="white"/>
<path d="M153.297 443.683H155.754V455.383H153.297V443.683Z" fill="white"/>
<path d="M121.007 463.311V469.782H120.537V463.737H118.959V463.311H121.007Z" fill="white"/>
<path d="M122.643 466.547C122.643 464.522 123.684 463.266 125.17 463.266C126.656 463.266 127.698 464.524 127.698 466.547C127.698 468.571 126.656 469.828 125.17 469.828C123.686 469.827 122.643 468.571 122.643 466.547ZM127.228 466.547C127.228 464.744 126.389 463.699 125.17 463.699C123.952 463.699 123.113 464.743 123.113 466.547C123.113 468.349 123.952 469.394 125.17 469.394C126.389 469.393 127.228 468.349 127.228 466.547Z" fill="white"/>
<path d="M128.747 465.309C128.747 465.087 128.921 464.921 129.134 464.921C129.347 464.921 129.521 465.087 129.521 465.309C129.521 465.53 129.347 465.707 129.134 465.707C128.921 465.706 128.747 465.53 128.747 465.309ZM128.747 469.422C128.747 469.2 128.921 469.033 129.134 469.033C129.347 469.033 129.521 469.2 129.521 469.422C129.521 469.643 129.347 469.82 129.134 469.82C128.921 469.818 128.747 469.643 128.747 469.422Z" fill="white"/>
<path d="M130.565 466.547C130.565 464.522 131.607 463.266 133.093 463.266C134.579 463.266 135.621 464.524 135.621 466.547C135.621 468.571 134.579 469.828 133.093 469.828C131.607 469.827 130.565 468.571 130.565 466.547ZM135.151 466.547C135.151 464.744 134.312 463.699 133.093 463.699C131.875 463.699 131.036 464.743 131.036 466.547C131.036 468.349 131.875 469.394 133.093 469.394C134.311 469.393 135.151 468.349 135.151 466.547Z" fill="white"/>
<path d="M142.029 467.989H140.672V469.783H140.212V467.989H136.53V467.647L140.036 463.312H140.562L137.121 467.573H140.221V465.993H140.672V467.573H142.029V467.989Z" fill="white"/>
<path d="M63.2935 459.67H48.6731C45.8539 459.67 43.5682 457.38 43.5682 454.556V439.909C43.5682 437.085 45.8539 434.795 48.6731 434.795H63.2935C66.1127 434.795 68.3984 437.085 68.3984 439.909V454.556C68.3984 457.38 66.1127 459.67 63.2935 459.67Z" fill="#FAFAFA"/>
<path d="M210.893 457.967H197.112C194.139 457.967 191.722 455.544 191.722 452.566V438.762C191.722 435.784 194.139 433.361 197.112 433.361H210.893C213.866 433.361 216.283 435.784 216.283 438.762V452.566C216.283 455.543 213.864 457.967 210.893 457.967ZM197.112 433.936C194.457 433.936 192.295 436.101 192.295 438.762V452.566C192.295 455.227 194.457 457.393 197.112 457.393H210.893C213.548 457.393 215.709 455.227 215.709 452.566V438.762C215.709 436.101 213.548 433.936 210.893 433.936H197.112Z" fill="white"/>
<path d="M60.5155 443.178H51.4532C50.7969 443.178 50.2656 443.712 50.2656 444.368V450.361C50.2656 451.019 50.798 451.551 51.4532 451.551H52.2243V454.195L55.2821 451.551H60.5155C61.1718 451.551 61.7031 451.018 61.7031 450.361V444.368C61.7031 443.712 61.1707 443.178 60.5155 443.178ZM53.1089 448.468C52.619 448.468 52.2231 448.07 52.2231 447.581C52.2231 447.091 52.6201 446.693 53.1089 446.693C53.5977 446.693 53.9947 447.091 53.9947 447.581C53.9947 448.07 53.5989 448.468 53.1089 448.468ZM55.8662 448.468C55.3774 448.468 54.9804 448.07 54.9804 447.581C54.9804 447.091 55.3774 446.693 55.8662 446.693C56.355 446.693 56.752 447.091 56.752 447.581C56.752 448.07 56.355 448.468 55.8662 448.468ZM58.8162 448.468C58.3274 448.468 57.9304 448.07 57.9304 447.581C57.9304 447.091 58.3274 446.693 58.8162 446.693C59.305 446.693 59.702 447.091 59.702 447.581C59.702 448.07 59.3061 448.468 58.8162 448.468Z" fill="#811870"/>
<path d="M200.855 448.833C200.712 448.833 200.588 448.725 200.571 448.579C199.888 442.854 204.156 441.027 204.2 441.008C204.34 440.949 204.512 441.019 204.573 441.165C204.634 441.312 204.564 441.479 204.418 441.541C204.257 441.607 200.511 443.234 201.14 448.511C201.159 448.668 201.047 448.811 200.888 448.829C200.878 448.832 200.867 448.833 200.855 448.833Z" fill="white"/>
<path d="M200.855 448.833C200.771 448.833 200.691 448.796 200.637 448.731L198.829 446.604C198.726 446.483 198.741 446.302 198.861 446.198C198.98 446.097 199.163 446.11 199.266 446.23L200.843 448.084L202.23 446.243C202.325 446.115 202.505 446.092 202.631 446.187C202.758 446.282 202.784 446.461 202.688 446.589L201.085 448.717C201.033 448.786 200.952 448.829 200.866 448.831C200.861 448.833 200.859 448.833 200.855 448.833Z" fill="white"/>
<path d="M203.695 450.34C203.582 450.34 203.477 450.273 203.431 450.163C203.37 450.016 203.44 449.85 203.586 449.788C203.747 449.721 207.493 448.094 206.864 442.817C206.845 442.66 206.957 442.517 207.115 442.499C207.266 442.484 207.416 442.593 207.433 442.751C208.116 448.474 203.848 450.303 203.804 450.321C203.768 450.334 203.732 450.34 203.695 450.34Z" fill="white"/>
<path d="M205.546 445.198C205.485 445.198 205.425 445.178 205.374 445.139C205.247 445.044 205.221 444.865 205.318 444.737L206.919 442.609C206.971 442.539 207.052 442.497 207.138 442.494C207.142 442.494 207.145 442.494 207.148 442.494C207.231 442.494 207.312 442.531 207.366 442.596L209.173 444.722C209.276 444.843 209.261 445.024 209.141 445.128C209.023 445.23 208.841 445.216 208.737 445.096L207.161 443.242L205.774 445.083C205.719 445.158 205.632 445.198 205.546 445.198Z" fill="white"/>
<path d="M55.8076 103.844C65.1357 103.844 72.6976 96.2691 72.6976 86.9245C72.6976 77.5799 65.1357 70.0045 55.8076 70.0045C46.4795 70.0045 38.9176 77.5799 38.9176 86.9245C38.9176 96.2691 46.4795 103.844 55.8076 103.844Z" fill="#EBEBEB"/>
<path d="M54.9035 91.8578C54.8278 91.8578 54.7521 91.828 54.6958 91.7682L50.2897 87.1221C50.1842 87.0106 50.1842 86.837 50.2897 86.7255L54.6958 82.0794C54.8048 81.9656 54.9873 81.961 55.102 82.0691C55.2168 82.1783 55.2213 82.361 55.1123 82.476L50.8944 86.9244L55.1123 91.3716C55.2213 91.4866 55.2168 91.6682 55.102 91.7785C55.0458 91.8314 54.9747 91.8578 54.9035 91.8578Z" fill="#263238"/>
<path d="M62.5556 87.2132H50.4974C50.3391 87.2132 50.2106 87.0844 50.2106 86.9257C50.2106 86.767 50.3391 86.6382 50.4974 86.6382H62.5556C62.714 86.6382 62.8425 86.767 62.8425 86.9257C62.8425 87.0844 62.714 87.2132 62.5556 87.2132Z" fill="#263238"/>
<path d="M222.24 385.187C223.589 376.89 217.969 369.068 209.686 367.716C201.404 366.364 193.596 371.995 192.246 380.292C190.897 388.589 196.517 396.411 204.8 397.762C213.082 399.114 220.89 393.484 222.24 385.187Z" fill="#811870"/>
<path d="M207.252 386.185C205.742 386.185 204.512 384.955 204.512 383.441V377.462C204.512 375.949 205.741 374.717 207.252 374.717C208.763 374.717 209.991 375.948 209.991 377.462V383.441C209.99 384.954 208.762 386.185 207.252 386.185ZM207.252 375.292C206.058 375.292 205.086 376.265 205.086 377.462V383.441C205.086 384.637 206.058 385.61 207.252 385.61C208.445 385.61 209.417 384.637 209.417 383.441V377.462C209.416 376.265 208.445 375.292 207.252 375.292Z" fill="white"/>
<path d="M207.252 388.109C205.614 388.109 204.319 387.597 203.406 386.586C201.661 384.654 201.943 381.621 201.954 381.492C201.97 381.334 202.115 381.214 202.269 381.233C202.427 381.249 202.542 381.391 202.527 381.547C202.524 381.576 202.261 384.461 203.835 386.201C204.634 387.086 205.784 387.533 207.252 387.533C208.705 387.533 209.869 387.085 210.717 386.202C212.395 384.453 212.297 381.56 212.296 381.531C212.289 381.372 212.413 381.239 212.571 381.232C212.74 381.252 212.863 381.351 212.87 381.508C212.874 381.636 212.976 384.676 211.13 386.601C210.171 387.601 208.866 388.109 207.252 388.109Z" fill="white"/>
<path d="M207.252 392.316C207.093 392.316 206.965 392.188 206.965 392.029V387.822C206.965 387.663 207.093 387.535 207.252 387.535C207.41 387.535 207.539 387.663 207.539 387.822V392.029C207.539 392.187 207.409 392.316 207.252 392.316Z" fill="white"/>
<path d="M131.526 429.555C146.276 429.555 158.233 417.577 158.233 402.801C158.233 388.024 146.276 376.046 131.526 376.046C116.776 376.046 104.819 388.024 104.819 402.801C104.819 417.577 116.776 429.555 131.526 429.555Z" fill="#811870"/>
<path d="M129.146 395.4C126.902 393.66 123.472 394.294 122.239 396.804C121.703 397.895 121.687 399.111 122.88 400.285C125.334 402.7 130.486 407.539 132.727 409.638C133.941 410.775 135.629 411.378 137.302 411.124C138.413 410.956 139.597 410.415 140.545 409.113C143.072 405.64 137.016 402.928 137.016 402.928L134.369 405.714L128.195 399.747L130.901 396.757L129.146 395.4Z" fill="white"/>
</g>
</svg>
