<svg width="23" height="26" viewBox="0 0 23 26" fill="none" xmlns="http://www.w3.org/2000/svg">
<path fill-rule="evenodd" clip-rule="evenodd" d="M20.125 5.41667V20.5833C20.125 21.775 19.2625 22.75 18.2083 22.75H4.79167C3.7375 22.75 2.875 21.775 2.875 20.5833V5.41667C2.875 4.225 3.7375 3.25 4.79167 3.25H18.2083C19.2625 3.25 20.125 4.225 20.125 5.41667ZM10.5417 17.8858L8.52917 15.145C8.32792 14.8742 7.96375 14.885 7.78167 15.1667L5.39542 18.6333C5.14625 18.9908 5.36667 19.5108 5.76917 19.5108H17.2596C17.6525 19.5108 17.8825 19.0017 17.6429 18.6442L14.2792 13.5742C14.0875 13.2817 13.7042 13.2817 13.5125 13.5633L10.5417 17.8858Z" fill="#6D7D8B"/>
</svg>
