<svg width="600" height="592" viewBox="0 0 600 592" fill="none" xmlns="http://www.w3.org/2000/svg">
<mask id="mask0_181_4200" style="mask-type:alpha" maskUnits="userSpaceOnUse" x="0" y="0" width="600" height="592">
<rect width="600" height="592" fill="white"/>
</mask>
<g mask="url(#mask0_181_4200)">
<path d="M148.285 32.7246C148.292 48.7945 135.251 61.8273 119.155 61.8352C103.058 61.8431 90.0039 48.8222 89.9973 32.7523C89.9894 16.6825 103.032 3.64966 119.128 3.64307C135.223 3.63516 148.279 16.6561 148.285 32.7246Z" fill="#F5F5F5"/>
<path d="M141.351 32.7282C141.356 44.9738 131.417 54.905 119.151 54.9116C106.885 54.9182 96.937 44.9949 96.9304 32.7493C96.9252 20.5037 106.864 10.5712 119.129 10.5659C131.397 10.5606 141.346 20.4826 141.351 32.7282Z" fill="#EBEBEB"/>
<path d="M141.345 32.0314C141.211 32.0367 141.116 31.0608 140.757 29.3584C140.391 27.6665 139.718 25.2202 138.192 22.5485C137.43 21.218 136.461 19.8386 135.249 18.5106C134.027 17.1959 132.578 15.9207 130.876 14.8433C130.029 14.3013 129.126 13.7962 128.165 13.369C127.207 12.9364 126.203 12.5474 125.15 12.256C124.1 11.9619 123.011 11.7206 121.89 11.5874C120.77 11.4516 119.626 11.3962 118.466 11.4252C117.308 11.47 116.168 11.5993 115.06 11.805C113.949 12.0094 112.879 12.3193 111.848 12.6793C110.815 13.0367 109.837 13.489 108.909 13.9822C107.977 14.4714 107.109 15.0332 106.299 15.6266C104.67 16.8108 103.303 18.1757 102.168 19.5656C101.043 20.9661 100.165 22.4061 99.4893 23.7829C98.1385 26.5456 97.6232 29.03 97.3649 30.7417C97.1158 32.4626 97.0842 33.4424 96.9485 33.4451C96.8483 33.4503 96.6559 32.4745 96.7047 30.681C96.7653 28.9008 97.1119 26.2673 98.3941 23.2817C99.0359 21.7955 99.9044 20.2316 101.054 18.6992C102.212 17.1801 103.634 15.6807 105.356 14.3738C106.214 13.7184 107.135 13.0986 108.13 12.5567C109.121 12.0107 110.169 11.5109 111.28 11.114C112.388 10.7144 113.541 10.3715 114.739 10.1447C115.936 9.91527 117.165 9.77417 118.415 9.72669C119.664 9.69504 120.9 9.75834 122.109 9.90999C123.317 10.0603 124.491 10.3293 125.622 10.6577C126.755 10.9834 127.832 11.416 128.856 11.8973C129.883 12.3733 130.843 12.9338 131.741 13.5338C133.541 14.7286 135.056 16.133 136.311 17.577C137.554 19.0315 138.522 20.5375 139.258 21.9802C140.727 24.8774 141.241 27.4832 141.416 29.2568C141.576 31.0437 141.445 32.0288 141.345 32.0314Z" fill="#E0E0E0"/>
<path d="M121.659 45.993L121.717 49.8648L118.263 49.9149L118.207 46.1486C114.784 45.9917 111.487 44.9697 109.566 43.5125L111.401 39.2676C113.147 40.5217 115.647 41.4171 118.139 41.6215L118.052 35.8495C114.204 34.9752 109.903 33.7593 109.83 28.8168C109.776 25.1534 112.388 21.9687 117.836 21.2658L117.78 17.4284L121.234 17.377L121.29 21.1445C123.884 21.3133 126.414 21.9661 128.333 23.1476L126.67 27.4255C124.893 26.4497 123.088 25.8892 121.359 25.7059L121.447 31.5821C125.294 32.4222 129.527 33.6393 129.599 38.512C129.651 42.1068 127.072 45.2559 121.659 45.993ZM117.979 30.7685L117.905 25.8616C116.081 26.3033 115.371 27.3174 115.388 28.4568C115.406 29.666 116.451 30.3083 117.979 30.7685ZM124.043 39.0091C124.025 37.7985 123.014 37.1576 121.521 36.6605L121.592 41.4303C123.313 41.0254 124.06 40.1155 124.043 39.0091Z" fill="#E0E0E0"/>
<path d="M73.0115 175.233C74.4347 185.035 67.6294 194.137 57.8128 195.565C47.9949 196.993 38.8821 190.205 37.4588 180.403C36.0355 170.602 42.8396 161.499 52.6575 160.071C62.4754 158.644 71.5882 165.431 73.0115 175.233Z" fill="#F5F5F5"/>
<path d="M68.7813 175.848C69.8659 183.317 64.6802 190.254 57.1988 191.342C49.7174 192.43 42.7737 187.256 41.6878 179.787C40.6032 172.318 45.7889 165.38 53.2703 164.292C60.753 163.207 67.6967 168.379 68.7813 175.848Z" fill="#EBEBEB"/>
<path d="M68.7167 175.424C68.635 175.438 68.4914 174.852 68.1224 173.845C67.7494 172.846 67.1221 171.412 65.9558 169.918C65.3733 169.175 64.6617 168.418 63.8051 167.716C62.9432 167.022 61.947 166.372 60.8136 165.866C60.2483 165.61 59.6539 165.382 59.0306 165.207C58.4086 165.027 57.7615 164.878 57.092 164.794C56.4252 164.707 55.7399 164.657 55.0441 164.674C54.3496 164.691 53.6459 164.757 52.9409 164.877C52.2384 165.006 51.5545 165.185 50.8956 165.41C50.2366 165.632 49.6107 165.916 49.0137 166.227C48.4154 166.537 47.8593 166.898 47.3361 167.282C46.8103 167.662 46.3306 168.083 45.8891 168.517C44.9995 169.383 44.2879 170.336 43.7173 171.284C43.1546 172.238 42.746 173.194 42.4548 174.093C41.8749 175.899 41.7801 177.459 41.7735 178.526C41.7735 179.598 41.8407 180.198 41.7577 180.211C41.697 180.223 41.4928 179.645 41.3649 178.547C41.245 177.455 41.2239 175.818 41.7418 173.884C42.0015 172.921 42.3942 171.89 42.9595 170.853C43.5328 169.823 44.2668 168.783 45.2025 167.833C45.6677 167.357 46.1751 166.898 46.7338 166.48C47.29 166.06 47.8856 165.663 48.5274 165.321C49.1679 164.98 49.8413 164.669 50.5516 164.425C51.2606 164.179 51.9986 163.984 52.7563 163.844C53.5154 163.714 54.2758 163.644 55.0257 163.629C55.7768 163.615 56.5161 163.674 57.2344 163.774C57.9539 163.873 58.6497 164.041 59.3166 164.245C59.9847 164.446 60.6199 164.703 61.2208 164.988C62.4253 165.557 63.473 166.28 64.3652 167.05C65.2521 167.827 65.9756 168.66 66.5515 169.475C67.7033 171.113 68.2475 172.656 68.5111 173.723C68.7707 174.801 68.7773 175.415 68.7167 175.424Z" fill="#E0E0E0"/>
<path d="M57.942 185.68L58.3189 188.037L56.217 188.373L55.8506 186.081C53.7487 186.288 51.648 185.956 50.3473 185.237L51.0919 182.485C52.2674 183.095 53.8712 183.42 55.4091 183.325L54.8464 179.812C52.4216 179.618 49.691 179.258 49.21 176.249C48.8529 174.019 50.1655 171.846 53.4258 170.936L53.0515 168.6L55.1535 168.264L55.5198 170.557C57.1171 170.431 58.7182 170.605 59.9926 171.156L59.3561 173.912C58.1858 173.474 57.0354 173.291 55.964 173.333L56.5359 176.909C58.9568 177.082 61.6465 177.45 62.1209 180.416C62.4728 182.604 61.1787 184.752 57.942 185.68ZM54.3522 176.72L53.8739 173.733C52.7998 174.164 52.4572 174.844 52.5679 175.539C52.6852 176.274 53.3797 176.573 54.3522 176.72ZM58.7802 181.21C58.6616 180.473 57.9882 180.172 57.034 180L57.4992 182.904C58.5127 182.503 58.8869 181.882 58.7802 181.21Z" fill="#E0E0E0"/>
<path d="M532.707 348.687L526.536 380.454L573.636 389.603L579.807 357.836L532.707 348.687Z" fill="#EBEBEB"/>
<path d="M579.839 358.265C579.846 358.278 579.667 358.394 579.319 358.603C578.931 358.828 578.421 359.126 577.785 359.497C576.401 360.281 574.469 361.376 572.097 362.721C567.235 365.428 560.58 369.134 553.208 373.239L553.053 373.326L552.937 373.19C552.849 373.086 552.752 372.974 552.658 372.862C547.144 366.341 542.154 360.441 538.507 356.126C536.734 353.999 535.29 352.264 534.257 351.023C533.783 350.44 533.405 349.974 533.118 349.621C532.861 349.298 532.732 349.122 532.744 349.113C532.756 349.104 532.907 349.26 533.185 349.564C533.488 349.904 533.888 350.353 534.386 350.913C535.445 352.133 536.925 353.837 538.741 355.927C542.414 360.219 547.438 366.092 552.99 372.58C553.086 372.692 553.181 372.805 553.269 372.908L552.998 372.858C560.393 368.798 567.071 365.132 571.949 362.453C574.349 361.16 576.304 360.105 577.703 359.35C578.357 359.009 578.88 358.735 579.277 358.526C579.639 358.343 579.831 358.252 579.839 358.265Z" fill="#E0E0E0"/>
<path d="M526.575 380.878C526.5 380.785 530.887 377.119 536.372 372.69C541.859 368.261 546.368 364.748 546.444 364.841C546.519 364.935 542.133 368.6 536.646 373.029C531.161 377.458 526.651 380.972 526.575 380.878Z" fill="#E0E0E0"/>
<path d="M562.177 367.487C562.283 367.431 564.944 372.435 568.119 378.659C571.293 384.886 573.78 389.976 573.673 390.032C573.567 390.086 570.906 385.085 567.731 378.858C564.557 372.634 562.07 367.542 562.177 367.487Z" fill="#E0E0E0"/>
<path d="M432.252 22.412C432.187 22.4107 432.105 21.6669 432.008 20.2625C431.977 19.5583 431.913 18.6919 431.719 17.6805C431.562 16.6664 431.417 15.4914 431.042 14.2109C430.474 11.6157 429.3 8.54574 427.441 5.28589C425.569 2.03922 422.857 -1.36174 419.148 -4.27346C415.45 -7.15748 410.773 -9.6393 405.347 -10.7127C399.955 -11.7506 393.851 -11.7123 388 -9.63007C385.056 -8.67928 382.205 -7.20759 379.575 -5.32975C378.216 -4.44225 377.022 -3.31739 375.772 -2.24001C374.638 -1.03866 373.448 0.132361 372.462 1.50118C368.29 6.79186 365.85 13.6558 365.608 20.786C365.5 27.9229 367.606 34.8989 371.516 40.3874C372.433 41.8037 373.566 43.0314 374.64 44.2868C375.836 45.4235 376.975 46.6051 378.289 47.5585C380.825 49.5643 383.602 51.1731 386.497 52.265C392.242 54.6295 398.338 54.9644 403.773 54.189C409.246 53.3793 414.038 51.127 417.871 48.4262C421.717 45.6978 424.59 42.4327 426.618 39.281C428.63 36.1147 429.953 33.1068 430.645 30.5419C431.083 29.2825 431.284 28.1154 431.49 27.1106C431.731 26.1097 431.838 25.2472 431.902 24.547C432.07 23.1492 432.187 22.4094 432.252 22.412C432.315 22.4133 432.323 23.1558 432.277 24.58C432.271 25.2934 432.223 26.1743 432.035 27.2016C431.884 28.2341 431.734 29.4328 431.342 30.7357C430.741 33.385 429.488 36.517 427.497 39.8348C425.49 43.1382 422.589 46.5853 418.642 49.4918C414.708 52.3705 409.739 54.7956 404.019 55.7121C398.341 56.5943 391.941 56.3016 385.874 53.862C382.819 52.7332 379.883 51.0584 377.199 48.9616C375.811 47.9621 374.601 46.7277 373.336 45.5304C372.195 44.2156 371 42.9206 370.023 41.4318C365.879 35.6558 363.629 28.2763 363.75 20.7425C363.998 13.214 366.602 5.95447 371.022 0.389506C372.068 -1.04921 373.326 -2.28352 374.529 -3.54157C375.849 -4.67567 377.117 -5.84932 378.552 -6.78033C381.336 -8.74521 384.349 -10.2736 387.454 -11.2534C393.632 -13.395 400.037 -13.3778 405.665 -12.22C411.333 -11.0266 416.179 -8.3641 419.969 -5.2981C423.771 -2.2044 426.502 1.37986 428.347 4.77687C430.176 8.18838 431.275 11.377 431.747 14.0527C432.075 15.3727 432.167 16.578 432.269 17.6172C432.406 18.6524 432.411 19.5346 432.382 20.248C432.36 21.6709 432.316 22.4133 432.252 22.412Z" fill="#EBEBEB"/>
<path d="M425.491 1.28571C425.565 1.38988 424.956 1.92001 423.779 2.79695C423.133 3.26114 422.413 3.77939 421.605 4.35831C421.174 4.6537 420.723 4.98733 420.221 5.30251C419.69 5.58075 419.134 5.87087 418.557 6.17286C414.035 8.78786 406.87 11.4569 398.689 11.18C397.674 11.1352 396.671 11.0903 395.682 11.0455C394.705 10.8925 393.743 10.7422 392.795 10.5932C392.324 10.5141 391.853 10.4508 391.393 10.3571C390.94 10.2358 390.491 10.1171 390.045 9.99844C389.16 9.75184 388.282 9.54349 387.448 9.27579C384.132 8.12191 381.267 6.77682 379.019 5.38954C374.491 2.64925 372.286 0.156887 372.457 -0.0039955C372.64 -0.213671 375.102 1.87253 379.663 4.24358C381.93 5.44756 384.75 6.61858 387.96 7.64058C388.768 7.87531 389.614 8.05334 390.467 8.27224C390.895 8.37774 391.326 8.48588 391.762 8.59401C392.206 8.66126 392.654 8.72852 393.106 8.79709C394.012 8.93028 394.932 9.06611 395.865 9.20326C396.808 9.2415 397.764 9.27974 398.731 9.3193C406.509 9.587 413.399 7.2542 417.969 4.99656C418.553 4.74205 419.114 4.49941 419.652 4.26468C420.164 3.99698 420.63 3.70818 421.078 3.46158C421.934 2.98948 422.7 2.5675 423.384 2.19034C424.666 1.51121 425.417 1.18153 425.491 1.28571Z" fill="#EBEBEB"/>
<path d="M371.428 42.3998C371.353 42.2956 371.963 41.7655 373.14 40.8886C373.786 40.4257 374.506 39.9061 375.314 39.3272C375.745 39.0318 376.196 38.6982 376.698 38.383C377.229 38.1048 377.784 37.8147 378.362 37.5127C382.884 34.8977 390.049 32.2286 398.23 32.5068C399.245 32.5517 400.248 32.5965 401.237 32.6414C402.214 32.7943 403.176 32.9447 404.124 33.0937C404.595 33.1728 405.066 33.2361 405.526 33.3297C405.979 33.451 406.428 33.5697 406.873 33.6884C407.758 33.935 408.636 34.1434 409.47 34.4111C412.786 35.5649 415.649 36.91 417.899 38.2973C422.427 41.0376 424.632 43.53 424.46 43.6908C424.277 43.9005 421.817 41.8143 417.254 39.4446C414.988 38.2406 412.168 37.0683 408.957 36.0476C408.15 35.8129 407.303 35.6348 406.451 35.4159C406.024 35.3091 405.592 35.2023 405.155 35.0942C404.711 35.0269 404.263 34.9596 403.811 34.8911C402.906 34.7579 401.986 34.6221 401.053 34.4849C400.109 34.4467 399.154 34.4084 398.187 34.3689C390.409 34.1012 383.519 36.4326 378.949 38.6916C378.365 38.9448 377.804 39.1888 377.266 39.4222C376.753 39.6899 376.288 39.9787 375.84 40.2253C374.983 40.6974 374.218 41.1194 373.534 41.4965C372.253 42.1743 371.502 42.504 371.428 42.3998Z" fill="#EBEBEB"/>
<path d="M432.233 23.1966C432.222 23.7095 417.083 23.7583 398.427 23.3047C379.764 22.8511 364.649 22.0678 364.662 21.5535C364.674 21.0405 379.81 20.9917 398.473 21.4453C417.128 21.9003 432.245 22.6836 432.233 23.1966Z" fill="#EBEBEB"/>
<path d="M396.889 55.3675C396.376 55.3543 396.327 40.2129 396.781 21.5491C397.234 2.88013 398.017 -12.2389 398.53 -12.227C399.042 -12.2139 399.091 2.92497 398.638 21.594C398.184 40.2564 397.402 55.3794 396.889 55.3675Z" fill="#EBEBEB"/>
<path d="M396.89 55.3163C396.762 55.5128 393.039 52.9875 388.743 47.2682C386.619 44.4119 384.389 40.7367 382.703 36.2952C381.026 31.8617 379.975 26.6423 380.089 21.1446C380.186 15.6297 381.571 10.4683 383.501 6.14553C385.429 1.80565 387.85 -1.73773 390.1 -4.48989C394.651 -9.99287 398.404 -12.4312 398.531 -12.236C398.713 -12.025 395.314 -9.25703 391.136 -3.6802C389.07 -0.89244 386.84 2.61797 385.073 6.82598C383.304 11.0195 382.042 15.9383 381.948 21.1788C381.84 26.4247 382.788 31.4134 384.314 35.7058C385.846 40.0061 387.883 43.6299 389.817 46.5073C393.726 52.2714 397.078 55.1119 396.89 55.3163Z" fill="#EBEBEB"/>
<path d="M399.286 -12.2177C399.414 -12.4141 403.137 -9.88881 407.433 -4.16955C409.557 -1.31322 411.787 2.36203 413.472 6.80346C415.15 11.237 416.2 16.4564 416.087 21.9541C415.99 27.469 414.604 32.6304 412.676 36.9532C410.748 41.2931 408.328 44.8365 406.077 47.5886C401.526 53.0916 397.773 55.5312 397.647 55.3347C397.465 55.1237 400.863 52.3558 405.041 46.7789C407.107 43.9912 409.337 40.4807 411.104 36.2727C412.873 32.0792 414.135 27.1604 414.229 21.9199C414.337 16.6753 413.389 11.6853 411.863 7.39292C410.331 3.0926 408.295 -0.531222 406.36 -3.40865C402.45 -9.17275 399.097 -12.0133 399.286 -12.2177Z" fill="#EBEBEB"/>
<path d="M71.235 402.073L72.9113 398.361C75.8475 391.603 72.744 383.716 65.9927 380.778C59.2401 377.839 51.3581 380.946 48.4298 387.683L46.7232 391.464C43.2059 390.516 39.4329 392.252 37.9359 395.695L28.3605 417.726C26.7145 421.513 28.4474 425.918 32.2323 427.565L55.0876 437.512C58.8724 439.159 63.274 437.425 64.92 433.637L74.4954 411.607C76.0491 408.033 74.5876 403.91 71.235 402.073ZM52.1488 421.559L46.1711 418.958L48.982 415.044C48.2269 413.95 48.0332 412.505 48.6011 411.196C49.4762 409.182 51.818 408.259 53.8317 409.134C55.844 410.01 56.7665 412.353 55.8914 414.367C55.3432 415.629 54.2191 416.463 52.9619 416.693C52.6575 418.553 52.1488 421.559 52.1488 421.559ZM68.6112 400.894L49.3984 392.532L51.0602 388.851C53.3638 383.55 59.5484 381.114 64.8462 383.42C70.1439 385.725 72.5792 391.913 70.2822 397.195L68.6112 400.894Z" fill="#EBEBEB"/>
<path d="M538.695 161.665C538.702 166.857 534.502 171.072 529.315 171.078C524.126 171.085 519.915 166.882 519.908 161.692C519.901 156.5 524.101 152.287 529.288 152.279C534.477 152.271 538.688 156.474 538.695 161.665Z" fill="#EBEBEB"/>
<path d="M564.989 142.829C564.995 148.021 560.795 152.234 555.608 152.242C550.42 152.249 546.21 148.046 546.202 142.856C546.195 137.664 550.395 133.451 555.582 133.443C560.77 133.436 564.981 137.639 564.989 142.829Z" fill="#EBEBEB"/>
<path d="M565.043 182.673C565.05 188.321 560.85 192.906 555.663 192.912C550.475 192.92 546.263 188.347 546.255 182.698C546.247 177.05 550.447 172.464 555.634 172.458C560.823 172.451 565.036 177.024 565.043 182.673Z" fill="#EBEBEB"/>
<path d="M552.878 181.48C552.476 182.071 546.228 178.521 538.923 173.551C531.616 168.579 526.02 164.072 526.422 163.48C526.824 162.889 533.07 166.439 540.378 171.41C547.681 176.38 553.278 180.889 552.878 181.48Z" fill="#EBEBEB"/>
<path d="M553.627 142.184C554.065 142.749 549.24 147.223 542.854 152.175C536.465 157.128 530.933 160.684 530.495 160.12C530.058 159.556 534.881 155.082 541.27 150.129C547.656 145.176 553.19 141.62 553.627 142.184Z" fill="#EBEBEB"/>
<path d="M536.436 101.651L534.844 101.806C521.426 103.102 509.679 111.482 504.65 123.865C504.003 125.457 503.472 127.096 503.066 128.769C500.14 140.822 503.818 154.312 512.495 163.351C517.598 168.668 524.446 172.77 527.264 179.548C530.932 188.37 526.452 198.184 522.072 206.6C517.69 215.015 513.234 224.848 516.94 233.655C519.261 239.169 524.46 243.074 530.008 245.395C544.696 251.542 562.312 247.73 574.794 238.101C587.277 228.471 595.05 213.793 598.944 198.544C604.4 177.181 602.547 153.468 591.27 134.313C579.993 115.156 558.683 101.406 536.436 101.651Z" fill="#F5F5F5"/>
<path d="M67.2183 123.451L68.5348 123.785C79.635 126.6 88.4223 135.147 91.0541 146.191C91.3928 147.611 91.6286 149.055 91.7552 150.513C92.6631 161.01 87.8425 171.863 79.3965 178.337C74.4282 182.146 68.1513 184.708 64.9147 190.037C60.7016 196.974 63.2015 205.79 65.799 213.419C68.3965 221.048 70.8753 229.878 66.6319 236.796C63.9738 241.128 59.1083 243.738 54.1519 244.973C41.0289 248.245 26.7264 242.78 17.483 233.088C8.23972 223.397 3.59829 210.072 2.28704 196.765C0.449968 178.125 5.05187 158.453 16.9809 143.819C28.91 129.189 48.5696 120.384 67.2183 123.451Z" fill="#F5F5F5"/>
<path d="M408.748 44.1909C422.359 44.1909 433.393 33.1497 433.393 19.5296C433.393 5.90962 422.359 -5.13159 408.748 -5.13159C395.137 -5.13159 384.103 5.90962 384.103 19.5296C384.103 33.1497 395.137 44.1909 408.748 44.1909Z" fill="#F5F5F5"/>
<path d="M76.8357 415.98C79.8484 402.699 71.53 389.491 58.2562 386.48C44.9823 383.469 31.7794 391.795 28.7668 405.077C25.7541 418.359 34.0725 431.567 47.3464 434.578C60.6203 437.588 73.8231 429.262 76.8357 415.98Z" fill="#F5F5F5"/>
<path d="M558.359 579.554C558.359 579.744 440.182 579.897 294.438 579.897C148.643 579.897 30.4923 579.743 30.4923 579.554C30.4923 579.364 148.643 579.211 294.438 579.211C440.182 579.21 558.359 579.364 558.359 579.554Z" fill="#263238"/>
<path d="M486.034 77.1985C486.154 77.3462 469.739 90.9052 449.376 107.481C429.006 124.063 412.401 137.381 412.281 137.234C412.161 137.088 428.572 123.53 448.943 106.949C469.305 90.3737 485.914 77.0521 486.034 77.1985Z" fill="#263238"/>
<path d="M513.071 298.595C513.007 298.773 491.764 291.16 465.633 281.594C439.492 272.024 418.361 264.124 418.427 263.946C418.491 263.768 439.728 271.379 465.869 280.949C492 290.515 513.136 298.417 513.071 298.595Z" fill="#263238"/>
<path d="M73.2421 115.96C73.3317 115.792 96.216 127.88 124.349 142.952C152.493 158.031 175.227 170.386 175.137 170.553C175.048 170.721 152.169 158.636 124.025 143.558C95.8918 128.485 73.1525 116.127 73.2421 115.96Z" fill="#263238"/>
<path d="M81.4893 311.726C81.4234 311.548 100.225 304.323 123.481 295.589C146.745 286.853 165.65 279.916 165.718 280.093C165.784 280.271 146.986 287.495 123.722 296.231C100.466 304.966 81.5552 311.904 81.4893 311.726Z" fill="#263238"/>
<path d="M304.517 351.351C241.432 351.351 190.108 299.994 190.108 236.866C190.108 173.739 241.432 122.382 304.517 122.382C367.603 122.382 418.926 173.739 418.926 236.866C418.926 299.993 367.603 351.351 304.517 351.351ZM304.517 123.699C242.159 123.699 191.426 174.466 191.426 236.865C191.426 299.265 242.159 350.031 304.517 350.031C366.875 350.031 417.608 299.265 417.608 236.865C417.608 174.466 366.875 123.699 304.517 123.699Z" fill="#811870"/>
<path d="M449.157 235.229C449.157 235.229 449.114 234.434 449.062 232.883C449.039 232.105 449.008 231.139 448.973 229.993C448.944 228.845 448.912 227.51 448.764 226.003C448.645 224.493 448.511 222.806 448.364 220.944C448.174 219.086 447.875 217.065 447.602 214.869C446.984 210.488 446.029 205.468 444.658 199.887C443.185 194.338 441.394 188.189 438.729 181.722C436.119 175.244 432.9 168.334 428.669 161.354C420.308 147.38 408.315 132.756 391.971 120.283C383.833 114.031 374.582 108.42 364.386 103.785C354.196 99.1547 343.061 95.4359 331.184 93.2957C319.33 91.1053 306.782 90.2429 293.966 91.2424C287.549 91.6222 281.098 92.6653 274.623 93.9484C268.16 95.3304 261.716 97.1846 255.327 99.4541C229.863 108.678 205.668 125.907 188.236 149.805C183.822 155.724 179.958 162.115 176.471 168.756C175.641 170.439 174.704 172.073 173.958 173.804C173.182 175.521 172.406 177.242 171.627 178.966C170.234 182.483 168.795 185.999 167.647 189.636C165.281 196.874 163.323 204.327 162.15 211.972C160.947 219.607 160.315 227.38 160.262 235.208C160.315 243.039 160.942 250.815 162.144 258.453C163.318 266.098 165.271 273.556 167.636 280.797C168.786 284.435 170.225 287.952 171.616 291.47C172.395 293.194 173.173 294.915 173.948 296.633C174.691 298.366 175.632 300 176.461 301.684C179.948 308.326 183.812 314.722 188.226 320.64C205.66 344.546 229.861 361.78 255.328 371.005C261.718 373.274 268.164 375.128 274.627 376.512C281.104 377.793 287.555 378.838 293.972 379.218C306.79 380.217 319.34 379.353 331.195 377.162C343.072 375.02 354.207 371.3 364.398 366.67C374.594 362.035 383.845 356.422 391.981 350.169C408.325 337.695 420.316 323.071 428.675 309.096C432.907 302.116 436.124 295.208 438.733 288.73C441.396 282.263 443.187 276.114 444.661 270.566C446.03 264.985 446.987 259.966 447.604 255.586C447.876 253.391 448.175 251.37 448.365 249.512C448.513 247.651 448.646 245.963 448.766 244.454C448.913 242.947 448.945 241.614 448.974 240.465C449.01 239.319 449.04 238.355 449.064 237.576C449.114 236.024 449.157 235.229 449.157 235.229C449.157 235.229 449.161 236.024 449.133 237.576C449.119 238.355 449.099 239.321 449.078 240.468C449.061 241.618 449.04 242.954 448.904 244.462C448.795 245.974 448.671 247.664 448.535 249.527C448.356 251.388 448.067 253.414 447.805 255.613C447.208 260.003 446.271 265.034 444.919 270.63C443.463 276.193 441.688 282.361 439.036 288.85C436.439 295.35 433.23 302.284 429.004 309.292C420.654 323.321 408.653 338.014 392.274 350.554C384.119 356.84 374.843 362.486 364.615 367.151C354.394 371.812 343.219 375.56 331.298 377.721C319.398 379.932 306.798 380.812 293.928 379.819C287.483 379.442 281.004 378.4 274.499 377.117C268.007 375.734 261.532 373.875 255.112 371.599C229.526 362.35 205.207 345.05 187.685 321.039C183.248 315.093 179.364 308.669 175.86 301.996C175.026 300.306 174.082 298.664 173.333 296.922C172.553 295.197 171.773 293.468 170.99 291.736C169.591 288.201 168.145 284.667 166.991 281.012C164.612 273.736 162.648 266.244 161.469 258.561C160.261 250.887 159.629 243.075 159.577 235.206C159.629 227.34 160.264 219.532 161.474 211.86C162.652 204.18 164.62 196.691 166.999 189.418C168.153 185.764 169.6 182.232 171 178.698C171.782 176.967 172.563 175.238 173.343 173.513C174.093 171.774 175.035 170.132 175.869 168.441C179.374 161.77 183.258 155.349 187.694 149.406C205.215 125.402 229.53 108.107 255.112 98.858C261.531 96.5819 268.006 94.7252 274.496 93.3418C281.001 92.0587 287.479 91.0156 293.924 90.6398C306.792 89.6468 319.391 90.5251 331.291 92.7352C343.212 94.8966 354.386 98.6431 364.607 103.302C374.835 107.968 384.111 113.61 392.266 119.897C408.647 132.435 420.648 147.127 429 161.158C433.227 168.166 436.436 175.101 439.034 181.601C441.686 188.09 443.46 194.258 444.918 199.823C446.27 205.419 447.207 210.451 447.804 214.841C448.066 217.041 448.355 219.067 448.535 220.929C448.671 222.793 448.794 224.483 448.903 225.995C449.04 227.505 449.06 228.84 449.078 229.991C449.101 231.138 449.119 232.103 449.133 232.883C449.161 234.435 449.157 235.229 449.157 235.229Z" fill="#263238"/>
<path d="M306.243 399.815V398.497C398.043 398.497 472.729 323.761 472.729 231.9C472.729 140.038 398.043 65.3028 306.243 65.3028C214.442 65.3028 139.756 140.038 139.756 231.9H138.438C138.438 139.312 213.714 63.9841 306.243 63.9841C398.771 63.9841 474.047 139.312 474.047 231.9C474.047 324.488 398.771 399.815 306.243 399.815Z" fill="#811870"/>
<path d="M304.536 383.241V376.647C382.464 376.647 445.861 313.208 445.861 235.229C445.861 157.251 382.464 93.8099 304.536 93.8099V87.2163C386.097 87.2163 452.45 153.615 452.45 235.229C452.451 316.844 386.097 383.241 304.536 383.241Z" fill="#811870"/>
<path d="M476.683 231.9H470.093C470.093 141.491 396.591 67.9402 306.243 67.9402C215.895 67.9402 142.392 141.491 142.392 231.9H135.802C135.802 137.857 212.262 61.3467 306.243 61.3467C400.224 61.3467 476.683 137.857 476.683 231.9Z" fill="#811870"/>
<path d="M307.517 425.146C202.808 425.146 117.62 339.902 117.62 235.122C117.62 130.343 202.808 45.0996 307.517 45.0996V51.6932C206.441 51.6932 124.21 133.98 124.21 235.122C124.21 336.265 206.44 418.552 307.517 418.552C408.594 418.552 490.826 336.266 490.826 235.122H497.415C497.415 339.903 412.227 425.146 307.517 425.146Z" fill="#811870"/>
<path d="M304.517 447.45C303.414 447.45 302.311 447.442 301.211 447.424L301.233 446.105C302.326 446.123 303.422 446.131 304.517 446.131V447.45Z" fill="#811870"/>
<path d="M287.866 446.799C285.663 446.626 283.427 446.417 281.218 446.173L281.362 444.862C283.556 445.105 285.779 445.313 287.968 445.486L287.866 446.799ZM268 444.291C265.798 443.906 263.591 443.483 261.443 443.034L261.712 441.745C263.847 442.19 266.038 442.61 268.228 442.993L268 444.291ZM248.463 439.898C246.331 439.31 244.175 438.677 242.055 438.019L242.445 436.76C244.553 437.414 246.695 438.043 248.814 438.626L248.463 439.898ZM229.417 433.645C227.339 432.85 225.248 432.012 223.203 431.153L223.713 429.937C225.745 430.79 227.823 431.623 229.889 432.413L229.417 433.645ZM211.047 425.59C209.057 424.601 207.058 423.567 205.104 422.516L205.729 421.355C207.67 422.399 209.657 423.425 211.634 424.409L211.047 425.59ZM193.536 415.82C191.645 414.642 189.754 413.424 187.915 412.196L188.648 411.099C190.475 412.32 192.354 413.531 194.233 414.699L193.536 415.82ZM177.042 404.433C175.28 403.089 173.514 401.698 171.793 400.295L172.626 399.273C174.335 400.667 176.09 402.049 177.842 403.385L177.042 404.433ZM161.705 391.541C160.063 390.023 158.438 388.47 156.872 386.927L157.797 385.987C159.352 387.52 160.967 389.063 162.598 390.573L161.705 391.541ZM147.659 377.257C146.177 375.599 144.706 373.902 143.287 372.21L144.296 371.362C145.706 373.042 147.169 374.732 148.641 376.379L147.659 377.257ZM135.03 361.716C133.706 359.918 132.403 358.089 131.156 356.281L132.241 355.532C133.479 357.33 134.775 359.147 136.09 360.934L135.03 361.716ZM123.932 345.054C122.798 343.163 121.674 341.222 120.594 339.281L121.744 338.64C122.818 340.568 123.936 342.497 125.062 344.377L123.932 345.054ZM114.47 327.421C113.511 325.413 112.58 323.373 111.698 321.359L112.905 320.832C113.78 322.832 114.707 324.858 115.658 326.854L114.47 327.421ZM106.735 308.978C105.976 306.896 105.241 304.771 104.549 302.664L105.801 302.251C106.487 304.345 107.219 306.455 107.973 308.527L106.735 308.978ZM100.788 289.843C100.23 287.693 99.7018 285.509 99.2168 283.35L100.503 283.06C100.985 285.204 101.511 287.376 102.065 289.514L100.788 289.843ZM96.6984 270.229C96.3505 268.048 96.0329 265.823 95.7536 263.616L97.0609 263.449C97.3389 265.644 97.6552 267.854 97.9991 270.022L96.6984 270.229ZM94.4937 250.315C94.3553 248.111 94.2486 245.866 94.1774 243.641L95.4939 243.599C95.5651 245.809 95.6705 248.042 95.8076 250.232L94.4937 250.315ZM95.4913 230.319L94.1735 230.28C94.242 228.056 94.3461 225.811 94.4832 223.606L95.7984 223.689C95.6613 225.879 95.5585 228.111 95.4913 230.319ZM97.0384 210.469L95.7311 210.304C96.0079 208.103 96.3242 205.878 96.6695 203.689L97.9702 203.895C97.6275 206.071 97.3139 208.282 97.0384 210.469ZM100.461 190.854L99.176 190.565C99.661 188.404 100.187 186.219 100.742 184.069L102.019 184.399C101.468 186.535 100.943 188.707 100.461 190.854ZM105.743 171.658L104.491 171.246C105.18 169.142 105.915 167.011 106.677 164.911L107.916 165.362C107.159 167.448 106.428 169.566 105.743 171.658ZM112.853 153.02L111.645 152.492C112.532 150.465 113.468 148.415 114.426 146.402L115.616 146.969C114.663 148.969 113.734 151.005 112.853 153.02ZM121.708 135.157L120.557 134.516C121.639 132.574 122.764 130.625 123.905 128.723L125.035 129.402C123.903 131.292 122.782 133.228 121.708 135.157ZM132.221 118.227L131.136 117.48C132.392 115.656 133.698 113.824 135.016 112.035L136.077 112.818C134.767 114.596 133.469 116.416 132.221 118.227ZM144.287 102.381L143.277 101.533C144.702 99.8354 146.174 98.1356 147.653 96.4819L148.635 97.3615C147.166 99.0046 145.704 100.693 144.287 102.381ZM157.793 87.7494L156.868 86.8092C158.439 85.261 160.065 83.7089 161.698 82.1976L162.593 83.1655C160.971 84.6689 159.355 86.2105 157.793 87.7494ZM172.615 74.466L171.784 73.444C173.502 72.0448 175.265 70.6549 177.025 69.3125L177.823 70.3609C176.076 71.6941 174.323 73.0761 172.615 74.466ZM188.619 62.6503L187.888 61.5532C189.717 60.332 191.601 59.1162 193.492 57.9386L194.188 59.0582C192.31 60.2292 190.435 61.4371 188.619 62.6503ZM205.661 52.4105L205.037 51.2487C206.992 50.1977 208.984 49.1665 210.955 48.1867L211.542 49.3683C209.583 50.3415 207.605 51.3661 205.661 52.4105ZM223.591 43.8455L223.081 42.6296C225.126 41.7698 227.204 40.9351 229.259 40.1491L229.729 41.3808C227.688 42.1628 225.624 42.9923 223.591 43.8455ZM242.264 37.0291L241.873 35.7697C243.992 35.1103 246.148 34.476 248.279 33.8853L248.631 35.1565C246.513 35.7433 244.372 36.3723 242.264 37.0291ZM261.525 32.0272L261.254 30.7362C263.43 30.2812 265.636 29.8566 267.812 29.4742L268.04 30.7731C265.877 31.1542 263.686 31.5749 261.525 32.0272ZM281.172 28.8913L281.027 27.5805C283.229 27.3352 285.466 27.1229 287.674 26.9475L287.779 28.2623C285.584 28.4363 283.361 28.6473 281.172 28.8913Z" fill="#811870"/>
<path d="M301.233 27.6266L301.211 26.3078C302.312 26.2906 303.414 26.2827 304.517 26.2827V27.6015C303.422 27.6015 302.325 27.6095 301.233 27.6266Z" fill="#811870"/>
<path d="M580.86 278.952L509.107 280.452L510.119 328.847L581.871 327.347L580.86 278.952Z" fill="#811870"/>
<path d="M581.086 279.53C581.101 279.547 580.875 279.773 580.431 280.188C579.937 280.64 579.285 281.236 578.47 281.981C576.695 283.565 574.215 285.777 571.172 288.492C564.917 293.987 556.357 301.509 546.874 309.839L546.673 310.015L546.461 309.852C546.299 309.728 546.124 309.594 545.948 309.459C535.829 301.669 526.671 294.617 519.975 289.462C516.714 286.912 514.054 284.832 512.15 283.344C511.275 282.641 510.574 282.079 510.043 281.654C509.566 281.263 509.32 281.048 509.335 281.029C509.348 281.011 509.62 281.192 510.123 281.549C510.673 281.95 511.397 282.48 512.304 283.142C514.239 284.591 516.94 286.614 520.256 289.096C526.981 294.211 536.179 301.208 546.345 308.941C546.52 309.076 546.696 309.21 546.858 309.334L546.445 309.347C555.977 301.074 564.583 293.603 570.87 288.146C573.971 285.496 576.496 283.337 578.304 281.792C579.151 281.085 579.83 280.519 580.345 280.09C580.817 279.707 581.072 279.514 581.086 279.53Z" fill="#263238"/>
<path d="M510.346 329.425C510.206 329.312 515.463 322.565 522.086 314.358C528.712 306.147 534.195 299.586 534.334 299.699C534.474 299.812 529.219 306.558 522.592 314.767C515.97 322.976 510.485 329.539 510.346 329.425Z" fill="#263238"/>
<path d="M558.173 298.596C558.312 298.483 563.781 304.957 570.386 313.055C576.994 321.156 582.236 327.813 582.097 327.926C581.957 328.039 576.489 321.567 569.882 313.466C563.275 305.368 558.033 298.71 558.173 298.596Z" fill="#263238"/>
<path d="M514.889 81.7674C514.875 85.0553 512.199 87.7074 508.914 87.6916C505.629 87.6758 502.978 84.9986 502.994 81.7121C503.009 78.4242 505.684 75.7721 508.969 75.7879C512.255 75.8024 514.905 78.4796 514.889 81.7674Z" fill="#455A64"/>
<path d="M497.054 74.1155C503.585 67.2529 514.2 67.0432 520.9 73.8003C523.936 76.8624 528.69 72.1519 525.652 69.0886C516.46 59.8193 501.372 59.8734 492.345 69.3589C489.377 72.479 494.077 77.2435 497.054 74.1155Z" fill="#455A64"/>
<path d="M476.853 46.4139C485.898 38.59 496.695 33.6659 508.784 33.6356C520.768 33.6066 532.583 37.8621 541.36 46.1106C544.495 49.0566 549.259 44.3554 546.112 41.3989C536.058 31.9516 522.577 26.9075 508.815 26.9418C494.902 26.9761 482.538 32.6664 472.145 41.6587C468.882 44.4807 473.607 49.2215 476.853 46.4139Z" fill="#455A64"/>
<path d="M484.824 61.7656C490.888 55.2064 499.384 51.0986 508.365 50.8942C517.59 50.6832 526.497 54.4863 532.91 61.0786C535.917 64.171 540.669 59.4579 537.662 56.3668C530.072 48.5653 519.319 43.9498 508.395 44.1991C497.713 44.443 487.361 49.1706 480.116 57.009C477.197 60.1674 481.894 64.9358 484.824 61.7656Z" fill="#455A64"/>
<path d="M67.6279 302.682C67.6279 285.626 52.2237 272.168 34.5765 275.482C23.4763 277.567 14.631 286.638 12.6859 297.771C11.4708 304.73 12.9059 311.276 16.078 316.677H16.0622L16.1412 316.782C17.2034 318.572 18.5331 319.852 19.8773 321.733L35.9523 343.041C37.9528 345.693 41.9327 345.693 43.9332 343.041L59.7406 322.084C59.7406 322.084 62.6913 318.563 63.7614 316.754L63.818 316.677H63.8075C66.2204 312.567 67.6279 307.795 67.6279 302.682ZM39.9427 314.744C33.2138 314.744 27.758 309.286 27.758 302.551C27.758 295.818 33.2125 290.359 39.9427 290.359C46.6716 290.359 52.1275 295.817 52.1275 302.551C52.1262 309.286 46.6716 314.744 39.9427 314.744Z" fill="#455A64"/>
<path d="M88.3817 94.5238C89.71 114.618 74.4705 131.988 54.3445 133.323C34.2171 134.656 16.8217 119.447 15.4933 99.3516C14.1636 79.2571 29.4031 61.887 49.5304 60.5538C69.6578 59.2206 87.052 74.4293 88.3817 94.5238Z" fill="#811870"/>
<g opacity="0.3">
<path d="M79.6457 94.2282C79.477 94.2454 79.278 93.0335 78.6902 90.9354C78.0932 88.8492 77.0495 85.8452 74.9225 82.6301C73.8603 81.0292 72.5359 79.3835 70.911 77.8234C69.2743 76.2805 67.3581 74.8049 65.1415 73.597C64.0372 72.989 62.8669 72.4325 61.6308 71.9763C60.3973 71.5134 59.1098 71.1099 57.7682 70.8329C56.4306 70.552 55.0495 70.3397 53.6368 70.2646C52.2254 70.1881 50.7889 70.2118 49.342 70.3437C47.8963 70.4953 46.4809 70.7499 45.1117 71.098C43.7398 71.4448 42.4259 71.9209 41.1674 72.4563C39.9049 72.989 38.7189 73.6339 37.5987 74.3275C36.4733 75.0146 35.4348 75.79 34.4688 76.5983C32.529 78.2124 30.9331 80.0323 29.6284 81.864C28.3369 83.7088 27.3564 85.5801 26.6237 87.3577C25.1622 90.9235 24.7208 94.0726 24.5389 96.2353C24.3689 98.4085 24.4098 99.6363 24.2398 99.6508C24.1159 99.6653 23.793 98.4613 23.7087 96.2155C23.6375 93.9842 23.8549 90.6624 25.2136 86.8236C25.8936 84.9128 26.8517 82.8847 28.163 80.8749C29.4874 78.8797 31.1413 76.8871 33.1879 75.1108C34.2066 74.2207 35.3083 73.3688 36.5075 72.6106C37.7028 71.8457 38.9719 71.1349 40.3266 70.5468C41.6787 69.9547 43.0941 69.4325 44.5727 69.05C46.0487 68.665 47.576 68.388 49.1337 68.2258C50.6941 68.0834 52.2438 68.061 53.7673 68.152C55.292 68.2403 56.7812 68.4803 58.2216 68.7982C59.6646 69.112 61.0483 69.5643 62.3675 70.0826C63.6906 70.5942 64.9373 71.2154 66.1088 71.8919C68.4585 73.2383 70.4682 74.8695 72.1551 76.572C73.8287 78.2889 75.1637 80.0929 76.2008 81.8363C78.2764 85.3388 79.1343 88.5551 79.4981 90.7587C79.8539 92.9741 79.7695 94.2177 79.6457 94.2282Z" fill="black"/>
</g>
<g opacity="0.3">
<path d="M56.1744 113.305L56.5645 118.141L52.2499 118.488L51.8704 113.783C47.5782 113.868 43.3703 112.862 40.848 111.197L42.7957 105.737C45.0822 107.161 48.2819 108.075 51.4144 108.127L50.8319 100.916C45.948 100.138 40.4698 98.9735 39.9716 92.7979C39.6026 88.2207 42.6073 84.0245 49.3625 82.6966L48.9764 77.9031L53.2923 77.5549L53.6719 82.2627C56.9282 82.2601 60.1477 82.8694 62.6424 84.1881L60.9147 89.6739C58.6124 88.6005 56.3102 88.0466 54.1318 87.9609L54.7248 95.3022C59.6035 96.0367 64.9974 97.2104 65.4889 103.298C65.8487 107.788 62.8822 111.938 56.1744 113.305ZM50.3219 94.569L49.8264 88.4383C47.5821 89.1412 46.7769 90.4665 46.8916 91.892C47.0128 93.4019 48.3742 94.1193 50.3219 94.569ZM58.5821 104.376C58.4596 102.864 57.1431 102.146 55.2348 101.647L55.7158 107.606C57.8349 106.957 58.6942 105.758 58.5821 104.376Z" fill="black"/>
</g>
<path d="M24.1633 98.7773C24.2371 98.7694 24.3399 99.9945 24.7524 102.152C25.1847 104.303 26.119 107.39 28.1023 110.774C29.0683 112.48 30.4033 114.173 31.9518 115.869C33.5885 117.481 35.448 119.109 37.6804 120.42C39.9102 121.708 42.3917 122.864 45.1262 123.526C47.8541 124.189 50.7679 124.478 53.7449 124.321C56.7179 124.085 59.5697 123.413 62.1856 122.395C64.8095 121.377 67.1183 119.906 69.1583 118.334C71.1997 116.739 72.8285 114.879 74.2386 113.066C75.5498 111.18 76.6516 109.326 77.383 107.506C78.9037 103.891 79.423 100.707 79.5679 98.5188C79.6931 96.3258 79.6338 95.0981 79.7076 95.0955C79.7313 95.0941 79.759 95.3974 79.7906 95.9803C79.7959 96.5619 79.9158 97.4256 79.8355 98.5333C79.7709 100.746 79.3215 103.989 77.831 107.693C77.1141 109.555 76.019 111.461 74.6985 113.399C73.2805 115.265 71.6306 117.18 69.5537 118.826C67.4781 120.448 65.1205 121.967 62.4347 123.018C59.7568 124.069 56.8339 124.763 53.7884 125.004C50.7389 125.166 47.7513 124.864 44.9588 124.176C42.1584 123.487 39.6229 122.293 37.3509 120.959C35.0764 119.602 33.1892 117.922 31.538 116.259C29.975 114.512 28.6374 112.768 27.682 111.016C25.7171 107.541 24.8447 104.386 24.4875 102.201C24.2608 101.114 24.2674 100.241 24.195 99.6635C24.1528 99.0846 24.1396 98.7799 24.1633 98.7773Z" fill="#263238"/>
<path d="M69.3997 498.273C69.3997 498.273 78.2489 503.999 82.3369 503.796C86.4261 503.593 102.483 483.61 102.483 483.61L94.0933 477.34L73.4784 480.767L69.3997 498.091" fill="#263238"/>
<path d="M244.722 206.039C248.344 219.207 244.693 234.136 235.406 244.145C231.174 248.708 225.78 252.434 223.106 258.055C220.143 264.283 221.1 271.601 219.782 278.371C218.464 285.142 212.755 292.356 206.061 290.716C212.309 299.986 221.804 306.691 231.976 311.321C242.148 315.951 253.065 318.668 263.911 321.363C269.944 322.861 276.456 324.334 282.227 322.019C289.697 319.023 293.407 310.8 296.4 303.323C305.091 281.605 313.784 259.888 322.475 238.17" fill="#263238"/>
<path d="M333.954 180.049C333.946 174.989 330.069 170.777 325.031 170.351L279.073 149.3C262.486 147.901 245.922 177.613 245.229 194.255C244.461 212.744 246.859 234.976 249.339 248.705C254.326 276.315 272.943 276.844 272.943 276.844L274.523 321.497L332.201 321.395L333.954 180.049Z" fill="#FFD6BD"/>
<path d="M257.328 216.289C257.302 218.167 258.869 219.737 260.829 219.801C262.784 219.864 264.394 218.397 264.42 216.518C264.446 214.64 262.879 213.068 260.923 213.005C258.965 212.941 257.354 214.412 257.328 216.289Z" fill="#263238"/>
<path d="M252.778 206.851C253.171 207.185 255.955 206.738 259.683 207.565C263.413 208.362 265.992 209.979 266.435 209.826C266.649 209.763 266.279 209.235 265.158 208.515C264.055 207.801 262.123 206.916 259.799 206.409C257.476 205.904 255.452 205.925 254.256 206.14C253.037 206.351 252.583 206.697 252.778 206.851Z" fill="#263238"/>
<path d="M293.359 214.454C293.333 216.332 294.9 217.902 296.86 217.966C298.815 218.029 300.425 216.561 300.451 214.683C300.477 212.805 298.91 211.233 296.954 211.17C294.995 211.105 293.385 212.576 293.359 214.454Z" fill="#263238"/>
<path d="M288.125 208.94C288.679 209.065 291.089 207.125 295.074 205.966C299.046 204.777 302.364 205.025 302.703 204.636C302.873 204.458 302.243 204.123 300.787 203.999C299.356 203.868 297.047 204.011 294.565 204.743C292.085 205.477 290.173 206.579 289.15 207.434C288.109 208.296 287.859 208.89 288.125 208.94Z" fill="#263238"/>
<path d="M274.686 234.463C274.699 234.245 272.316 233.885 268.456 233.475C267.48 233.394 266.552 233.222 266.373 232.558C266.128 231.858 266.514 230.797 266.962 229.651C267.829 227.268 268.737 224.773 269.689 222.155C273.469 211.485 276.184 202.72 275.755 202.572C275.324 202.423 271.909 210.951 268.128 221.621C267.22 224.252 266.35 226.759 265.524 229.159C265.179 230.276 264.57 231.548 265.1 233.002C265.378 233.725 266.105 234.24 266.735 234.395C267.364 234.573 267.913 234.571 268.397 234.589C272.273 234.713 274.677 234.68 274.686 234.463Z" fill="#263238"/>
<path d="M272.949 277.116C272.949 277.116 291.599 277.92 309.814 266.427C309.814 266.427 301.692 286.816 273.929 284.816L272.949 277.116Z" fill="#884C3B"/>
<path d="M275.517 243.742C277.345 240.858 280.164 238.897 282.744 238.713C284.535 238.586 286.235 239.333 287.105 241.012C287.976 242.689 287.872 245.353 286.64 247.383C285.253 249.669 282.827 250.636 280.915 250.321C279.003 250.004 277.49 248.666 276.061 247.317C275.667 246.944 275.264 246.551 275.061 245.969C274.857 245.387 274.902 244.561 275.317 243.957" fill="#884C3B"/>
<path d="M285.986 236.867C285.364 236.844 285.444 240.994 281.957 244.016C278.477 247.046 274.046 246.674 274.026 247.256C273.974 247.517 275.028 248.04 276.894 248.051C278.726 248.075 281.386 247.43 283.52 245.581C285.647 243.728 286.526 241.299 286.631 239.594C286.753 237.855 286.269 236.837 285.986 236.867Z" fill="#263238"/>
<path d="M285.21 190.778C285.711 191.764 289.438 190.811 293.954 190.802C298.47 190.702 302.218 191.565 302.695 190.567C302.905 190.091 302.16 189.198 300.587 188.377C299.026 187.555 296.615 186.889 293.906 186.918C291.2 186.954 288.805 187.678 287.265 188.536C285.713 189.396 284.99 190.309 285.21 190.778Z" fill="#263238"/>
<path d="M249.321 202.229C250.178 203.076 253.425 202.092 257.356 201.951C261.282 201.698 264.632 202.351 265.375 201.424C265.699 200.974 265.153 200.118 263.678 199.332C262.224 198.55 259.808 197.941 257.108 198.074C254.409 198.211 252.087 199.058 250.743 199.982C249.376 200.909 248.943 201.815 249.321 202.229Z" fill="#263238"/>
<path d="M362.285 248.48C359.896 236.195 352.433 196.82 341.446 176.29C330.459 155.76 317.896 147.648 305.688 144.665C293.479 141.682 284.485 146.332 279.12 151.364C273.755 156.396 272.223 170.712 272.223 170.712C272.223 170.712 301.641 176.534 311.89 193.001C323.663 211.916 326.635 221.5 326.635 221.5L330.545 231.906C330.545 231.906 333.658 282.564 332.634 292.632L376.826 308.61C367.379 289.011 364.676 260.766 362.285 248.48Z" fill="#263238"/>
<path d="M274.031 170.494C274.031 170.494 254.624 169.492 248.888 188.547C246.292 197.168 245.981 222.239 245.981 222.239C245.981 222.239 241.831 202.369 242.469 191.148C243.108 179.927 248.358 165.638 256.75 157.596C264.911 149.774 271.86 146.033 286.795 146.584C286.795 146.584 284.663 150.836 280.98 156.584C279.136 159.463 276.235 159.791 274.031 170.494Z" fill="#263238"/>
<path d="M326.466 222.965C326.628 216.826 333.204 212.578 338.588 215.525C341.544 217.143 343.854 220.481 343.739 226.996C343.433 244.372 326.064 240.479 326.042 239.98C326.03 239.671 326.278 230.152 326.466 222.965Z" fill="#FFD6BD"/>
<path d="M331.463 233.49C331.541 233.436 331.762 233.708 332.269 233.952C332.764 234.189 333.618 234.362 334.53 234.038C336.376 233.397 337.972 230.509 338.111 227.38C338.184 225.8 337.878 224.287 337.34 223.03C336.833 221.75 336.028 220.848 335.107 220.667C334.192 220.439 333.528 220.98 333.307 221.465C333.065 221.946 333.17 222.296 333.077 222.324C333.027 222.367 332.71 222.026 332.862 221.311C332.94 220.968 333.151 220.56 333.565 220.233C333.987 219.902 334.603 219.74 335.245 219.821C336.583 219.937 337.766 221.191 338.358 222.57C339.022 223.957 339.403 225.656 339.321 227.431C339.149 230.931 337.3 234.175 334.776 234.855C333.549 235.153 332.537 234.767 332.018 234.348C331.487 233.911 331.402 233.522 331.463 233.49Z" fill="#884C3B"/>
<path d="M293.693 144.087C293.731 144.226 291.706 144.643 288.706 145.979C287.194 146.616 285.516 147.635 283.79 148.925C282.065 150.227 280.422 151.974 278.957 153.99C276.038 158.058 274.412 162.38 273.335 165.484C272.281 168.613 271.756 170.597 271.64 170.566C271.594 170.554 271.683 170.049 271.882 169.142C272.065 168.231 272.413 166.933 272.874 165.335C273.84 162.173 275.411 157.76 278.402 153.588C279.903 151.521 281.611 149.735 283.406 148.424C285.201 147.125 286.948 146.127 288.514 145.536C289.273 145.184 290.004 144.985 290.632 144.775C291.258 144.556 291.813 144.428 292.269 144.333C293.178 144.13 293.683 144.04 293.693 144.087Z" fill="#455A64"/>
<path d="M354.582 278.588C354.571 278.592 354.519 278.468 354.428 278.223C354.328 277.939 354.199 277.576 354.038 277.123C353.656 276.165 353.298 274.692 352.903 272.78C352.193 268.936 352.081 263.228 352.885 256.311C353.24 252.848 353.747 249.07 354.076 245.004C354.394 240.945 354.528 236.566 353.826 232.054C353.101 227.556 351.453 222.98 348.951 218.692C346.472 214.385 343.179 210.364 339.387 206.7C331.758 199.346 322.852 194.354 314.815 189.973C306.719 185.638 299.35 181.821 293.472 178.077C287.576 174.369 283.062 170.985 280.015 168.568C278.489 167.361 277.333 166.387 276.554 165.722C276.193 165.404 275.906 165.151 275.679 164.952C275.484 164.775 275.389 164.68 275.396 164.671C275.402 164.662 275.514 164.738 275.724 164.898C275.961 165.082 276.263 165.318 276.641 165.615C277.487 166.271 278.672 167.188 280.177 168.357C283.27 170.704 287.818 174.021 293.728 177.664C299.619 181.343 306.988 185.104 315.114 189.415C323.178 193.772 332.15 198.772 339.863 206.204C343.694 209.907 347.026 213.979 349.533 218.354C352.066 222.71 353.731 227.373 354.452 231.954C355.149 236.547 354.988 240.972 354.644 245.05C354.288 249.136 353.753 252.91 353.368 256.362C352.506 263.257 352.546 268.906 353.168 272.735C353.521 274.638 353.833 276.115 354.171 277.081C354.305 277.542 354.412 277.91 354.495 278.199C354.562 278.452 354.593 278.584 354.582 278.588Z" fill="#455A64"/>
<path d="M75.8052 476.257C75.7841 476.22 76.1439 475.967 76.8397 475.59C77.5342 475.21 78.5832 474.734 79.9353 474.295C82.6171 473.406 86.6444 472.815 90.9353 473.701C95.2275 474.587 98.6921 476.725 100.803 478.604C101.871 479.543 102.646 480.396 103.135 481.019C103.625 481.641 103.854 482.016 103.82 482.042C103.724 482.124 102.664 480.723 100.492 478.977C98.3455 477.233 94.9508 475.232 90.7969 474.375C86.6444 473.518 82.7357 474.01 80.0737 474.761C77.3892 475.504 75.8619 476.37 75.8052 476.257Z" fill="#263238"/>
<path d="M94.852 466.431C94.8981 466.368 95.8812 466.964 97.2584 468.204C98.6342 469.44 100.357 471.375 101.806 473.814C103.249 476.259 104.119 478.7 104.541 480.501C104.968 482.305 105.018 483.454 104.94 483.465C104.719 483.523 104.083 478.943 101.215 474.165C98.4062 469.356 94.6952 466.597 94.852 466.431Z" fill="#263238"/>
<path d="M195.481 579.553C195.481 579.553 209.48 511.315 239.145 498.182L356.761 494.725C356.761 494.725 395.626 520.772 401.848 579.941L195.481 579.553Z" fill="#263238"/>
<path d="M273.53 289.096C273.53 289.096 276.995 310.853 300.262 308.322C323.53 305.791 332.634 292.632 332.634 292.632L364.979 302.963L370.067 365.563C351.655 401.339 341.213 441.193 339.714 481.406C339.463 488.171 339.22 495.592 334.716 500.643C331.939 503.755 327.937 505.456 323.99 506.803C298.926 515.353 270.351 512.998 247.026 500.456C247.026 500.456 237.142 393.354 238.354 390.317C239.565 387.28 255.752 297.187 255.752 297.187L273.53 289.096Z" fill="#E0E0E0"/>
<path d="M239.146 294.042C239.146 294.042 218.585 295.488 213.078 298.244C207.569 301 135.501 391.489 132.748 392.867C130.447 394.018 87.5549 433.912 69.8524 472.512C66.3601 480.128 63.6651 490.933 69.4003 498.182C69.4003 498.182 90.0733 472.21 102.483 483.61L157.995 427.319L215.984 393.47L239.146 294.042Z" fill="#455A64"/>
<g opacity="0.3">
<path d="M260.171 470.877C284.58 423.71 284.58 355.38 272.949 292.632L262.505 381.794L260.171 470.877Z" fill="black"/>
</g>
<path d="M207.531 310.575L209.364 387.088C209.364 387.088 216.711 471.802 218.088 471.802C219.465 471.802 223.597 501.659 218.088 514.98C212.58 528.3 194.678 546.215 194.678 546.215L217.171 570.559C217.171 570.559 238.287 537.029 244.713 515.439C251.14 493.85 269.041 461.237 271.795 400.604C274.55 339.971 273.414 280.763 273.414 280.763L255.73 293.577L238.735 293.929L207.531 310.575Z" fill="#455A64"/>
<path d="M248.23 511.315C248.23 511.315 248.283 511.066 248.416 510.59C248.557 510.089 248.755 509.389 249.012 508.479C249.529 506.593 250.282 503.857 251.247 500.346C253.113 493.266 255.756 482.992 258.217 470.133C259.442 463.704 260.607 456.626 261.41 448.976C261.792 445.15 262.087 441.182 262.174 437.092C262.253 433.005 262.14 428.78 261.491 424.523C261.13 422.401 260.711 420.271 259.984 418.183C259.276 416.09 258.612 413.956 257.721 411.875C257.301 410.827 256.878 409.772 256.453 408.712C255.983 407.671 255.51 406.624 255.034 405.573C254.116 403.455 253.056 401.378 252.014 399.271C247.794 390.861 242.868 382.437 237.532 374.002C232.915 366.703 228.19 359.674 223.397 353.032L223.21 352.772L223.455 352.57C235.766 342.461 247.356 332.944 257.871 324.31L258.097 324.841C246.974 326.123 236.815 327.294 227.811 328.331L227.207 328.401L227.59 327.93C236.248 317.315 243.259 308.719 248.125 302.753C250.548 299.807 252.435 297.511 253.736 295.93C254.37 295.17 254.86 294.584 255.209 294.167C255.544 293.773 255.73 293.581 255.73 293.581C255.73 293.581 255.582 293.803 255.265 294.212C254.929 294.639 254.457 295.24 253.845 296.018C252.568 297.618 250.716 299.941 248.337 302.923C243.512 308.921 236.559 317.565 227.974 328.238L227.754 327.837C236.753 326.768 246.908 325.561 258.027 324.241L259.044 324.12L258.254 324.772C247.753 333.424 236.178 342.961 223.884 353.09L223.942 352.628C228.756 359.289 233.487 366.319 238.113 373.631C243.458 382.081 248.39 390.525 252.616 398.965C253.66 401.081 254.72 403.166 255.64 405.295C256.116 406.351 256.589 407.402 257.061 408.449C257.487 409.516 257.91 410.576 258.331 411.632C259.222 413.724 259.89 415.877 260.599 417.987C261.328 420.092 261.758 422.281 262.116 424.425C262.763 428.737 262.866 432.992 262.778 437.102C262.68 441.215 262.372 445.196 261.976 449.034C261.146 456.705 259.951 463.791 258.694 470.224C256.169 483.091 253.451 493.353 251.505 500.416C250.523 503.946 249.713 506.675 249.145 508.518C248.86 509.42 248.64 510.114 248.483 510.611C248.328 511.081 248.23 511.315 248.23 511.315Z" fill="#263238"/>
<path d="M332.596 273.851C332.596 273.851 343.978 291.415 345.168 292.632C345.168 292.632 393.269 306.262 396.106 311.996C407.818 335.656 398.36 344.157 396.106 376.675C393.305 417.096 379.78 473.348 379.78 473.348C379.78 473.348 398.814 546.74 400.804 550.788C402.794 554.838 336.027 579.434 328.945 570.172C321.865 560.911 316.301 529.024 316.301 529.024C316.301 529.024 309.725 464.237 312.255 438.425C314.784 412.611 326.784 386.097 330.97 354.911C335.388 321.973 332.596 273.851 332.596 273.851Z" fill="#455A64"/>
<path d="M314.782 454.62C314.758 454.616 314.811 454.291 314.931 453.678C315.072 452.999 315.258 452.11 315.49 451C315.752 449.813 316.066 448.398 316.426 446.768C316.938 445.145 317.518 443.313 318.156 441.295C320.851 433.233 325.882 422.512 333.082 411.707C340.351 400.948 348.051 392.023 353.985 385.952C356.949 382.908 359.449 380.546 361.231 378.974C362.111 378.178 362.84 377.607 363.318 377.206C363.831 376.834 364.101 376.652 364.113 376.673C364.113 376.673 360.161 380.128 354.334 386.288C348.504 392.431 340.89 401.374 333.651 412.089C326.482 422.849 321.414 433.47 318.613 441.455C317.942 443.453 317.334 445.266 316.793 446.872C316.391 448.485 316.041 449.886 315.748 451.059C315.465 452.155 315.238 453.033 315.065 453.705C314.903 454.31 314.806 454.625 314.782 454.62Z" fill="#263238"/>
<path d="M345.168 293.449C345.189 293.439 345.356 293.75 345.653 294.35C345.972 295.012 346.393 295.89 346.922 296.989C348.028 299.36 349.576 302.678 351.475 306.75C352.43 308.822 353.473 311.082 354.589 313.504C355.148 314.72 355.725 315.977 356.318 317.271C356.903 318.568 357.561 319.882 358.05 321.306C360.162 326.942 362.48 333.127 364.914 339.62C366.82 344.745 368.656 349.677 370.372 354.29L370.503 354.643L370.136 354.722C365.502 355.724 361.181 356.658 357.281 357.501L357.476 357.108C360.141 362.971 362.35 367.831 363.925 371.3C364.659 372.959 365.244 374.283 365.675 375.256C365.851 375.676 365.996 376.021 366.115 376.303C366.21 376.542 366.252 376.667 366.239 376.673C366.226 376.68 366.157 376.565 366.036 376.338C365.897 376.066 365.727 375.732 365.521 375.326C365.055 374.368 364.424 373.065 363.631 371.434C362.002 367.991 359.718 363.166 356.964 357.344L356.814 357.027L357.158 356.951C361.052 356.08 365.366 355.116 369.993 354.084L369.757 354.516C368.032 349.91 366.189 344.986 364.273 339.87C361.858 333.372 359.559 327.186 357.463 321.546C356.984 320.12 356.335 318.804 355.759 317.503C355.177 316.205 354.61 314.946 354.063 313.726C352.975 311.293 351.959 309.022 351.028 306.943C349.212 302.836 347.734 299.489 346.677 297.098C346.197 295.977 345.814 295.082 345.525 294.407C345.271 293.79 345.147 293.46 345.168 293.449Z" fill="#263238"/>
<path d="M376.827 465.136C376.827 465.136 401.433 489.757 414.087 488.35C426.74 486.943 443.262 459.507 443.262 450.01C443.262 440.513 431.458 379.303 431.458 379.303L436.376 356.256L390.206 355.38L380.957 426.335L376.827 465.136Z" fill="#455A64"/>
<path d="M406.759 300.669C406.77 300.673 406.715 300.844 406.593 301.175C406.458 301.535 406.276 302.021 406.044 302.639C405.789 303.292 405.482 304.082 405.121 305.01C404.721 305.939 404.261 307.004 403.745 308.198C402.679 310.583 401.277 313.458 399.526 316.732C397.707 319.968 395.588 323.633 392.93 327.482C387.647 335.181 380.487 343.836 371.097 351.908C366.4 355.923 361.232 359.895 355.414 363.303C349.618 366.715 343.142 369.588 336.117 371.046C329.104 372.528 321.905 372.345 315.379 370.544C312.12 369.63 309.032 368.31 306.249 366.609C303.468 364.9 301.028 362.784 298.955 360.471C294.789 355.829 291.919 350.628 289.278 345.83C286.648 341.012 284.244 336.493 282.233 332.273C280.232 328.048 278.638 324.121 277.482 320.588C276.32 317.057 275.605 313.927 275.157 311.351C274.343 306.173 274.523 303.266 274.523 303.266C274.535 303.266 274.554 303.446 274.58 303.797C274.604 304.181 274.635 304.698 274.678 305.356C274.766 306.725 274.981 308.738 275.422 311.304C275.91 313.861 276.657 316.964 277.848 320.467C279.032 323.971 280.651 327.866 282.672 332.064C284.704 336.257 287.129 340.753 289.779 345.557C292.435 350.337 295.311 355.492 299.425 360.047C301.473 362.319 303.866 364.381 306.594 366.051C309.325 367.712 312.357 369.003 315.561 369.897C321.977 371.659 329.067 371.837 335.98 370.376C342.911 368.937 349.321 366.102 355.076 362.725C360.854 359.353 366.005 355.413 370.689 351.43C380.053 343.427 387.218 334.845 392.533 327.209C395.207 323.393 397.347 319.759 399.192 316.55C400.97 313.304 402.404 310.454 403.506 308.091C404.042 306.908 404.52 305.854 404.937 304.935C405.322 304.019 405.648 303.237 405.919 302.593C406.178 301.985 406.381 301.509 406.531 301.156C406.671 300.829 406.749 300.665 406.759 300.669Z" fill="#263238"/>
<path d="M397.02 302.355C397.035 302.372 396.769 302.664 396.247 303.206C395.678 303.787 394.91 304.569 393.942 305.552C391.875 307.615 388.961 310.519 385.382 314.087C381.746 317.702 377.438 321.982 372.659 326.732C370.205 329.058 367.495 331.404 364.337 333.356C361.203 335.301 357.546 336.848 353.587 337.196C349.664 337.572 345.666 336.926 342.392 335.045C339.09 333.207 336.822 329.984 335.981 326.662C335.055 323.35 334.929 320.089 334.891 317.085C334.882 314.071 335.006 311.277 335.055 308.728C335.18 303.635 334.945 299.498 334.207 296.747C333.788 295.394 333.464 294.338 333.09 293.685C332.771 293.009 332.613 292.645 332.633 292.632C332.652 292.62 332.851 292.959 333.214 293.622C333.631 294.263 334 295.314 334.466 296.677C335.295 299.445 335.606 303.627 335.541 308.734C335.523 311.29 335.428 314.087 335.461 317.079C335.521 320.061 335.674 323.284 336.589 326.484C337.425 329.697 339.568 332.703 342.727 334.463C345.854 336.251 349.717 336.88 353.523 336.513C357.358 336.176 360.896 334.687 363.987 332.784C367.087 330.878 369.777 328.573 372.226 326.273C374.682 323.975 376.864 321.624 379.044 319.556C381.196 317.47 383.205 315.523 385.042 313.742C388.687 310.236 391.653 307.384 393.759 305.36C394.763 304.414 395.562 303.663 396.152 303.106C396.705 302.597 397.002 302.337 397.02 302.355Z" fill="#263238"/>
<path d="M222.485 481.61C222.473 481.611 222.448 481.489 222.408 481.249C222.367 480.969 222.317 480.617 222.254 480.179C222.128 479.187 221.951 477.809 221.727 476.062C221.282 472.432 220.649 467.269 219.87 460.911C218.315 448.117 216.123 430.445 214.044 410.885C213.016 401.1 212.145 391.767 211.445 383.272C210.79 374.773 210.251 367.114 209.973 360.672C209.797 357.453 209.706 354.539 209.625 351.979C209.532 349.42 209.48 347.215 209.472 345.412C209.46 343.649 209.45 342.262 209.443 341.261C209.447 340.819 209.45 340.464 209.453 340.181C209.459 339.937 209.467 339.813 209.479 339.813C209.491 339.813 209.505 339.937 209.522 340.179C209.538 340.462 209.557 340.816 209.58 341.258C209.619 342.258 209.671 343.644 209.739 345.404C209.787 347.205 209.878 349.408 210.007 351.963C210.123 354.52 210.25 357.431 210.457 360.646C210.797 367.08 211.386 374.73 212.075 383.219C212.809 391.707 213.697 401.033 214.725 410.812C216.805 430.363 218.919 448.043 220.351 460.853C221.039 467.223 221.599 472.395 221.992 476.03C222.16 477.784 222.294 479.166 222.39 480.162C222.425 480.602 222.453 480.957 222.477 481.238C222.494 481.483 222.495 481.609 222.485 481.61Z" fill="#263238"/>
<path d="M436.375 356.256C436.375 356.266 436.301 356.272 436.156 356.277C435.981 356.281 435.77 356.285 435.511 356.291C434.898 356.291 434.062 356.291 433 356.292C430.757 356.27 427.557 356.239 423.529 356.2C415.354 356.076 403.826 355.899 390.198 355.692L390.509 355.439C388.636 365.349 387.121 376.632 385.953 388.571C383.866 410.473 383.003 430.39 381.923 444.775C381.42 451.97 380.927 457.787 380.546 461.802C380.342 463.772 380.182 465.319 380.068 466.422C380.008 466.919 379.962 467.313 379.925 467.622C379.89 467.892 379.866 468.029 379.854 468.028C379.842 468.026 379.844 467.887 379.856 467.615C379.874 467.306 379.899 466.908 379.929 466.41C380.012 465.305 380.13 463.754 380.28 461.78C380.579 457.759 380.997 451.939 381.44 444.743C382.394 430.356 383.18 410.436 385.271 388.505C386.439 376.55 387.981 365.247 389.899 355.323L389.949 355.064L390.211 355.071C403.836 355.381 415.363 355.642 423.537 355.828C427.564 355.941 430.762 356.032 433.004 356.095C434.066 356.136 434.9 356.168 435.513 356.192C435.773 356.206 435.982 356.219 436.158 356.229C436.303 356.238 436.375 356.247 436.375 356.256Z" fill="#263238"/>
<path d="M425.104 372.985C427.101 372.985 428.719 371.365 428.719 369.367C428.719 367.369 427.101 365.75 425.104 365.75C423.108 365.75 421.489 367.369 421.489 369.367C421.489 371.365 423.108 372.985 425.104 372.985Z" fill="#E0E0E0"/>
<path d="M428.719 369.367C428.661 369.369 428.645 369.046 428.477 368.517C428.309 367.997 427.932 367.248 427.144 366.685C426.383 366.119 425.154 365.817 423.98 366.267C422.815 366.681 421.818 367.922 421.832 369.367C421.818 370.813 422.815 372.054 423.98 372.468C425.154 372.918 426.383 372.616 427.144 372.05C427.932 371.487 428.309 370.738 428.477 370.218C428.645 369.689 428.661 369.366 428.719 369.367C428.755 369.365 428.834 369.692 428.736 370.283C428.639 370.862 428.299 371.736 427.44 372.435C426.611 373.134 425.181 373.563 423.765 373.061C422.363 372.607 421.129 371.116 421.146 369.366C421.129 367.615 422.363 366.126 423.765 365.671C425.181 365.171 426.609 365.598 427.44 366.297C428.299 366.996 428.639 367.872 428.736 368.45C428.834 369.043 428.755 369.37 428.719 369.367Z" fill="#263238"/>
<path d="M322.473 484.214C324.469 484.214 326.088 482.594 326.088 480.596C326.088 478.598 324.469 476.979 322.473 476.979C320.476 476.979 318.857 478.598 318.857 480.596C318.857 482.594 320.476 484.214 322.473 484.214Z" fill="#E0E0E0"/>
<path d="M326.088 480.597C326.03 480.598 326.015 480.275 325.846 479.746C325.679 479.226 325.302 478.477 324.514 477.914C323.752 477.348 322.523 477.046 321.349 477.496C320.184 477.91 319.188 479.151 319.201 480.595C319.188 482.041 320.184 483.282 321.349 483.696C322.523 484.145 323.752 483.843 324.514 483.278C325.302 482.715 325.679 481.965 325.846 481.446C326.015 480.918 326.029 480.595 326.088 480.597C326.124 480.594 326.203 480.921 326.104 481.512C326.007 482.091 325.667 482.965 324.807 483.664C323.977 484.363 322.548 484.792 321.133 484.291C319.731 483.836 318.497 482.345 318.514 480.595C318.497 478.844 319.731 477.355 321.133 476.9C322.548 476.4 323.977 476.827 324.807 477.526C325.667 478.225 326.007 479.101 326.104 479.679C326.203 480.272 326.123 480.598 326.088 480.597Z" fill="#263238"/>
<path d="M333.55 535.641C333.55 537.639 331.932 539.258 329.935 539.258C327.938 539.258 326.32 537.639 326.32 535.641C326.32 533.643 327.938 532.023 329.935 532.023C331.932 532.023 333.55 533.643 333.55 535.641Z" fill="#E0E0E0"/>
<path d="M333.55 535.641C333.492 535.643 333.477 535.319 333.308 534.791C333.14 534.271 332.764 533.522 331.975 532.959C331.214 532.393 329.985 532.091 328.811 532.541C327.646 532.955 326.65 534.196 326.663 535.64C326.65 537.085 327.646 538.326 328.811 538.74C329.985 539.19 331.214 538.888 331.975 538.322C332.764 537.759 333.14 537.01 333.308 536.49C333.477 535.963 333.491 535.64 333.55 535.641C333.586 535.639 333.665 535.966 333.566 536.556C333.469 537.135 333.129 538.01 332.269 538.709C331.439 539.408 330.01 539.835 328.595 539.335C327.193 538.882 325.959 537.391 325.976 535.64C325.959 533.89 327.193 532.4 328.595 531.945C330.01 531.445 331.439 531.872 332.269 532.571C333.129 533.27 333.469 534.146 333.566 534.723C333.665 535.317 333.585 535.644 333.55 535.641Z" fill="#263238"/>
<path d="M431.457 379.302C431.448 379.492 421.998 379.211 410.352 378.677C398.701 378.142 389.266 377.555 389.276 377.365C389.285 377.175 398.732 377.456 410.383 377.99C422.031 378.526 431.466 379.112 431.457 379.302Z" fill="#263238"/>
<path d="M222.964 449.928L209.361 455.368L179.769 381.282C172.805 363.845 152.961 355.329 135.535 362.298C118.109 369.267 109.598 389.125 116.563 406.562L146.155 480.647L132.553 486.088L102.96 412.003C92.9976 387.061 105.172 358.656 130.097 348.688C155.023 338.718 183.408 350.9 193.371 375.843L222.964 449.928Z" fill="#E0E0E0"/>
<path d="M222.964 449.929C222.964 449.929 222.745 449.425 222.349 448.457C221.951 447.477 221.368 446.044 220.607 444.166C219.083 440.391 216.845 434.845 213.966 427.707C211.093 420.569 207.581 411.84 203.505 401.71C201.471 396.646 199.297 391.232 196.992 385.49C194.584 379.806 192.639 373.478 188.895 367.719C185.241 361.93 180.028 356.746 173.674 352.828C172.874 352.349 172.085 351.839 171.264 351.377C170.415 350.966 169.564 350.552 168.707 350.136C167.03 349.224 165.166 348.698 163.366 347.979C162.46 347.635 161.496 347.45 160.558 347.177C159.606 346.954 158.677 346.604 157.694 346.481C155.744 346.178 153.791 345.741 151.776 345.69C147.768 345.267 143.667 345.681 139.566 346.271C138.555 346.507 137.54 346.745 136.52 346.982L134.989 347.34C134.487 347.49 133.993 347.676 133.493 347.842C132.496 348.183 131.494 348.528 130.49 348.872C129.503 349.261 128.55 349.747 127.574 350.183C119.775 353.727 112.886 359.743 107.867 367.24C105.363 371.01 103.469 375.211 102.014 379.599C100.65 384.027 99.9662 388.692 99.8331 393.417C99.7844 398.153 100.516 402.913 101.794 407.563C103.246 412.153 105.228 416.672 107.027 421.276C114.373 439.66 121.978 458.694 129.768 478.189C130.808 480.792 131.845 483.387 132.871 485.96L132.426 485.769C137.053 483.919 141.611 482.096 146.029 480.329L145.838 480.773C139.955 466.037 134.198 451.621 128.606 437.612C125.81 430.607 123.055 423.704 120.345 416.913C118.991 413.518 117.648 410.151 116.315 406.813C115.017 403.427 114.19 399.899 113.908 396.346C113.462 389.236 115.183 382.142 118.742 376.298C119.207 375.582 119.588 374.811 120.12 374.146L121.649 372.113C122.782 370.863 123.852 369.552 125.142 368.484C126.343 367.314 127.717 366.371 129.05 365.394C129.732 364.93 130.464 364.545 131.165 364.119L132.226 363.495L133.339 362.982C136.253 361.491 139.408 360.664 142.522 360.058C145.668 359.546 148.83 359.503 151.914 359.804C158.055 360.569 163.87 362.82 168.528 366.359C170.935 368.034 172.918 370.153 174.779 372.278C176.487 374.53 178.06 376.85 179.16 379.359C179.445 379.98 179.727 380.6 180.009 381.216C180.258 381.841 180.506 382.463 180.752 383.083C181.245 384.321 181.734 385.549 182.219 386.765C183.188 389.197 184.137 391.584 185.068 393.922C188.79 403.277 192.21 411.876 195.295 419.63C201.445 435.135 206.255 447.262 209.455 455.329L209.324 455.274C213.957 453.448 217.351 452.113 219.602 451.225C220.721 450.789 221.554 450.464 222.121 450.243C222.678 450.029 222.964 449.929 222.964 449.929C222.964 449.929 222.711 450.043 222.168 450.268C221.611 450.497 220.791 450.832 219.688 451.284C217.434 452.2 214.036 453.579 209.4 455.462L209.306 455.5L209.268 455.407C206.03 447.356 201.16 435.252 194.936 419.776C191.829 412.03 188.384 403.442 184.636 394.097C183.699 391.76 182.744 389.376 181.77 386.947C181.284 385.733 180.792 384.506 180.295 383.268C180.047 382.649 179.798 382.027 179.548 381.403C179.269 380.797 178.988 380.187 178.707 379.574C177.619 377.103 176.062 374.823 174.377 372.607C172.538 370.52 170.584 368.436 168.212 366.793C163.619 363.316 157.892 361.113 151.852 360.368C148.817 360.077 145.71 360.124 142.617 360.632C139.557 361.233 136.456 362.047 133.594 363.519L132.5 364.024L131.459 364.638C130.771 365.059 130.053 365.438 129.382 365.894C128.074 366.856 126.725 367.782 125.548 368.933C124.28 369.983 123.233 371.274 122.12 372.502L120.622 374.501C120.1 375.154 119.727 375.913 119.271 376.616C115.782 382.359 114.101 389.329 114.543 396.303C114.824 399.791 115.637 403.248 116.915 406.576C118.249 409.912 119.595 413.279 120.953 416.672C123.666 423.461 126.426 430.362 129.226 437.365C134.824 451.373 140.585 465.786 146.473 480.522L146.599 480.839L146.282 480.966C141.864 482.733 137.306 484.557 132.68 486.407L132.361 486.535L132.234 486.216C131.206 483.643 130.168 481.048 129.13 478.445C121.344 458.947 113.744 439.912 106.403 421.526C104.604 416.911 102.636 412.434 101.156 407.751C99.8621 403.037 99.1242 398.212 99.1782 393.409C99.3152 388.619 100.012 383.893 101.399 379.407C102.875 374.961 104.799 370.708 107.338 366.891C112.429 359.3 119.416 353.216 127.317 349.635C128.306 349.196 129.271 348.704 130.271 348.313C131.289 347.965 132.302 347.619 133.313 347.274C133.819 347.106 134.32 346.919 134.828 346.767L136.379 346.407C137.411 346.169 138.439 345.93 139.463 345.692C143.616 345.099 147.766 344.689 151.821 345.121C153.859 345.178 155.833 345.62 157.806 345.931C158.8 346.058 159.739 346.412 160.702 346.641C161.65 346.919 162.624 347.107 163.54 347.457C165.36 348.186 167.242 348.723 168.937 349.647C169.801 350.069 170.662 350.489 171.518 350.907C172.347 351.375 173.145 351.89 173.952 352.377C180.368 356.349 185.624 361.6 189.303 367.455C193.076 373.293 195.013 379.66 197.41 385.366C199.703 391.135 201.864 396.578 203.886 401.667C207.917 411.832 211.388 420.591 214.228 427.755C217.051 434.893 219.243 440.438 220.736 444.213C221.47 446.082 222.03 447.509 222.413 448.483C222.788 449.443 222.964 449.929 222.964 449.929Z" fill="#263238"/>
<path d="M257.25 503.418L153.892 544.757C147.129 547.461 139.454 544.168 136.75 537.399L104.892 457.642C102.189 450.873 105.48 443.195 112.244 440.489L215.603 399.15C222.367 396.445 230.041 399.738 232.745 406.507L264.602 486.264C267.305 493.031 264.013 500.712 257.25 503.418Z" fill="#811870"/>
<g opacity="0.3">
<path d="M256.785 503.603L154.356 544.57C147.336 547.378 139.369 543.96 136.564 536.935L105.078 458.108C102.272 451.083 105.688 443.111 112.708 440.304L215.137 399.337C222.157 396.529 230.124 399.947 232.929 406.972L264.415 485.799C267.222 492.824 263.806 500.794 256.785 503.603Z" fill="black"/>
</g>
<path d="M242.209 509.434L148.032 547.1C141.285 549.799 133.627 546.513 130.93 539.76L99.0506 459.945C96.353 453.193 99.637 445.53 106.386 442.832L200.562 405.166C207.31 402.466 214.968 405.752 217.664 412.506L249.544 492.321C252.24 499.072 248.956 506.734 242.209 509.434Z" fill="#811870"/>
<g opacity="0.3">
<path d="M187.11 460.353C183.757 451.959 173.97 448.064 165.695 452.078C158.859 455.393 155.364 463.312 157.529 470.598C159.762 478.114 166.915 482.445 174.161 481.699L181.268 499.493C182.144 501.686 184.631 502.755 186.824 501.878C189.015 501.001 190.083 498.512 189.206 496.319L182.098 478.525C187.497 474.351 189.768 467.007 187.11 460.353Z" fill="black"/>
</g>
<path d="M250.59 494.724C250.414 494.794 243.096 476.662 234.248 454.232C225.396 431.793 218.366 413.552 218.542 413.482C218.718 413.412 226.034 431.541 234.886 453.979C243.735 476.41 250.767 494.654 250.59 494.724Z" fill="#263238"/>
<path d="M186.004 480.021C185.882 479.91 187.885 478.45 189.726 475.08C190.646 473.41 191.455 471.256 191.83 468.767C192.211 466.285 192.095 463.463 191.232 460.701C190.327 457.951 188.778 455.587 187.024 453.792C185.27 451.987 183.358 450.706 181.64 449.885C178.182 448.216 175.704 448.197 175.74 448.034C175.741 447.999 176.345 447.988 177.425 448.133C178.504 448.273 180.056 448.651 181.847 449.444C183.637 450.23 185.638 451.507 187.476 453.347C189.313 455.179 190.942 457.623 191.886 460.49C192.786 463.37 192.883 466.305 192.455 468.863C192.032 471.431 191.147 473.634 190.149 475.317C189.154 477.005 188.113 478.216 187.317 478.959C186.524 479.707 186.027 480.049 186.004 480.021Z" fill="#263238"/>
<path d="M186.625 414.403C186.697 414.579 170.877 421.319 151.291 429.455C131.699 437.594 115.763 444.048 115.691 443.874C115.618 443.699 131.436 436.961 151.027 428.821C170.613 420.684 186.552 414.228 186.625 414.403Z" fill="white"/>
<path d="M160.673 480.017C160.647 480.05 160.292 479.83 159.708 479.35C159.123 478.872 158.332 478.109 157.489 477.046C155.801 474.952 153.999 471.455 153.727 467.266C153.46 463.077 154.798 459.377 156.204 457.083C156.904 455.922 157.59 455.062 158.11 454.513C158.628 453.963 158.952 453.699 158.981 453.728C159.08 453.813 157.887 454.994 156.626 457.322C155.363 459.618 154.156 463.201 154.412 467.222C154.674 471.241 156.331 474.638 157.878 476.753C159.425 478.901 160.76 479.921 160.673 480.017Z" fill="white"/>
<path d="M169.178 484.617C169.146 484.804 168.147 484.793 166.946 484.593C165.744 484.393 164.795 484.079 164.825 483.891C164.857 483.704 165.856 483.715 167.058 483.915C168.261 484.116 169.21 484.429 169.178 484.617Z" fill="white"/>
<path d="M126.666 353.074C126.692 353.128 125.842 353.554 124.358 354.399C122.872 355.241 120.782 356.575 118.411 358.493C113.681 362.268 107.935 368.864 104.895 377.697C101.865 386.537 102.346 395.274 103.756 401.161C104.447 404.132 105.276 406.47 105.932 408.047C106.583 409.627 106.992 410.486 106.938 410.512C106.917 410.523 106.793 410.32 106.578 409.923C106.374 409.52 106.027 408.944 105.687 408.154C104.952 406.599 104.044 404.265 103.285 401.274C101.736 395.351 101.163 386.469 104.247 377.474C107.34 368.486 113.249 361.833 118.108 358.114C120.544 356.223 122.694 354.939 124.229 354.165C124.983 353.751 125.609 353.509 126.019 353.317C126.434 353.138 126.657 353.053 126.666 353.074Z" fill="white"/>
<path d="M110.997 423.711C110.821 423.78 110.017 422.134 109.202 420.034C108.388 417.935 107.87 416.177 108.046 416.108C108.223 416.04 109.027 417.686 109.841 419.785C110.656 421.885 111.174 423.643 110.997 423.711Z" fill="white"/>
<g opacity="0.3">
<path d="M209.6 345.789C203.683 362.741 206.599 381.789 213.195 398.489C213.195 398.489 209.752 363.526 209.6 345.789Z" fill="black"/>
</g>
<g opacity="0.3">
<path d="M313.203 469.495C319.723 454.755 326.268 439.965 334.667 426.211C343.067 412.457 353.071 399.378 365.968 389.721C369.451 387.114 375.95 382.169 375.95 382.169C375.95 382.169 374.213 378.877 372.499 376.149C370.512 372.985 367.236 367.494 365.482 364.792L373.191 366.335C373.191 366.335 367.901 354.178 368.061 354.994C368.061 354.994 361.322 356.731 357.618 357.141C360.316 363.612 363.192 369.446 365.889 375.917C351.364 387.447 339.509 401.963 329.604 417.315C319.699 432.667 312.78 450.486 313.136 468.755" fill="black"/>
</g>
<path d="M340.756 238.074C340.938 237.94 341.343 238.063 341.799 238.595C342.246 239.117 342.706 240.082 342.704 241.387C342.699 242.034 342.578 242.765 342.248 243.503C341.917 244.239 341.365 244.982 340.635 245.538C339.199 246.658 337.042 247.212 334.915 246.434C332.805 245.608 331.556 243.764 331.218 241.973C331.038 241.073 331.117 240.151 331.355 239.379C331.598 238.606 331.989 237.979 332.414 237.489C333.276 236.51 334.259 236.093 334.939 235.996C335.631 235.9 336.016 236.076 336.064 236.297C336.179 236.772 335.039 237.387 334.42 238.857C334.111 239.588 333.998 240.422 334.294 241.241C334.569 242.072 335.286 242.908 336.129 243.222C336.969 243.545 338.06 243.394 338.814 242.953C339.578 242.535 340.045 241.835 340.298 241.083C340.805 239.569 340.357 238.353 340.756 238.074Z" fill="#E0E0E0"/>
<path d="M102.776 519.918C102.776 519.918 107.27 534.402 109.589 537.333C111.909 540.265 127.417 541.817 127.417 541.817L102.776 519.918Z" fill="#FFD6BD"/>
<path d="M121.354 496.889L129.958 503.802L155.499 523.506C155.499 523.506 155.344 528.243 149.595 527.16C144.937 526.282 134.588 520.568 134.588 520.568C134.588 520.568 146.741 531.992 147.161 537.331V538.302C147.161 539.48 146.708 540.612 145.893 541.464L131.706 531.975C131.706 531.975 134.743 537.331 137.735 542.883C138.691 544.661 138.225 548.275 136.761 549.665L105.147 523.121L104.94 503.348L121.354 496.889Z" fill="#FFD6BD"/>
<path d="M117.996 509.255C118.008 509.209 118.424 509.306 119.179 509.523C119.546 509.658 119.979 509.857 120.489 510.077C120.982 510.326 121.537 510.627 122.141 510.974C124.536 512.393 127.591 514.708 130.953 517.234C134.31 519.773 137.45 521.915 139.86 523.225C142.264 524.547 143.901 525.042 143.865 525.163C143.852 525.208 143.436 525.112 142.687 524.895C142.307 524.799 141.858 524.641 141.352 524.421C140.841 524.211 140.25 523.983 139.638 523.656C137.132 522.439 133.906 520.331 130.542 517.785C127.168 515.25 124.181 512.89 121.884 511.386C121.322 511.041 120.799 510.719 120.31 510.419C119.865 510.185 119.457 509.971 119.077 509.771C118.376 509.485 117.984 509.3 117.996 509.255Z" fill="#884C3B"/>
<path d="M115.097 518.902C115.151 518.827 116.194 519.465 117.811 520.595C119.428 521.726 121.613 523.355 123.948 525.256C126.283 527.157 128.323 528.965 129.758 530.32C131.193 531.674 132.03 532.564 131.967 532.633C131.901 532.705 130.949 531.94 129.437 530.684C127.725 529.269 125.724 527.615 123.514 525.789C121.278 523.996 119.254 522.373 117.519 520.984C115.981 519.758 115.04 518.981 115.097 518.902Z" fill="#884C3B"/>
<path d="M72.429 494.724C72.2076 494.976 72.5423 495.455 72.7545 495.899C76.194 503.09 105.695 523.507 105.695 523.507L121.845 496.054C121.845 496.054 133.535 501.711 138.329 500.405C142.26 499.335 149.712 498.524 146.281 491.594C146.281 491.594 129.801 488.554 124.194 486.147C118.586 483.741 115.097 482.48 115.097 482.48C115.097 482.48 104.5 482.812 96.0591 480.596C96.0591 480.596 86.1068 479.2 72.429 494.724Z" fill="#FFD6BD"/>
<path d="M135.962 548.996C135.896 549.07 134.487 547.934 132.221 546.087C129.806 544.128 126.741 541.639 123.35 538.887C119.886 536.072 116.786 533.469 114.597 531.524C113.502 530.55 112.628 529.751 112.041 529.18C111.45 528.612 111.139 528.279 111.171 528.244C111.237 528.17 112.644 529.307 114.912 531.153C117.326 533.113 120.393 535.601 123.784 538.354C127.248 541.169 130.347 543.772 132.536 545.717C133.631 546.69 134.504 547.489 135.094 548.06C135.681 548.63 135.992 548.961 135.962 548.996Z" fill="#884C3B"/>
<path d="M412.529 256.432L422.69 258.032L423.912 250.266L419.961 249.644L420.516 246.113L416.847 245.536L417.336 242.429L421.569 243.095L421.991 240.411L415.217 239.344C415.271 238.996 415.325 238.655 415.376 238.321L415.216 239.344C415.27 239.004 415.322 238.663 415.376 238.321C415.573 237.07 414.413 235.756 413.173 235.706C411.788 235.649 410.771 236.57 410.56 237.911C408.584 250.469 406.61 263.026 404.636 275.584C404.109 278.934 403.583 282.283 403.056 285.633C396.837 285.805 391.412 290.393 390.41 296.76C389.419 303.063 393.088 309.044 398.853 311.175C399.656 311.471 400.499 311.694 401.377 311.831C404.852 312.379 408.334 311.539 411.179 309.467C414.023 307.394 415.892 304.337 416.439 300.858C417.44 294.492 413.682 288.459 407.82 286.383C409.341 276.713 410.862 267.043 412.382 257.373L412.529 256.432ZM413.095 300.332C412.688 302.917 411.3 305.189 409.187 306.731C407.071 308.271 404.484 308.895 401.902 308.489C396.564 307.647 392.913 302.624 393.751 297.287C394.59 291.951 399.611 288.292 404.944 289.131C410.28 289.971 413.935 294.995 413.095 300.332Z" fill="#E0E0E0"/>
<path d="M413.096 300.332C412.966 300.336 413.407 298.755 412.667 296.19C412.273 294.939 411.566 293.443 410.256 292.155C408.995 290.836 407.11 289.784 404.9 289.422L405.066 288.858L407.111 289.752L404.899 289.424C402.761 289.106 400.288 289.528 398.208 290.93C396.127 292.298 394.504 294.641 394.09 297.343C393.791 299.372 394.129 301.44 395.039 303.151C395.911 304.879 397.307 306.25 398.859 307.106C400.407 307.989 402.13 308.345 403.713 308.32C405.303 308.287 406.763 307.857 407.959 307.217C410.385 305.933 411.691 303.978 412.312 302.6C412.934 301.191 413.026 300.316 413.096 300.332C413.117 300.335 413.11 300.552 413.044 300.961C412.981 301.37 412.84 301.967 412.557 302.704C411.995 304.152 410.706 306.239 408.189 307.644C406.949 308.343 405.413 308.827 403.728 308.888C402.052 308.941 400.216 308.585 398.553 307.66C396.886 306.762 395.385 305.306 394.442 303.461C393.461 301.634 393.09 299.412 393.412 297.237C393.855 294.339 395.609 291.826 397.843 290.378C400.077 288.892 402.727 288.469 404.992 288.838L404.826 289.403L402.686 288.433L404.994 288.838C407.337 289.25 409.312 290.403 410.606 291.817C411.952 293.202 412.645 294.786 413.003 296.096C413.353 297.426 413.343 298.514 413.295 299.238C413.208 299.96 413.122 300.337 413.096 300.332Z" fill="#263238"/>
<path d="M412.528 256.432C412.528 256.432 412.505 256.746 412.422 257.381L412.337 257.365L412.338 257.361L412.422 257.381C412.048 260.246 410.459 270.788 408.054 286.421L407.897 286.159C410.199 286.994 412.442 288.481 414.074 290.646C415.72 292.781 416.794 295.534 416.874 298.47C416.945 301.394 416.064 304.469 414.154 306.971C412.262 309.46 409.41 311.369 406.149 312.033C402.906 312.712 399.305 312.16 396.345 310.304C393.376 308.487 391.084 305.42 390.273 301.873C389.404 298.342 390.115 294.405 392.198 291.282C394.286 288.165 397.759 285.928 401.592 285.419C402.076 285.337 402.568 285.335 403.042 285.291L402.713 285.581C404.394 274.925 406.015 264.653 407.535 255.024C408.298 250.212 409.036 245.56 409.742 241.101C409.92 239.984 410.096 238.88 410.272 237.788C410.442 236.587 411.489 235.51 412.715 235.429C413.956 235.254 415.117 236.116 415.523 237.202C415.771 237.749 415.67 238.424 415.576 238.89L415.515 239.272L415.5 239.368L415.498 239.38C415.245 239.344 416.062 239.478 414.93 239.302L414.934 239.279L414.942 239.231L414.972 239.04L415.094 238.28L415.656 238.369C415.6 238.727 415.547 239.06 415.494 239.391L415.26 239.068C417.599 239.442 419.856 239.803 422.031 240.152L422.293 240.194L422.251 240.455C422.098 241.407 421.96 242.279 421.821 243.136L421.78 243.392L421.526 243.351C420.024 243.109 418.64 242.888 417.294 242.672L417.575 242.467C417.396 243.587 417.234 244.59 417.077 245.571L416.882 245.302C418.213 245.517 419.399 245.707 420.548 245.893L420.768 245.929L420.733 246.148C420.523 247.445 420.34 248.579 420.163 249.675L419.991 249.438C421.461 249.677 422.728 249.881 423.939 250.077L424.127 250.108L424.097 250.295C423.615 253.249 423.194 255.827 422.832 258.054L422.808 258.199L422.667 258.176C419.411 257.627 416.898 257.202 415.161 256.91C414.325 256.763 413.678 256.65 413.208 256.567C412.765 256.488 412.528 256.432 412.528 256.432C412.52 256.422 412.735 256.447 413.164 256.504C413.631 256.568 414.27 256.658 415.096 256.773C416.858 257.031 419.408 257.404 422.712 257.888L422.546 258.01C422.883 255.778 423.275 253.196 423.723 250.237L423.881 250.455C422.669 250.269 421.401 250.075 419.927 249.849L419.723 249.818L419.755 249.611C419.924 248.514 420.097 247.378 420.296 246.079L420.481 246.332C419.331 246.156 418.143 245.972 416.811 245.768L416.579 245.732L416.614 245.499C416.766 244.516 416.92 243.512 417.093 242.391L417.13 242.149L417.374 242.186C418.719 242.395 420.104 242.608 421.609 242.84L421.314 243.055C421.447 242.197 421.581 241.324 421.729 240.372L421.949 240.675C419.773 240.337 417.513 239.988 415.173 239.625L414.895 239.582L414.938 239.302C414.99 238.971 415.041 238.638 415.096 238.279L415.659 238.367L415.542 239.127L415.513 239.318L415.505 239.366L415.501 239.389C414.369 239.209 415.189 239.333 414.936 239.289L414.937 239.277L414.951 239.182L415.011 238.799C415.107 238.257 415.171 237.849 414.983 237.409C414.651 236.549 413.731 235.867 412.783 236.02C411.814 236.097 411.024 236.904 410.873 237.895C410.703 238.983 410.53 240.083 410.356 241.196C409.66 245.657 408.935 250.31 408.184 255.124C406.675 264.755 405.065 275.028 403.394 285.687L403.353 285.949L403.064 285.977C402.614 286.02 402.147 286.02 401.689 286.098C398.053 286.581 394.753 288.705 392.767 291.663C390.79 294.625 390.107 298.366 390.93 301.718C391.695 305.09 393.871 308.012 396.691 309.747C399.501 311.518 402.935 312.053 406.026 311.415C409.132 310.791 411.865 308.976 413.68 306.605C415.51 304.225 416.367 301.284 416.313 298.483C416.247 295.672 415.231 293.025 413.66 290.964C412.102 288.873 409.953 287.43 407.739 286.608L407.552 286.539L407.583 286.345C410.091 270.729 411.815 260.207 412.338 257.365L412.422 257.384L412.424 257.382L412.338 257.366C412.462 256.691 412.528 256.432 412.528 256.432Z" fill="#263238"/>
<path d="M390.147 294.644L406.411 290.359L414.88 291.452C416.44 291.654 417.786 292.644 418.443 294.075L423.927 306.016C423.927 306.016 431.867 312.559 430.933 316.531C429.998 320.503 422.671 355.98 422.671 355.98L400.848 355.322C400.848 355.322 394.737 348.312 394.269 338.732C394.026 333.75 395.922 330.701 395.456 328.065C395.137 326.259 396.256 323.04 396.752 320.565L397.415 318.168L395.961 318.857C393.287 320.126 390.036 318.489 389.671 315.551C389.655 315.425 389.645 315.297 389.638 315.168C389.498 312.327 390.578 309.563 392.606 307.57L400.848 299.472C400.848 299.472 391.782 304.722 390.147 294.644Z" fill="#FFD6BD"/>
<path d="M417.861 314.47C417.852 314.517 417.317 314.453 416.356 314.296C415.254 314.1 413.902 313.857 412.305 313.572C410.547 313.232 408.528 312.84 406.314 312.412C405.186 312.205 404.003 311.9 402.807 311.799C401.62 311.689 400.348 311.912 399.547 312.835C398.74 313.748 398.427 315.019 398.162 316.214C397.902 317.432 397.653 318.61 397.412 319.74C396.973 321.991 396.353 324.006 396.35 325.682C396.308 327.386 397.162 328.6 397.918 329.127C398.689 329.671 399.277 329.615 399.262 329.688C399.262 329.705 399.127 329.74 398.863 329.719C398.602 329.7 398.208 329.612 397.771 329.349C396.903 328.865 395.879 327.53 395.864 325.693C395.811 323.872 396.391 321.867 396.791 319.611C397.019 318.478 397.257 317.296 397.502 316.074C397.769 314.857 398.067 313.485 399.034 312.376C400.021 311.234 401.605 310.992 402.859 311.129C404.155 311.251 405.314 311.571 406.439 311.793C408.641 312.276 410.651 312.715 412.4 313.098C413.98 313.467 415.318 313.781 416.407 314.035C417.354 314.271 417.87 314.424 417.861 314.47Z" fill="#884C3B"/>
<path d="M409.374 332.507C409.405 332.477 409.426 333.187 408.551 333.821C408.131 334.127 407.487 334.345 406.75 334.329C406.011 334.324 405.208 334.129 404.353 333.869C402.679 333.333 400.53 332.435 399.153 330.331C397.779 328.205 397.934 325.209 399.048 322.702C399.612 321.437 400.204 320.252 401.073 319.206C401.513 318.698 402.07 318.255 402.723 318.034C403.372 317.811 404.043 317.812 404.647 317.896C407.023 318.354 408.98 319.118 410.632 319.805C412.27 320.508 413.537 321.201 414.388 321.713C415.239 322.227 415.681 322.557 415.658 322.594C415.599 322.698 413.728 321.539 410.449 320.253C408.82 319.636 406.795 318.917 404.566 318.523C404.015 318.454 403.451 318.469 402.939 318.651C402.425 318.83 401.967 319.191 401.579 319.645C400.818 320.566 400.209 321.768 399.68 322.966C398.619 325.359 398.494 328.085 399.689 329.993C400.887 331.901 402.893 332.832 404.502 333.403C405.327 333.687 406.091 333.903 406.76 333.941C407.434 333.989 408 333.834 408.405 333.592C409.234 333.101 409.314 332.472 409.374 332.507Z" fill="#884C3B"/>
<path d="M409.167 330.137C409.191 330.22 408.786 330.441 408.056 330.524C407.335 330.611 406.278 330.512 405.265 329.988C404.25 329.465 403.558 328.659 403.212 328.021C402.857 327.377 402.802 326.919 402.883 326.89C403.059 326.797 403.768 328.449 405.58 329.378C407.384 330.318 409.141 329.939 409.167 330.137Z" fill="#884C3B"/>
<path d="M410.756 334.555C410.651 334.704 409.623 334.094 408.879 332.864C408.126 331.639 408.055 330.446 408.236 330.421C408.429 330.38 408.781 331.401 409.465 332.507C410.135 333.62 410.881 334.402 410.756 334.555Z" fill="#884C3B"/>
<path d="M410.311 346.643C410.168 346.733 408.912 344.135 409.041 340.667C409.137 337.198 410.559 334.687 410.697 334.786C410.895 334.863 409.814 337.385 409.727 340.689C409.6 343.992 410.514 346.58 410.311 346.643Z" fill="#884C3B"/>
<path d="M409.907 335.843C409.982 336.043 407.193 336.76 404.776 339.166C402.315 341.53 401.538 344.303 401.337 344.224C401.26 344.204 401.336 343.487 401.766 342.408C402.189 341.333 403.024 339.923 404.296 338.676C405.572 337.432 406.999 336.629 408.083 336.229C409.169 335.825 409.888 335.764 409.907 335.843Z" fill="#884C3B"/>
<path d="M403.22 308.692C403.406 308.701 403.521 309.363 403.298 310.134C403.078 310.905 402.629 311.406 402.467 311.315C402.298 311.224 402.442 310.635 402.637 309.945C402.838 309.255 403.028 308.68 403.22 308.692Z" fill="#884C3B"/>
<path d="M422.58 308.928C422.529 309.009 421.289 308.342 419.324 307.197C417.36 306.054 414.669 304.43 411.722 302.605C410.252 301.697 408.833 300.884 407.455 300.377C406.083 299.852 404.764 299.668 403.661 299.713C401.423 299.806 400.272 300.781 400.217 300.664C400.193 300.635 400.437 300.363 400.999 300.031C401.557 299.703 402.457 299.336 403.629 299.229C404.791 299.117 406.219 299.264 407.67 299.782C409.128 300.283 410.604 301.107 412.082 302.021C415.034 303.847 417.68 305.534 419.58 306.784C421.479 308.034 422.63 308.848 422.58 308.928Z" fill="#884C3B"/>
<path d="M412.52 256.885C412.333 256.857 412.769 252.864 413.494 247.969C414.22 243.071 414.959 239.125 415.148 239.152C415.335 239.18 414.898 243.172 414.172 248.069C413.446 252.966 412.707 256.913 412.52 256.885Z" fill="#263238"/>
<g opacity="0.3">
<path d="M415.146 239.58C416.746 245.051 415.439 251.212 412.611 255.989C413.557 251.179 414.513 244.661 415.146 239.58Z" fill="black"/>
</g>
<path d="M561.078 474.717C554.977 468.841 545.807 466.347 537.572 468.325C529.337 470.303 522.298 476.69 519.528 484.698L522.534 496.332C523.677 492.369 526.124 488.537 529.91 486.905C533.848 485.206 538.409 486.174 542.439 487.638C546.469 489.103 550.426 491.064 554.705 491.328C558.984 491.591 563.815 489.561 565.096 485.466C566.302 481.619 563.983 477.514 561.078 474.717Z" fill="#811870"/>
<g opacity="0.3">
<path d="M561.078 474.717C554.977 468.841 545.807 466.347 537.572 468.325C529.337 470.303 522.298 476.69 519.528 484.698L522.534 496.332C523.677 492.369 526.124 488.537 529.91 486.905C533.848 485.206 538.409 486.174 542.439 487.638C546.469 489.103 550.426 491.064 554.705 491.328C558.984 491.591 563.815 489.561 565.096 485.466C566.302 481.619 563.983 477.514 561.078 474.717Z" fill="black"/>
</g>
<path d="M488.629 513.534C482.349 507.566 482.663 497.176 485.795 489.096C488.928 481.016 495.764 474.813 503.399 470.724C518.201 462.798 536.704 462.198 551.986 469.148C544.477 469.397 537.217 473.662 533.34 480.104C529.9 485.822 529.135 492.762 526.293 498.801C523.126 505.527 517.313 510.964 510.393 513.672C503.47 516.379 495.514 516.329 488.629 513.534Z" fill="#811870"/>
<path d="M485.61 477.676C478.658 469.464 477.733 456.284 478.757 445.57C479.781 434.857 482.262 424.077 480.574 413.448C479.574 407.151 477.133 401.139 476.308 394.818C475.483 388.496 476.652 381.348 481.548 377.266C487.175 372.576 496.034 373.682 501.887 378.086C507.74 382.491 511.132 389.408 513.61 396.303C519.054 411.453 521.053 428.252 516.58 443.715C512.107 459.179 501.613 473.006 486.216 477.674" fill="#811870"/>
<path d="M482.274 545.047C482.254 545.047 482.247 544.721 482.248 544.1C482.256 543.48 482.248 542.564 482.299 541.388C482.388 539.032 482.614 535.626 483.141 531.442C483.671 527.26 484.499 522.301 485.813 516.879C487.108 511.446 489.322 505.654 492.454 500.018C495.598 494.379 499.43 489.512 503.307 485.501C507.194 481.486 511.17 478.362 514.684 476.032C516.421 474.831 518.1 473.918 519.545 473.074C521.028 472.296 522.322 471.657 523.383 471.144C524.432 470.702 525.265 470.352 525.884 470.091C526.457 469.857 526.763 469.743 526.77 469.762C526.778 469.78 526.488 469.93 525.929 470.198C525.323 470.482 524.506 470.864 523.479 471.345C522.437 471.887 521.164 472.553 519.702 473.355C518.279 474.223 516.622 475.154 514.91 476.37C511.447 478.729 507.525 481.864 503.688 485.868C499.861 489.869 496.072 494.708 492.955 500.299C486.564 511.487 484.814 523.251 483.545 531.496C482.967 535.659 482.68 539.052 482.522 541.399C482.455 542.534 482.402 543.434 482.362 544.104C482.324 544.723 482.294 545.047 482.274 545.047Z" fill="#263238"/>
<path d="M422.314 445.281C409.452 453.047 409.493 460.115 411.641 466.787C413.789 473.458 421.683 478.092 428.227 475.594C431.926 474.182 434.607 470.965 436.896 467.731C439.185 464.499 441.336 461.037 444.543 458.715C446.732 457.13 449.595 456.215 452.216 456.525L422.314 445.281Z" fill="#811870"/>
<g opacity="0.3">
<path d="M422.314 445.281C409.452 453.047 409.493 460.115 411.641 466.787C413.789 473.458 421.683 478.092 428.227 475.594C431.926 474.182 434.607 470.965 436.896 467.731C439.185 464.499 441.336 461.037 444.543 458.715C446.732 457.13 449.595 456.215 452.216 456.525L422.314 445.281Z" fill="black"/>
</g>
<path d="M412.479 454.151C415.842 449.501 424.15 448.154 429.396 450.474C434.643 452.794 438.485 457.396 441.925 461.989C445.364 466.582 448.713 471.432 453.477 474.628C458.241 477.823 464.897 478.981 469.646 475.762C472.765 473.646 474.572 469.971 475.138 466.245C475.704 462.518 475.158 458.712 474.383 455.022C473.249 449.625 471.396 443.987 467.079 440.557C462.267 436.736 455.592 436.555 449.452 436.756C442.407 436.986 435.258 437.515 428.645 439.959C422.033 442.404 415.286 447.681 412.479 454.151Z" fill="#811870"/>
<path d="M471.584 534.739C471.575 534.739 471.563 534.644 471.549 534.457C471.538 534.235 471.523 533.964 471.506 533.626C471.478 532.849 471.441 531.783 471.395 530.432C471.315 527.61 471.199 523.609 471.058 518.684C470.902 513.725 470.7 507.822 470.342 501.273C469.976 494.728 469.491 487.528 468.497 480.036C467.993 476.295 467.402 472.637 466.366 469.251C465.324 465.861 463.935 462.704 462.425 459.814C460.899 456.929 459.226 454.302 457.453 452.003C455.67 449.711 453.829 447.721 452.023 446.039C448.374 442.701 444.882 440.662 442.396 439.471C441.768 439.184 441.221 438.902 440.728 438.701C440.243 438.513 439.825 438.35 439.472 438.213C439.16 438.087 438.907 437.985 438.702 437.902C438.53 437.828 438.443 437.786 438.445 437.777C438.448 437.768 438.542 437.791 438.721 437.845C438.932 437.914 439.191 437.998 439.511 438.104C439.871 438.227 440.298 438.373 440.792 438.542C441.295 438.726 441.852 438.994 442.491 439.268C445.021 440.404 448.578 442.407 452.297 445.738C454.138 447.418 456.013 449.411 457.831 451.712C459.639 454.019 461.343 456.661 462.895 459.566C464.433 462.479 465.842 465.652 466.907 469.083C467.968 472.529 468.562 476.201 469.069 479.959C470.066 487.48 470.535 494.69 470.873 501.244C471.202 507.8 471.362 513.71 471.466 518.672C471.568 523.634 471.607 527.651 471.621 530.426C471.622 531.777 471.623 532.845 471.623 533.622C471.618 533.96 471.613 534.233 471.61 534.453C471.602 534.643 471.594 534.739 471.584 534.739Z" fill="#263238"/>
<path d="M476.212 540.555C476.212 540.555 475.493 538.644 474.803 535.028C474.134 531.418 473.629 526.064 474.214 519.5C474.764 512.939 476.441 505.237 479.115 496.972C481.755 488.691 485.338 479.836 488.4 470.319C489.918 465.556 491.208 460.844 492.092 456.218C492.988 451.593 493.556 447.078 493.916 442.763C494.637 434.128 494.535 426.306 494.326 419.754C494.104 413.199 493.755 407.9 493.538 404.237C493.431 402.433 493.348 401.019 493.289 400.019C493.268 399.561 493.25 399.198 493.237 398.92C493.229 398.672 493.229 398.546 493.239 398.544C493.249 398.544 493.268 398.669 493.295 398.916C493.323 399.193 493.359 399.554 493.403 400.011C493.488 401.01 493.608 402.421 493.759 404.223C494.045 407.882 494.455 413.179 494.73 419.74C494.993 426.298 495.136 434.138 494.443 442.807C494.095 447.139 493.538 451.676 492.643 456.326C491.761 460.98 490.467 465.718 488.945 470.494C485.873 480.043 482.277 488.888 479.617 497.135C476.925 505.367 475.216 513.016 474.618 519.539C473.985 526.061 474.424 531.383 475.022 534.991C475.338 536.794 475.627 538.189 475.881 539.12C475.989 539.565 476.075 539.918 476.141 540.187C476.198 540.427 476.221 540.552 476.212 540.555Z" fill="#263238"/>
<path d="M516.371 537.302H439.664L437.913 522.529H516.371V537.302Z" fill="#455A64"/>
<path d="M447.896 535.619L457.486 579.939H499.166L508.139 535.619H447.896Z" fill="#455A64"/>
<path d="M516.37 537.302C516.368 537.503 499.504 537.619 478.706 537.561C457.9 537.503 441.041 537.292 441.041 537.091C441.041 536.889 457.902 536.773 478.707 536.831C499.507 536.889 516.37 537.1 516.37 537.302Z" fill="#455A64"/>
<path d="M503.965 556.239C503.871 556.377 501.62 554.115 497.028 552.148C494.748 551.179 491.872 550.318 488.608 550.122C485.341 549.893 481.78 550.728 478.186 551.961C474.572 553.174 471.218 554.644 467.894 555.325C464.571 555.927 461.516 555.743 459.021 555.339C456.524 554.905 454.576 554.192 453.321 553.534C452.702 553.188 452.228 552.911 451.938 552.674C451.639 552.451 451.491 552.326 451.505 552.305C451.546 552.246 452.18 552.699 453.444 553.277C454.712 553.844 456.641 554.466 459.1 554.828C461.553 555.159 464.556 555.282 467.765 554.663C470.948 553.978 474.316 552.491 477.952 551.268C481.573 550.025 485.263 549.176 488.649 549.45C492.015 549.689 494.939 550.626 497.236 551.675C499.55 552.711 501.241 553.895 502.353 554.758C502.909 555.194 503.319 555.555 503.581 555.819C503.85 556.076 503.982 556.22 503.965 556.239Z" fill="white"/>
<path d="M517.048 537.365C517.048 537.567 499.793 537.731 478.513 537.731C457.224 537.731 439.974 537.567 439.974 537.365C439.974 537.163 457.224 537 478.513 537C499.793 537 517.048 537.163 517.048 537.365Z" fill="#263238"/>
</g>
</svg>
